<svg width="950" height="408" viewBox="0 0 950 408" fill="none" xmlns="http://www.w3.org/2000/svg">
<g id="truck">
<g id="g142">
<g id="truck-container">
<g id="g428">
<path id="path430" d="M142.79 247.67L145.359 319.518L287.631 362.57L303.65 305.135C304.707 301.529 302.683 297.741 299.098 296.614L142.79 247.67Z" fill="white"/>
</g>
<g id="g432">
<path id="path434" d="M142.79 247.67L145.359 319.518L287.631 362.57L303.65 305.135C304.707 301.529 302.683 297.741 299.098 296.614L142.79 247.67Z" stroke="#1A2E35" stroke-width="1.33333" stroke-miterlimit="10" stroke-linecap="round" stroke-linejoin="round"/>
</g>
<g id="g436">
<path id="path438" d="M142.79 247.67L120.241 240.354L116.717 246.67L142.937 256.379L142.79 247.67Z" fill="white"/>
</g>
<g id="g440">
<path id="path442" d="M142.79 247.67L120.241 240.354L116.717 246.67L142.937 256.379L142.79 247.67Z" stroke="#1A2E35" stroke-width="1.33333" stroke-miterlimit="10" stroke-linecap="round" stroke-linejoin="round"/>
</g>
<g id="g444">
<g id="path446">
<path d="M152.733 258.813L155.829 318.166Z" fill="white"/>
<path d="M152.733 258.813L155.829 318.166" stroke="#1A2E35" stroke-width="1.33333" stroke-miterlimit="10" stroke-linecap="round" stroke-linejoin="round"/>
</g>
</g>
<g id="g448">
<g id="path450">
<path d="M154.281 271.199L293.115 314.036Z" fill="white"/>
<path d="M154.281 271.199L293.115 314.036" stroke="#1A2E35" stroke-width="1.33333" stroke-miterlimit="10" stroke-linecap="round" stroke-linejoin="round"/>
</g>
</g>
<g id="g452">
<g id="path454">
<path d="M156.862 256.232L168.4 260.058L165.12 271.2" fill="white"/>
<path d="M156.862 256.232L168.4 260.058L165.12 271.2" stroke="#1A2E35" stroke-width="1.33333" stroke-miterlimit="10" stroke-linecap="round" stroke-linejoin="round"/>
</g>
</g>
<g id="g456">
<g id="path458">
<path d="M171.856 260.811L183.394 264.639L180.114 275.779" fill="white"/>
<path d="M171.856 260.811L183.394 264.639L180.114 275.779" stroke="#1A2E35" stroke-width="1.33333" stroke-miterlimit="10" stroke-linecap="round" stroke-linejoin="round"/>
</g>
</g>
<g id="g460">
<g id="path462">
<path d="M186.851 265.391L198.387 269.218L195.108 280.358" fill="white"/>
<path d="M186.851 265.391L198.387 269.218L195.108 280.358" stroke="#1A2E35" stroke-width="1.33333" stroke-miterlimit="10" stroke-linecap="round" stroke-linejoin="round"/>
</g>
</g>
<g id="g464">
<g id="path466">
<path d="M201.845 269.971L213.383 273.797L210.103 284.937" fill="white"/>
<path d="M201.845 269.971L213.383 273.797L210.103 284.937" stroke="#1A2E35" stroke-width="1.33333" stroke-miterlimit="10" stroke-linecap="round" stroke-linejoin="round"/>
</g>
</g>
<g id="g468">
<g id="path470">
<path d="M216.84 274.55L228.377 278.377L225.097 289.517" fill="white"/>
<path d="M216.84 274.55L228.377 278.377L225.097 289.517" stroke="#1A2E35" stroke-width="1.33333" stroke-miterlimit="10" stroke-linecap="round" stroke-linejoin="round"/>
</g>
</g>
<g id="g472">
<g id="path474">
<path d="M231.834 279.129L243.372 282.956L240.092 294.097" fill="white"/>
<path d="M231.834 279.129L243.372 282.956L240.092 294.097" stroke="#1A2E35" stroke-width="1.33333" stroke-miterlimit="10" stroke-linecap="round" stroke-linejoin="round"/>
</g>
</g>
<g id="g476">
<g id="path478">
<path d="M246.829 283.709L258.365 287.536L255.086 298.676" fill="white"/>
<path d="M246.829 283.709L258.365 287.536L255.086 298.676" stroke="#1A2E35" stroke-width="1.33333" stroke-miterlimit="10" stroke-linecap="round" stroke-linejoin="round"/>
</g>
</g>
<g id="g480">
<g id="path482">
<path d="M261.823 288.288L273.36 292.115L270.08 303.255" fill="white"/>
<path d="M261.823 288.288L273.36 292.115L270.08 303.255" stroke="#1A2E35" stroke-width="1.33333" stroke-miterlimit="10" stroke-linecap="round" stroke-linejoin="round"/>
</g>
</g>
<g id="g484">
<g id="path486">
<path d="M276.818 292.868L288.354 296.696L285.075 307.835" fill="white"/>
<path d="M276.818 292.868L288.354 296.696L285.075 307.835" stroke="#1A2E35" stroke-width="1.33333" stroke-miterlimit="10" stroke-linecap="round" stroke-linejoin="round"/>
</g>
</g>
<g id="g488">
<g id="path490">
<path d="M289.795 297.077L298.435 299.942C300.051 300.479 300.951 302.199 300.469 303.831L298.053 312.045" fill="white"/>
<path d="M289.795 297.077L298.435 299.942C300.051 300.479 300.951 302.199 300.469 303.831L298.053 312.045" stroke="#1A2E35" stroke-width="1.33333" stroke-miterlimit="10" stroke-linecap="round" stroke-linejoin="round"/>
</g>
</g>
<g id="g492">
<g id="path494">
<path d="M157.597 298.351L177.424 305.135L177.945 323.918" fill="white"/>
<path d="M157.597 298.351L177.424 305.135L177.945 323.918" stroke="#1A2E35" stroke-width="1.33333" stroke-miterlimit="10" stroke-linecap="round" stroke-linejoin="round"/>
</g>
</g>
<g id="g496">
<g id="path498">
<path d="M189.424 308.266L209.251 315.048L209.773 333.832" fill="white"/>
<path d="M189.424 308.266L209.251 315.048L209.773 333.832" stroke="#1A2E35" stroke-width="1.33333" stroke-miterlimit="10" stroke-linecap="round" stroke-linejoin="round"/>
</g>
</g>
<g id="g500">
<g id="path502">
<path d="M221.251 318.178L241.078 324.962L241.601 343.745" fill="white"/>
<path d="M221.251 318.178L241.078 324.962L241.601 343.745" stroke="#1A2E35" stroke-width="1.33333" stroke-miterlimit="10" stroke-linecap="round" stroke-linejoin="round"/>
</g>
</g>
<g id="g504">
<g id="path506">
<path d="M253.079 328.092L272.906 334.875L273.427 353.659" fill="white"/>
<path d="M253.079 328.092L272.906 334.875L273.427 353.659" stroke="#1A2E35" stroke-width="1.33333" stroke-miterlimit="10" stroke-linecap="round" stroke-linejoin="round"/>
</g>
</g>
<g id="g508">
<g id="path510">
<path d="M209.773 308.266L209.25 293.656L158.118 278.003" fill="white"/>
<path d="M209.773 308.266L209.25 293.656L158.118 278.003" stroke="#1A2E35" stroke-width="1.33333" stroke-miterlimit="10" stroke-linecap="round" stroke-linejoin="round"/>
</g>
</g>
<g id="g512">
<g id="path514">
<path d="M218.233 309.863L218.121 296.786L289.603 319.745L285.951 332.787" fill="white"/>
<path d="M218.233 309.863L218.121 296.786L289.603 319.745L285.951 332.787" stroke="#1A2E35" stroke-width="1.33333" stroke-miterlimit="10" stroke-linecap="round" stroke-linejoin="round"/>
</g>
</g>
</g>
</g>
</g>
</svg>
