<svg width="950" height="408" viewBox="0 0 950 408" fill="none" xmlns="http://www.w3.org/2000/svg">
<g id="truck">
<g id="g142">
<path id="truck-static-garbage" d="M179.903 277.952C185.37 277.978 191.919 276.902 196.124 280.676C198.208 282.546 203.935 281.371 204.769 283.483C206.322 287.422 210.426 283.821 212.331 286.225C214.987 289.578 232.298 291.191 218.801 291.126C216.033 291.113 211.22 292.319 211.237 288.685C211.256 284.717 211.275 280.749 211.294 276.78C211.307 274.072 211.113 281.31 211.808 282.435C213.739 285.556 216.506 284.622 220.155 284.639C226.528 284.67 234.224 283.147 239.322 287.437C243.456 290.916 250.01 292.359 255.532 292.385C259.233 292.403 261.321 295.51 265.076 295.678C268.328 295.824 271.354 296.79 275.052 296.808C277.793 296.821 282.4 297.915 284.256 295.71C287.795 291.505 281.796 291.429 279.407 291.418C276.446 291.403 272.09 290.209 270.738 293.541C269.901 295.604 264.648 296.758 262.606 296.748C256.027 296.717 248.982 297.765 242.098 297.732C238.607 297.715 234.995 297.976 231.516 297.681C229.561 297.515 228.733 295.268 228.53 293.578C228.346 292.048 226.431 292.047 225.536 290.918C225.099 290.366 224.512 288.625 224.228 287.906C223.588 286.283 221.577 287.027 220.451 285.663C219.56 284.583 220.593 282.352 219.448 281.63C217.774 280.572 217.401 280.413 216.456 278.609C213.105 272.204 206.744 276.549 203.696 281.374C200.013 287.205 194.556 287.763 187.913 287.731C184.093 287.713 183.354 283.83 180.959 283.369C180.074 283.198 177.915 282.454 177.118 282.027C175.579 281.203 177.693 277.993 176.179 277.093C170.796 273.891 161.138 277.66 158.476 282.659C155.064 289.066 146.027 287.53 139.813 287.5C133.493 287.47 142.305 287.435 144.383 287.522C149.391 287.731 153.762 290.814 158.737 290.838C163.808 290.862 160.299 295.097 156.257 293.832C152.891 292.779 149.554 292.411 146.29 291.018C144.015 290.047 137.625 292.435 137.641 289.053C137.645 288.261 136.861 286.152 137.412 286.647C138.649 287.756 140.777 286.781 141.736 287.75C143.275 289.303 142.477 290.759 145.269 290.773C146.84 290.78 150.722 290.799 146.892 290.781C144.852 290.771 137.222 291.762 136.62 288.988C135.737 284.923 141.034 289.642 140.401 290.269C138.149 292.499 130.97 290.223 130.194 287.454C129.169 283.802 135.548 286.951 137.167 287.728C140.859 289.498 141.875 290.757 146.291 290.778C154.005 290.815 161.538 290.752 169.013 291.969C172.48 292.534 176.024 294.687 179.759 295.328C182.806 295.851 185.65 296.378 189.014 296.394C195.86 296.427 202.125 297.54 208.97 297.573C216.62 297.609 222.94 299.804 230.905 299.843C235.242 299.863 239.418 300.966 243.646 300.986C245.777 300.996 254.123 299.781 255.308 301.523C257.114 304.177 270.889 304.364 274.474 304.381C277.54 304.396 280.607 304.411 283.673 304.425C285.78 304.435 291.63 303.951 292.284 301.701C293.151 298.723 292.379 294.566 292.393 291.48C292.404 289.337 290.273 282.356 290.25 287.141" stroke="#5AE4A7" stroke-width="25" stroke-linecap="round"/>
</g>
</g>
</svg>
