<svg width="950" height="409" viewBox="0 0 950 409" fill="none" xmlns="http://www.w3.org/2000/svg">
<g id="truck">
<g id="g142">
<g id="truck-body">
<path id="path312" d="M263.712 392.885H71.38V359.573H263.712V392.885Z" fill="#1A2E35" stroke="#1A2E35" stroke-width="1.33333" stroke-miterlimit="10" stroke-linecap="round" stroke-linejoin="round"/>
<g id="g314">
<path id="path316" d="M118.279 371.909C108.435 371.909 100.453 379.889 100.453 389.734C100.453 399.579 108.435 407.559 118.279 407.559C128.123 407.559 136.104 399.579 136.104 389.734C136.104 379.889 128.123 371.909 118.279 371.909Z" fill="#1A2E35"/>
</g>
<g id="g318">
<path id="path320" d="M118.279 371.909C108.435 371.909 100.453 379.889 100.453 389.734C100.453 399.579 108.435 407.559 118.279 407.559C128.123 407.559 136.104 399.579 136.104 389.734C136.104 379.889 128.123 371.909 118.279 371.909Z" stroke="#1A2E35" stroke-width="1.33333" stroke-miterlimit="10" stroke-linecap="round" stroke-linejoin="round"/>
</g>
<g id="g322">
<path id="path324" d="M228.949 371.909C219.104 371.909 211.124 379.889 211.124 389.734C211.124 399.579 219.104 407.559 228.949 407.559C238.793 407.559 246.775 399.579 246.775 389.734C246.775 379.889 238.793 371.909 228.949 371.909Z" fill="#1A2E35"/>
</g>
<g id="g326">
<path id="path328" d="M228.949 371.909C219.104 371.909 211.124 379.889 211.124 389.734C211.124 399.579 219.104 407.559 228.949 407.559C238.793 407.559 246.775 399.579 246.775 389.734C246.775 379.889 238.793 371.909 228.949 371.909Z" stroke="#1A2E35" stroke-width="1.33333" stroke-miterlimit="10" stroke-linecap="round" stroke-linejoin="round"/>
</g>
<g id="g330">
<path id="path332" d="M276.431 371.909C266.587 371.909 258.606 379.889 258.606 389.734C258.606 399.579 266.587 407.559 276.431 407.559C286.277 407.559 294.257 399.579 294.257 389.734C294.257 379.889 286.277 371.909 276.431 371.909Z" fill="#1A2E35"/>
</g>
<g id="g334">
<path id="path336" d="M276.431 371.909C266.587 371.909 258.606 379.889 258.606 389.734C258.606 399.579 266.587 407.559 276.431 407.559C286.277 407.559 294.257 399.579 294.257 389.734C294.257 379.889 286.277 371.909 276.431 371.909Z" stroke="#1A2E35" stroke-width="1.33333" stroke-miterlimit="10" stroke-linecap="round" stroke-linejoin="round"/>
</g>
<g id="g338">
<path id="path340" d="M47.583 301.141L41.3176 342.201V383.793H68.3896L75.1403 361.854H98.4496L106.888 383.793H111.248V295.581H54.2883C51.007 295.581 48.191 297.917 47.583 301.141Z" fill="white"/>
</g>
<g id="g342">
<path id="path344" d="M47.583 301.141L41.3176 342.201V383.793H68.3896L75.1403 361.854H98.4496L106.888 383.793H111.248V295.581H54.2883C51.007 295.581 48.191 297.917 47.583 301.141Z" stroke="#1A2E35" stroke-width="1.33333" stroke-miterlimit="10" stroke-linecap="round" stroke-linejoin="round"/>
</g>
<path id="path346" d="M85.6946 339.459H62.1146V306.511H85.6946V339.459Z" fill="white" stroke="#1A2E35" stroke-width="1.33333" stroke-miterlimit="10" stroke-linecap="round" stroke-linejoin="round"/>
<g id="g348">
<path id="path350" d="M95.4429 339.458H92.9949C90.6003 339.458 88.6589 337.517 88.6589 335.122V310.846C88.6589 308.452 90.6003 306.51 92.9949 306.51H95.4429C97.8376 306.51 99.7789 308.452 99.7789 310.846V335.122C99.7789 337.517 97.8376 339.458 95.4429 339.458Z" fill="white"/>
</g>
<g id="g352">
<path id="path354" d="M95.4429 339.458H92.9949C90.6003 339.458 88.6589 337.517 88.6589 335.122V310.846C88.6589 308.452 90.6003 306.51 92.9949 306.51H95.4429C97.8376 306.51 99.7789 308.452 99.7789 310.846V335.122C99.7789 337.517 97.8376 339.458 95.4429 339.458Z" stroke="#1A2E35" stroke-width="1.33333" stroke-miterlimit="10" stroke-linecap="round" stroke-linejoin="round"/>
</g>
<g id="g356">
<path id="path358" d="M41.3179 342.201H57.5432V306.51H46.5712L41.3179 342.201Z" fill="white"/>
</g>
<g id="g360">
<path id="path362" d="M41.3179 342.201H57.5432V306.51H46.5712L41.3179 342.201Z" stroke="#1A2E35" stroke-width="1.33333" stroke-miterlimit="10" stroke-linecap="round" stroke-linejoin="round"/>
</g>
<path id="path364" d="M134.557 383.793H111.248V295.581H134.557V383.793Z" fill="#B6B6B6" stroke="#1A2E35" stroke-width="1.33333" stroke-miterlimit="10" stroke-linecap="round" stroke-linejoin="round"/>
<path id="path366" d="M47.2587 370.081H40.86V360.027H47.2587V370.081Z" fill="white" stroke="#1A2E35" stroke-width="1.33333" stroke-miterlimit="10" stroke-linecap="round" stroke-linejoin="round"/>
<g id="g368">
<path id="path370" d="M105.306 389.734C105.306 379.889 97.3256 371.909 87.4802 371.909C77.6362 371.909 69.6549 379.889 69.6549 389.734C69.6549 399.58 77.6362 407.56 87.4802 407.56C97.3256 407.56 105.306 399.58 105.306 389.734Z" fill="#6E6E6E"/>
</g>
<g id="g372">
<path id="path374" d="M105.306 389.734C105.306 379.889 97.3256 371.909 87.4802 371.909C77.6362 371.909 69.6549 379.889 69.6549 389.734C69.6549 399.58 77.6362 407.56 87.4802 407.56C97.3256 407.56 105.306 399.58 105.306 389.734Z" stroke="#1A2E35" stroke-width="1.33333" stroke-miterlimit="10" stroke-linecap="round" stroke-linejoin="round"/>
</g>
<g id="g376">
<path id="path378" d="M95.9741 389.734C95.9741 385.044 92.1714 381.241 87.4808 381.241C82.7901 381.241 78.9874 385.044 78.9874 389.734C78.9874 394.426 82.7901 398.228 87.4808 398.228C92.1714 398.228 95.9741 394.426 95.9741 389.734Z" fill="white"/>
</g>
<g id="g380">
<path id="path382" d="M95.9741 389.734C95.9741 385.044 92.1714 381.241 87.4808 381.241C82.7901 381.241 78.9874 385.044 78.9874 389.734C78.9874 394.426 82.7901 398.228 87.4808 398.228C92.1714 398.228 95.9741 394.426 95.9741 389.734Z" stroke="#1A2E35" stroke-width="1.33333" stroke-miterlimit="10" stroke-linecap="round" stroke-linejoin="round"/>
</g>
<path id="path388" d="M296.212 384.228H251.737V355.841H296.212V384.228Z" fill="#1A2E35"/>
<g id="g390">
<path id="path392" d="M142.709 355.841L130.025 325.908H114.542V355.841V384.228H265.246V355.841H142.709Z" fill="#1A2E35"/>
</g>
<path id="path394" d="M174.925 386.808H135.701V366.679H174.925V386.808Z" fill="#6E6E6E" stroke="#1A2E35" stroke-width="1.33333" stroke-miterlimit="10" stroke-linecap="round" stroke-linejoin="round"/>
<g id="g396">
<path id="path398" d="M215.976 389.734C215.976 379.889 207.996 371.909 198.151 371.909C188.307 371.909 180.325 379.889 180.325 389.734C180.325 399.58 188.307 407.56 198.151 407.56C207.996 407.56 215.976 399.58 215.976 389.734Z" fill="#6E6E6E"/>
</g>
<g id="g400">
<path id="path402" d="M215.976 389.734C215.976 379.889 207.996 371.909 198.151 371.909C188.307 371.909 180.325 379.889 180.325 389.734C180.325 399.58 188.307 407.56 198.151 407.56C207.996 407.56 215.976 399.58 215.976 389.734Z" stroke="#1A2E35" stroke-width="1.33333" stroke-miterlimit="10" stroke-linecap="round" stroke-linejoin="round"/>
</g>
<g id="g404">
<path id="path406" d="M206.645 389.734C206.645 385.044 202.842 381.241 198.151 381.241C193.459 381.241 189.657 385.044 189.657 389.734C189.657 394.426 193.459 398.228 198.151 398.228C202.842 398.228 206.645 394.426 206.645 389.734Z" fill="white"/>
</g>
<g id="g408">
<path id="path410" d="M206.645 389.734C206.645 385.044 202.842 381.241 198.151 381.241C193.459 381.241 189.657 385.044 189.657 389.734C189.657 394.426 193.459 398.228 198.151 398.228C202.842 398.228 206.645 394.426 206.645 389.734Z" stroke="#1A2E35" stroke-width="1.33333" stroke-miterlimit="10" stroke-linecap="round" stroke-linejoin="round"/>
</g>
<g id="g412">
<path id="path414" d="M263.459 389.734C263.459 379.889 255.479 371.909 245.633 371.909C235.789 371.909 227.808 379.889 227.808 389.734C227.808 399.58 235.789 407.56 245.633 407.56C255.479 407.56 263.459 399.58 263.459 389.734Z" fill="#6E6E6E"/>
</g>
<g id="g416">
<path id="path418" d="M263.459 389.734C263.459 379.889 255.479 371.909 245.633 371.909C235.789 371.909 227.808 379.889 227.808 389.734C227.808 399.58 235.789 407.56 245.633 407.56C255.479 407.56 263.459 399.58 263.459 389.734Z" stroke="#1A2E35" stroke-width="1.33333" stroke-miterlimit="10" stroke-linecap="round" stroke-linejoin="round"/>
</g>
<g id="g420">
<path id="path422" d="M254.127 389.734C254.127 385.044 250.324 381.241 245.633 381.241C240.943 381.241 237.14 385.044 237.14 389.734C237.14 394.426 240.943 398.228 245.633 398.228C250.324 398.228 254.127 394.426 254.127 389.734Z" fill="white"/>
</g>
<g id="g424">
<path id="path426" d="M254.127 389.734C254.127 385.044 250.324 381.241 245.633 381.241C240.943 381.241 237.14 385.044 237.14 389.734C237.14 394.426 240.943 398.228 245.633 398.228C250.324 398.228 254.127 394.426 254.127 389.734Z" stroke="#1A2E35" stroke-width="1.33333" stroke-miterlimit="10" stroke-linecap="round" stroke-linejoin="round"/>
</g>
</g>
</g>
</g>
</svg>
