<svg width="667" height="667" viewBox="0 0 667 667" fill="none" xmlns="http://www.w3.org/2000/svg">
<g id="12202067_4925359 1" clip-path="url(#clip0_30_82)">
<g id="background">
<path id="path12" d="M0 667H666.667V0.000123501H0V667Z" fill="white"/>
<g id="g14">
<g id="Clip path group">
<mask id="mask0_30_82" style="mask-type:luminance" maskUnits="userSpaceOnUse" x="0" y="0" width="667" height="667">
<g id="clipPath20">
<path id="path18" d="M0 667H666.667V0.000123501H0V667Z" fill="white"/>
</g>
</mask>
<g mask="url(#mask0_30_82)">
<g id="g16">
<g id="g22">
<g id="g36">
<g id="Clip path group_2">
<mask id="mask1_30_82" style="mask-type:luminance" maskUnits="userSpaceOnUse" x="-178" y="-26" width="717" height="395">
<g id="clipPath28">
<path id="path26" d="M-177.436 -25.3993H538.125V368.101H-177.436V-25.3993Z" fill="white"/>
</g>
</mask>
<g mask="url(#mask1_30_82)">
<g id="g34" opacity="0.259995">
<g id="g32">
<path id="path30" d="M-76.9437 336.142C-57.6397 355.906 -30.369 367.65 -2.75168 368.087C24.8643 368.526 52.495 357.655 72.415 338.512C93.6776 318.08 106.158 289.098 129.986 271.728C161.37 248.849 203.703 251.672 242.263 247.084C273.786 243.336 304.632 233.952 332.907 219.512C345.46 213.1 357.764 205.485 366.65 194.538C375.81 183.252 380.796 169.1 389.51 157.466C406.676 134.54 435.68 124.353 463.212 116.488C477.82 112.315 492.678 108.384 505.988 101.054C519.298 93.7235 531.138 82.4592 535.747 67.9759C539.394 56.5182 538.256 44.112 536.248 32.2554C532.898 12.4669 527.222 -6.92684 519.375 -25.4001L-177.436 -6.05707L-76.9437 336.142Z" fill="#F7E6D5"/>
</g>
</g>
</g>
</g>
</g>
</g>
<g id="g38">
<g id="g52">
<g id="Clip path group_3">
<mask id="mask2_30_82" style="mask-type:luminance" maskUnits="userSpaceOnUse" x="257" y="-119" width="684" height="458">
<g id="clipPath44">
<path id="path42" d="M257.243 -118.176H940.205V338.551H257.243V-118.176Z" fill="white"/>
</g>
</mask>
<g mask="url(#mask2_30_82)">
<g id="g50" opacity="0.259995">
<g id="g48">
<path id="path46" d="M264.486 -118.177C248.162 -66.3829 258.659 -1.68661 303.818 28.4444C343.215 54.7322 397.945 48.8413 436.658 76.1283C467.737 98.0326 481.875 136.656 491.097 173.554C500.318 210.453 506.955 249.386 529.011 280.364C557.15 319.885 607.59 339.972 656.065 338.471C704.542 336.971 750.879 316.057 789.794 287.095C828.707 258.134 861.038 221.353 892.159 184.138C902.327 171.98 912.885 158.551 913.682 142.719L940.206 20.8406L264.486 -118.177Z" fill="#F7E6D5"/>
</g>
</g>
</g>
</g>
</g>
</g>
<g id="g54">
<g id="g68">
<g id="Clip path group_4">
<mask id="mask3_30_82" style="mask-type:luminance" maskUnits="userSpaceOnUse" x="100" y="238" width="833" height="573">
<g id="clipPath60">
<path id="path58" d="M100.332 238.877H932.036V810.836H100.332V238.877Z" fill="white"/>
</g>
</mask>
<g mask="url(#mask3_30_82)">
<g id="g66" opacity="0.259995">
<g id="g64">
<path id="path62" d="M110.468 721.389C78.9058 721.389 129.454 660.575 147.972 635.005C166.494 609.433 193.296 588.798 224.27 582.729C250.691 577.552 279.683 582.766 303.507 570.223C327.632 557.521 339.764 529.975 346.832 503.634C353.902 477.292 358.046 449.3 373.267 426.673C394.248 395.484 431.946 380.664 467.819 369.469C503.69 358.277 541.803 347.964 568.644 321.655C580.236 310.29 589.127 296.442 600.416 284.776C632.847 251.257 681.982 239.035 728.61 238.879C752.799 238.799 777.383 241.649 799.6 251.221C822.351 261.022 841.614 277.403 859.379 294.676C886.299 320.853 910.67 349.653 932.036 380.533V810.836H126.164C126.164 810.836 111.614 721.389 110.468 721.389Z" fill="#F7E6D5"/>
</g>
</g>
</g>
</g>
</g>
</g>
<g id="g70">
<g id="g84">
<g id="Clip path group_5">
<mask id="mask4_30_82" style="mask-type:luminance" maskUnits="userSpaceOnUse" x="-258" y="317" width="692" height="384">
<g id="clipPath76">
<path id="path74" d="M-257.785 317.818H433.097V700.41H-257.785V317.818Z" fill="white"/>
</g>
</mask>
<g mask="url(#mask4_30_82)">
<g id="g82" opacity="0.259995">
<g id="g80">
<path id="path78" d="M431.9 700.41C438.666 646.526 416.732 584.767 366.9 563.235C323.425 544.451 270.642 560.076 227.661 540.186C193.158 524.218 172.318 488.762 156.628 454.119C140.936 419.475 127.42 382.367 100.164 355.854C65.3916 322.028 12.1676 311.326 -35.2524 321.509C-82.6711 331.692 -124.504 360.589 -157.59 396.069C-190.675 431.549 -215.88 473.541 -239.82 515.739C-247.64 529.525 -255.618 544.633 -253.56 560.351L-257.784 685.013L431.9 700.41Z" fill="#F7E6D5"/>
</g>
</g>
</g>
</g>
</g>
</g>
<g id="g86">
<path id="path88" d="M-19.9495 399.58C-38.1989 423.337 -41.9055 457.424 -29.1895 484.55C-16.4735 511.679 12.0918 530.623 42.0171 531.775C52.4411 532.176 63.8851 530.066 70.6651 522.135C77.4451 514.203 75.9851 499.362 66.1331 495.931C55.2878 492.153 45.2891 503.76 41.4478 514.587C31.3611 543.02 38.4424 576.825 59.0944 598.813C79.7451 620.798 113.028 629.971 142.018 621.664C156.201 617.601 169.27 609.749 183.836 607.402C203.873 604.173 225.476 612.68 237.578 628.98C249.68 645.281 251.506 668.713 241.684 686.481C235.333 697.97 223.973 707.092 210.952 708.713C197.93 710.335 183.74 703.328 178.837 691.15C174.066 679.3 178.813 665.066 188.077 656.272C197.338 647.478 210.264 643.456 222.982 642.327C247.354 640.16 272.466 648.008 291.272 663.668C310.076 679.329 322.346 702.611 324.637 726.985" stroke="#FCF1E1" stroke-width="0.666667" stroke-miterlimit="10"/>
</g>
<g id="g90">
<path id="path92" d="M443.557 727.462C421.733 698.835 419.688 656.604 438.642 626C449.561 608.374 468.322 594.229 489.048 594.415C509.773 594.599 530.206 613.113 527.656 633.693C526.021 646.887 511.936 658.927 499.694 653.758C489.782 649.573 486.322 636.901 487.702 626.226C490.69 603.119 509.924 584.859 531.334 575.688C552.744 566.517 576.42 564.61 599.506 561.529C622.59 558.45 646.361 553.734 665.229 540.075C691.42 521.117 703.693 488.009 707.786 455.927C709.148 445.257 709.726 434.164 706.256 423.981C702.788 413.8 694.473 404.668 683.848 403.022C672.846 401.318 661.706 408.16 656.062 417.761C650.418 427.362 649.533 439.132 651.048 450.168C654.713 476.888 672.408 501.277 696.662 513.049C720.918 524.819 751.017 523.618 774.26 509.955" stroke="#FCF1E1" stroke-width="0.666667" stroke-miterlimit="10"/>
</g>
<g id="g94">
<path id="path96" d="M361.258 -33.1616C367.498 -3.62688 385.831 23.1612 411.096 39.6614C436.362 56.1617 468.251 62.1713 497.786 55.9989C508.111 53.8418 518.956 49.6157 524.332 40.5352C529.706 31.4546 525.842 16.8727 515.432 15.1598C506.659 13.7151 498.587 22.5809 498.583 31.4773C498.58 40.3738 504.69 48.3164 512.115 53.2109C519.539 58.104 528.242 60.5799 536.627 63.5374C550.508 68.4331 563.864 74.815 576.396 82.5388C589.587 90.6709 602.707 101.568 605.984 116.719C609.263 131.87 596.908 150.45 581.674 147.625C570.864 145.62 563.88 133.288 565.878 122.473C567.875 111.659 577.192 103.146 587.716 99.9675C598.239 96.7886 609.7 98.272 620.114 101.798C650.272 112.007 672.736 138.425 685.583 167.572C698.428 196.717 702.966 228.732 707.374 260.278" stroke="#FCF1E1" stroke-width="0.666667" stroke-miterlimit="10"/>
</g>
<g id="g98">
<path id="path100" d="M260.185 -61.4376C254.038 -40.8406 244.631 -21.2201 232.422 -3.53263C218.762 16.2573 201.03 33.9981 178.869 43.3147C156.709 52.6327 129.675 52.3833 109.899 38.7124C105.525 35.6883 101.399 31.8277 99.7579 26.7678C98.1166 21.708 99.7406 15.2967 104.49 12.9022C109.271 10.4903 115.458 13.0757 118.435 17.5299C121.414 21.9828 121.77 27.7163 121.087 33.0296C118.887 50.1408 107.145 64.6694 93.5179 75.2414C79.8913 85.812 64.1699 93.3077 49.7419 102.755C20.0753 122.18 -3.98605 150.068 -18.8607 182.268C-26.3607 198.503 -31.6194 216.459 -29.1594 234.174C-26.6994 251.89 -15.0861 269.15 2.0806 274.141C17.6286 278.66 35.7819 271.634 44.2419 257.823C52.7019 244.012 50.7193 224.64 39.6379 212.83C28.5553 201.022 9.35661 197.821 -4.95272 205.4C-22.5674 214.727 -29.7487 236.119 -32.8354 255.817C-39.9594 301.286 -33.4821 348.802 -14.4447 390.7" stroke="#FCF1E1" stroke-width="0.666667" stroke-miterlimit="10"/>
</g>
</g>
</g>
</g>
</g>
<g id="g102">
<g id="Clip path group_6">
<mask id="mask5_30_82" style="mask-type:luminance" maskUnits="userSpaceOnUse" x="0" y="0" width="667" height="667">
<g id="clipPath108">
<path id="path106" d="M0 0.000123501H666.667V667H0V0.000123501Z" fill="white"/>
</g>
</mask>
<g mask="url(#mask5_30_82)">
<g id="g104">
<path id="path110" d="M666.667 667H0V0.000123501H666.667V667Z" stroke="white" stroke-width="0.666667" stroke-miterlimit="10"/>
</g>
</g>
</g>
</g>
</g>
</g>
<defs>
<clipPath id="clip0_30_82">
<rect width="666.667" height="666.667" fill="white"/>
</clipPath>
</defs>
</svg>
