<svg width="667" height="667" viewBox="0 0 667 667" fill="none" xmlns="http://www.w3.org/2000/svg">
<g id="12202067_4925359 1" clip-path="url(#clip0_30_82)">
<g id="rotating-shirts">
<g id="g148">
<path id="path150" d="M203.515 287.346C203.515 287.346 220.215 298.025 231.873 304.646C243.532 311.267 255.876 320.488 255.876 320.488L251.717 338.254L206.825 341.252L186.963 305.543L195.001 285.976L203.515 287.346Z" fill="#3BBD84"/>
</g>
<g id="g152">
<path id="path154" d="M200.32 291.743C200.32 291.743 217.02 302.423 228.679 309.043C240.337 315.664 252.681 324.885 252.681 324.885L248.521 342.651L203.631 345.65L183.768 309.94L191.807 290.375L200.32 291.743Z" fill="#5AE4A7"/>
</g>
<g id="g156">
<path id="path158" d="M230.84 296.396C229.71 295.697 228.362 295.359 226.971 295.493L149.547 303.011C146.215 303.334 144.506 305.764 144.015 307.931C143.527 310.086 144.018 313.012 146.855 314.768C146.858 314.769 146.862 314.772 146.864 314.773C174.2 331.637 222.784 361.301 249.31 377.482C252.11 379.19 254.876 378.324 256.531 376.944C258.186 375.566 259.559 372.984 258.451 369.866L233.475 299.669C232.975 298.267 232.028 297.131 230.84 296.396ZM144.924 317.974C141.203 315.671 139.428 311.402 140.404 307.091C141.383 302.765 144.834 299.695 149.194 299.271L226.619 291.753C231.158 291.312 235.411 294.045 236.959 298.393L261.933 368.593C263.388 372.674 262.19 377.093 258.883 379.848C255.576 382.603 251.068 382.939 247.4 380.701C220.871 364.518 172.282 334.851 144.939 317.983C144.934 317.98 144.93 317.978 144.924 317.974Z" fill="#D56C12"/>
</g>
<g id="g160">
<path id="path162" d="M231.222 295.805C230.364 295.273 230.08 294.14 230.588 293.256L231.757 291.224C233.534 288.135 236.716 286.22 240.265 286.103C244.448 285.965 247.4 284.967 248.362 283.366C250.772 279.364 249.522 274.123 245.576 271.681C242.341 269.679 238.168 270.127 235.429 272.775C234.686 273.49 233.517 273.457 232.809 272.71C232.105 271.959 232.132 270.77 232.873 270.054C236.825 266.236 242.842 265.587 247.505 268.474C253.194 271.996 254.998 279.555 251.526 285.324C249.41 288.838 244.3 289.729 240.385 289.857C238.117 289.933 236.088 291.151 234.958 293.117L233.789 295.149C233.273 296.045 232.138 296.347 231.254 295.825C231.244 295.818 231.233 295.811 231.222 295.805Z" fill="#D56C12"/>
</g>
<g id="g164">
<path id="path166" d="M195.554 536.884C195.554 536.884 251.386 568.405 316.425 546.928C316.425 546.928 322.789 517.756 319.33 488.588C315.87 459.422 300.978 437.984 300.978 437.984C300.978 437.984 255.018 454.165 232.254 447.109C209.492 440.05 206.058 430.374 206.058 430.374" fill="#5AE4A7"/>
</g>
<g id="g168">
<path id="path170" d="M195.554 536.884C195.554 536.884 127.09 499.681 114.196 421.164C114.134 420.79 107.336 371.493 121.822 338.055C111.614 340.657 102.522 339.222 102.522 339.222C101.804 339.265 101.16 338.737 101.062 338.007L93.9984 288.288C93.9091 287.622 94.2918 286.983 94.9184 286.763C94.9184 286.763 134.516 274.426 157.341 271.937C165.348 271.062 175.122 272.414 181.953 276.735L203.514 287.346C204.096 287.714 204.326 288.453 204.061 289.091C198.55 302.315 206.28 316.419 218.2 324.177C230.284 331.599 244.801 331.593 254.089 320.756C254.538 320.235 255.294 320.12 255.876 320.487L281.332 339.223C288.164 343.543 294.222 351.156 296.313 359.041C302.46 382.218 306.329 420.142 306.329 420.142C306.409 420.81 306.012 421.438 305.382 421.652L259.156 437.991C258.468 438.225 257.716 437.871 257.438 437.197L245.72 421.71C245.72 421.71 212.828 441.929 195.554 536.884Z" fill="#3BBD84"/>
</g>
<g id="g172">
<g id="g186">
<g id="Clip path group">
<mask id="mask0_30_82" style="mask-type:luminance" maskUnits="userSpaceOnUse" x="122" y="415" width="101" height="18">
<g id="clipPath178">
<path id="path176" d="M122.424 415.924H222.747V432.178H122.424V415.924Z" fill="white"/>
</g>
</mask>
<g mask="url(#mask0_30_82)">
<g id="g184" opacity="0.410004">
<g id="g182">
<path id="path180" d="M149.323 432.178C140.545 432.163 131.753 431.521 123.004 430.242C122.635 430.188 122.379 429.841 122.432 429.466C122.485 429.093 122.831 428.844 123.196 428.886C156.615 433.775 190.713 429.305 221.809 415.979C222.151 415.831 222.548 415.992 222.695 416.342C222.84 416.69 222.679 417.093 222.335 417.239C199.153 427.175 174.312 432.22 149.323 432.178Z" fill="#5AE4A7"/>
</g>
</g>
</g>
</g>
</g>
</g>
<g id="g188">
<g id="g202">
<g id="Clip path group_2">
<mask id="mask1_30_82" style="mask-type:luminance" maskUnits="userSpaceOnUse" x="139" y="424" width="84" height="40">
<g id="clipPath194">
<path id="path192" d="M139.394 424.895H222.131V463.639H139.394V424.895Z" fill="white"/>
</g>
</mask>
<g mask="url(#mask1_30_82)">
<g id="g200" opacity="0.410004">
<g id="g198">
<path id="path196" d="M140.068 463.639C139.744 463.637 139.459 463.402 139.404 463.067C139.343 462.694 139.589 462.341 139.957 462.277C169.645 457.199 197.679 444.327 221.028 425.05C221.317 424.809 221.744 424.854 221.979 425.147C222.215 425.442 222.171 425.873 221.881 426.111C198.352 445.538 170.1 458.512 140.181 463.629C140.144 463.636 140.105 463.639 140.068 463.639Z" fill="#5AE4A7"/>
</g>
</g>
</g>
</g>
</g>
</g>
<g id="g204">
<g id="g218">
<g id="Clip path group_3">
<mask id="mask2_30_82" style="mask-type:luminance" maskUnits="userSpaceOnUse" x="197" y="285" width="63" height="51">
<g id="clipPath210">
<path id="path208" d="M197.135 285.526H259.297V335.801H197.135V285.526Z" fill="white"/>
</g>
</mask>
<g mask="url(#mask2_30_82)">
<g id="g216" opacity="0.410004">
<g id="g214">
<path id="path212" d="M235.597 335.8C227.303 335.787 218.399 332.435 209.983 325.706C189.664 309.463 199.504 286.167 199.607 285.933C199.757 285.587 200.159 285.434 200.497 285.583C200.837 285.736 200.992 286.141 200.841 286.486C200.745 286.71 191.337 309.056 210.819 324.631C227.796 338.203 246.792 337.586 258.091 323.095C258.323 322.801 258.748 322.751 259.04 322.985C259.332 323.218 259.381 323.648 259.151 323.946C252.991 331.847 244.659 335.815 235.597 335.8Z" fill="#5AE4A7"/>
</g>
</g>
</g>
</g>
</g>
</g>
<g id="g220">
<path id="path222" d="M94.9183 286.762C94.9183 286.762 102.052 304.215 103.738 316.765C105.424 329.317 101.709 339.262 101.709 339.262C101.709 339.262 95.4596 333.913 92.2063 322.803C90.0863 315.559 88.6036 290.08 94.9183 286.762Z" fill="#5AE4A7"/>
</g>
<g id="g224">
<g id="g238">
<g id="Clip path group_4">
<mask id="mask3_30_82" style="mask-type:luminance" maskUnits="userSpaceOnUse" x="96" y="285" width="12" height="55">
<g id="clipPath230">
<path id="path228" d="M96.9967 285.493H107.257V339.951H96.9967V285.493Z" fill="white"/>
</g>
</mask>
<g mask="url(#mask3_30_82)">
<g id="g236" opacity="0.410004">
<g id="g234">
<path id="path232" d="M104.696 339.952C104.636 339.952 104.573 339.944 104.512 339.925C104.153 339.822 103.945 339.445 104.046 339.079C104.077 338.968 107.133 327.812 105.348 314.99C103.554 302.104 97.1156 286.602 97.0503 286.447C96.905 286.098 97.065 285.696 97.409 285.549C97.7516 285.4 98.149 285.562 98.2943 285.912C98.361 286.069 104.868 301.732 106.686 314.799C108.512 327.919 105.378 339.339 105.346 339.453C105.261 339.755 104.99 339.952 104.696 339.952Z" fill="#5AE4A7"/>
</g>
</g>
</g>
</g>
</g>
</g>
<g id="g240">
<path id="path242" d="M259.156 437.992C259.143 437.316 264.845 429.248 275.092 426.382C285.337 423.516 306.329 420.143 306.329 420.143C306.329 420.143 304.96 426.721 292.717 433.335C280.473 439.948 259.156 437.992 259.156 437.992Z" fill="#5AE4A7"/>
</g>
<g id="g244">
<g id="g258">
<g id="Clip path group_5">
<mask id="mask4_30_82" style="mask-type:luminance" maskUnits="userSpaceOnUse" x="255" y="416" width="52" height="21">
<g id="clipPath250">
<path id="path248" d="M255.625 416.23H306.506V436.607H255.625V416.23Z" fill="white"/>
</g>
</mask>
<g mask="url(#mask4_30_82)">
<g id="g256" opacity="0.410004">
<g id="g254">
<path id="path252" d="M256.386 436.607C256.32 436.607 256.256 436.597 256.19 436.581L255.823 436.493L255.659 436.085C255.542 435.727 255.732 435.34 256.087 435.22C256.159 435.195 256.275 435.209 256.303 435.185C256.702 434.88 257.643 433.93 258.555 433.008C261.806 429.722 267.246 424.227 271.771 422.837C278.284 420.84 304.603 416.426 305.72 416.24C306.087 416.177 306.436 416.43 306.496 416.805C306.558 417.177 306.308 417.531 305.94 417.592C305.667 417.637 278.592 422.177 272.163 424.148C267.959 425.438 262.67 430.784 259.51 433.979C257.443 436.066 256.891 436.608 256.386 436.607Z" fill="#5AE4A7"/>
</g>
</g>
</g>
</g>
</g>
</g>
<g id="g260">
<path id="path262" d="M300.978 437.984C300.978 437.984 281.644 507.973 316.425 546.928C316.425 546.928 329.116 527.001 321.501 487.182C313.886 447.363 300.978 437.984 300.978 437.984Z" fill="#3BBD84"/>
</g>
<g id="g264">
<g id="g278">
<g id="Clip path group_6">
<mask id="mask5_30_82" style="mask-type:luminance" maskUnits="userSpaceOnUse" x="290" y="438" width="24" height="110">
<g id="clipPath270">
<path id="path268" d="M290.375 438.478H313.494V547.944H290.375V438.478Z" fill="white"/>
</g>
</mask>
<g mask="url(#mask5_30_82)">
<g id="g276" opacity="0.5">
<g id="g274">
<path id="path272" d="M312.936 547.941C312.748 547.962 312.554 547.898 312.412 547.747C302.258 536.967 295.588 520.626 291.426 496.327C287.222 471.789 296.987 439.251 297.087 438.925C297.187 438.588 297.539 438.406 297.871 438.506C298.202 438.61 298.386 438.964 298.284 439.302C298.187 439.625 288.51 471.875 292.66 496.108C296.779 520.148 303.344 536.278 313.32 546.87C313.559 547.124 313.55 547.526 313.299 547.769C313.196 547.869 313.068 547.926 312.936 547.941Z" fill="#3BBD84"/>
</g>
</g>
</g>
</g>
</g>
</g>
<g id="g280">
<g id="g294">
<g id="Clip path group_7">
<mask id="mask6_30_82" style="mask-type:luminance" maskUnits="userSpaceOnUse" x="299" y="439" width="21" height="106">
<g id="clipPath286">
<path id="path284" d="M299.567 439.732H319.698V544.102H299.567V439.732Z" fill="white"/>
</g>
</mask>
<g mask="url(#mask6_30_82)">
<g id="g292" opacity="0.410004">
<g id="g290">
<path id="path288" d="M313.726 544.101C313.655 544.101 313.584 544.09 313.512 544.068C313.159 543.946 312.968 543.558 313.087 543.198C313.159 542.979 320.3 520.986 317.827 496.332C315.35 471.646 299.8 441.037 299.643 440.731C299.472 440.395 299.6 439.981 299.932 439.807C300.266 439.635 300.671 439.765 300.843 440.099C301.002 440.408 316.668 471.252 319.171 496.193C321.675 521.15 314.442 543.412 314.367 543.635C314.272 543.92 314.008 544.103 313.726 544.101Z" fill="#5AE4A7"/>
</g>
</g>
</g>
</g>
</g>
</g>
<g id="g296">
<path id="path298" d="M369.955 483.198C369.955 483.198 371.439 463.233 371.749 449.689C372.057 436.142 374.31 420.765 374.31 420.765L391.738 416.17L415.375 454.984L393.563 489.502L372.751 491.465L369.955 483.198Z" fill="#3BBD84"/>
</g>
<g id="g300">
<path id="path302" d="M375.284 484.001C375.284 484.001 376.768 464.036 377.077 450.49C377.385 436.944 379.638 421.567 379.638 421.567L397.066 416.971L420.704 455.787L398.892 490.305L378.078 492.268L375.284 484.001Z" fill="#5AE4A7"/>
</g>
<g id="g304">
<path id="path306" d="M365.044 454.478C364.964 455.817 365.301 457.183 366.069 458.366L408.881 524.21C410.724 527.043 413.642 527.437 415.76 526.861C417.866 526.29 420.186 524.481 420.386 521.115C420.386 521.113 420.388 521.109 420.388 521.105C422.277 488.716 425.37 431.297 427.045 399.953C427.222 396.645 425.173 394.572 423.197 393.734C421.22 392.899 418.326 392.878 416.13 395.329L366.661 450.584C365.674 451.69 365.129 453.068 365.044 454.478ZM424.085 521.344C423.82 525.757 420.932 529.345 416.72 530.49C412.49 531.639 408.2 529.986 405.789 526.279L362.974 460.434C360.466 456.574 360.854 451.483 363.918 448.06L413.388 392.807C416.264 389.592 420.674 388.596 424.625 390.269C428.574 391.94 430.976 395.822 430.746 400.156C429.07 431.504 425.976 488.931 424.086 521.326C424.086 521.332 424.086 521.337 424.085 521.344Z" fill="#D56C12"/>
</g>
<g id="g308">
<path id="path310" d="M364.35 454.412C364.289 455.429 363.434 456.216 362.426 456.174L360.106 456.078C356.583 455.932 353.426 453.981 351.661 450.854C349.581 447.172 347.329 444.994 345.483 444.881C340.869 444.597 336.886 448.173 336.606 452.852C336.377 456.688 338.723 460.215 342.313 461.429C343.282 461.761 343.802 462.823 343.483 463.806C343.158 464.79 342.109 465.322 341.138 464.993C335.962 463.241 332.578 458.155 332.909 452.625C333.313 445.879 339.054 440.722 345.709 441.132C349.761 441.38 352.93 445.542 354.877 448.988C356.002 450.985 358.015 452.233 360.258 452.324L362.575 452.42C363.599 452.463 364.393 453.338 364.351 454.375C364.351 454.385 364.35 454.399 364.35 454.412Z" fill="#D56C12"/>
</g>
<g id="g312">
<path id="path314" d="M591.117 373.455C591.117 373.455 592.432 308.671 543.257 260.463C543.257 260.463 514.858 268.423 491.064 285.183C467.269 301.943 455.564 325.326 455.564 325.326C455.564 325.326 491.19 358.922 495.701 382.623C500.214 406.323 493.389 413.93 493.389 413.93" fill="#5AE4A7"/>
</g>
<g id="g316">
<path id="path318" d="M591.117 373.455C591.117 373.455 590.766 452.217 528.39 500.544C528.092 500.774 488.322 529.953 452.404 532.634C459.45 540.563 462.458 549.381 462.458 549.381C462.832 550.003 462.674 550.829 462.084 551.258L422.07 580.872C421.532 581.264 420.796 581.221 420.31 580.762C420.31 580.762 391.016 551.066 378.154 531.782C373.645 525.019 370.244 515.627 370.809 507.484L369.956 483.198C370.004 482.504 370.54 481.953 371.221 481.891C385.325 480.633 393.993 467.104 395.172 452.791C395.978 438.489 389.173 425.485 375.381 422.239C374.717 422.081 374.261 421.458 374.31 420.765L378.712 389.184C379.277 381.038 383.073 372.045 388.964 366.478C406.28 350.118 437.513 328.889 437.513 328.889C438.057 328.505 438.79 328.566 439.27 329.031L475.158 362.792C475.685 363.299 475.728 364.138 475.272 364.702L467.266 382.454C467.266 382.454 500.288 402.452 591.117 373.455Z" fill="#3BBD84"/>
</g>
<g id="g320">
<g id="g334">
<g id="Clip path group_8">
<mask id="mask7_30_82" style="mask-type:luminance" maskUnits="userSpaceOnUse" x="473" y="405" width="60" height="85">
<g id="clipPath326">
<path id="path324" d="M473.221 405.345H532.215V489.316H473.221V405.345Z" fill="white"/>
</g>
</mask>
<g mask="url(#mask7_30_82)">
<g id="g332" opacity="0.410004">
<g id="g330">
<path id="path328" d="M521.535 463.915C525.633 471.785 529.191 479.963 532.175 488.4C532.3 488.756 532.119 489.149 531.768 489.277C531.416 489.404 531.039 489.211 530.903 488.863C519.511 456.634 499.647 428.177 473.469 406.562C473.181 406.324 473.136 405.892 473.372 405.598C473.608 405.304 474.033 405.26 474.323 405.499C493.837 421.613 509.868 441.507 521.535 463.915Z" fill="#5AE4A7"/>
</g>
</g>
</g>
</g>
</g>
</g>
<g id="g336">
<g id="g350">
<g id="Clip path group_9">
<mask id="mask8_30_82" style="mask-type:luminance" maskUnits="userSpaceOnUse" x="481" y="401" width="73" height="58">
<g id="clipPath342">
<path id="path340" d="M481.326 401.696H553.361V458.476H481.326V401.696Z" fill="white"/>
</g>
</mask>
<g mask="url(#mask8_30_82)">
<g id="g348" opacity="0.410004">
<g id="g346">
<path id="path344" d="M553.282 457.47C553.433 457.761 553.362 458.126 553.096 458.334C552.8 458.564 552.376 458.509 552.148 458.207C533.818 433.989 509.473 414.903 481.741 403.012C481.396 402.864 481.234 402.46 481.38 402.114C481.526 401.765 481.922 401.603 482.265 401.75C510.213 413.732 534.75 432.965 553.221 457.373C553.245 457.404 553.265 457.438 553.282 457.47Z" fill="#5AE4A7"/>
</g>
</g>
</g>
</g>
</g>
</g>
<g id="g352">
<g id="g366">
<g id="Clip path group_10">
<mask id="mask9_30_82" style="mask-type:luminance" maskUnits="userSpaceOnUse" x="369" y="416" width="33" height="72">
<g id="clipPath358">
<path id="path356" d="M369.833 416.2H401.241V487.363H369.833V416.2Z" fill="white"/>
</g>
</mask>
<g mask="url(#mask9_30_82)">
<g id="g364" opacity="0.410004">
<g id="g362">
<path id="path360" d="M397.149 431.76C401.023 439.197 402.273 448.745 400.351 459.437C395.715 485.248 370.807 487.342 370.556 487.361C370.183 487.389 369.861 487.1 369.835 486.725C369.807 486.349 370.087 486.021 370.459 485.994C370.7 485.976 394.576 483.939 399.021 459.19C402.899 437.625 393.463 420.894 375.545 417.558C375.179 417.488 374.936 417.132 375.003 416.759C375.069 416.389 375.421 416.143 375.788 416.21C385.559 418.029 392.919 423.634 397.149 431.76Z" fill="#5AE4A7"/>
</g>
</g>
</g>
</g>
</g>
</g>
<g id="g368">
<path id="path370" d="M420.31 580.762C420.31 580.762 432.175 566.199 442.322 558.81C452.468 551.42 462.874 550.089 462.874 550.089C462.874 550.089 461.142 558.195 452.984 566.312C447.666 571.605 426.159 584.867 420.31 580.762Z" fill="#5AE4A7"/>
</g>
<g id="g372">
<g id="g386">
<g id="Clip path group_11">
<mask id="mask10_30_82" style="mask-type:luminance" maskUnits="userSpaceOnUse" x="417" y="546" width="46" height="34">
<g id="clipPath378">
<path id="path376" d="M417.835 546.726H462.155V579.254H417.835V546.726Z" fill="white"/>
</g>
</mask>
<g mask="url(#mask10_30_82)">
<g id="g384" opacity="0.410004">
<g id="g382">
<path id="path380" d="M462.076 547.092C462.104 547.146 462.127 547.205 462.139 547.269C462.218 547.638 461.986 548.003 461.621 548.081C461.509 548.106 450.356 550.595 440.022 558.198C429.634 565.84 419.141 578.869 419.037 579.002C418.801 579.294 418.377 579.34 418.086 579.1C417.795 578.862 417.751 578.431 417.989 578.136C418.094 578.004 428.694 564.838 439.227 557.09C449.805 549.309 461.223 546.767 461.338 546.742C461.64 546.677 461.938 546.827 462.076 547.092Z" fill="#5AE4A7"/>
</g>
</g>
</g>
</g>
</g>
</g>
<g id="g388">
<path id="path390" d="M475.159 362.792C474.576 363.119 464.877 361.789 457.58 353.951C450.284 346.116 437.513 328.888 437.513 328.888C437.513 328.888 443.887 327.033 455.384 334.904C466.88 342.776 475.159 362.792 475.159 362.792Z" fill="#5AE4A7"/>
</g>
<g id="g392">
<g id="g406">
<g id="Clip path group_12">
<mask id="mask11_30_82" style="mask-type:luminance" maskUnits="userSpaceOnUse" x="434" y="330" width="42" height="38">
<g id="clipPath398">
<path id="path396" d="M434.258 330.161H475.415V367.029H434.258V330.161Z" fill="white"/>
</g>
</mask>
<g mask="url(#mask11_30_82)">
<g id="g404" opacity="0.410004">
<g id="g402">
<path id="path400" d="M475.25 365.921C475.28 365.979 475.302 366.041 475.32 366.109L475.415 366.478L475.135 366.816C474.879 367.089 474.45 367.1 474.18 366.841C474.126 366.786 474.083 366.677 474.05 366.661C473.598 366.447 472.328 366.05 471.098 365.664C466.714 364.289 459.376 361.992 456.046 358.587C451.255 353.687 435.083 332.175 434.396 331.261C434.168 330.964 434.227 330.531 434.524 330.301C434.822 330.073 435.246 330.131 435.472 330.431C435.639 330.656 452.276 352.785 457.004 357.623C460.098 360.784 467.232 363.02 471.496 364.354C474.283 365.228 475.014 365.47 475.25 365.921Z" fill="#5AE4A7"/>
</g>
</g>
</g>
</g>
</g>
</g>
<g id="g408">
<path id="path410" d="M455.563 325.326C455.563 325.326 525.603 309.869 543.258 260.463C543.258 260.463 519.95 258.427 488.819 283.897C457.69 309.37 455.563 325.326 455.563 325.326Z" fill="#3BBD84"/>
</g>
<g id="g412">
<g id="g426">
<g id="Clip path group_13">
<mask id="mask12_30_82" style="mask-type:luminance" maskUnits="userSpaceOnUse" x="457" y="262" width="89" height="67">
<g id="clipPath418">
<path id="path416" d="M457.463 262.836H545.883V328.384H457.463V262.836Z" fill="white"/>
</g>
</mask>
<g mask="url(#mask12_30_82)">
<g id="g424" opacity="0.5">
<g id="g422">
<path id="path420" d="M545.773 263.113C545.88 263.271 545.914 263.477 545.852 263.673C541.212 277.82 530.097 291.448 510.874 306.558C491.464 321.817 458.538 328.308 458.208 328.371C457.866 328.439 457.542 328.209 457.473 327.866C457.41 327.521 457.633 327.188 457.973 327.122C458.301 327.059 490.934 320.623 510.105 305.555C529.124 290.605 540.104 277.168 544.66 263.271C544.769 262.937 545.124 262.757 545.453 262.868C545.589 262.914 545.698 263.002 545.773 263.113Z" fill="#3BBD84"/>
</g>
</g>
</g>
</g>
</g>
</g>
<g id="g428">
<g id="g442">
<g id="Clip path group_14">
<mask id="mask13_30_82" style="mask-type:luminance" maskUnits="userSpaceOnUse" x="457" y="263" width="86" height="63">
<g id="clipPath434">
<path id="path432" d="M457.351 263.839H542.137V325.531H457.351V263.839Z" fill="white"/>
</g>
</mask>
<g mask="url(#mask13_30_82)">
<g id="g440" opacity="0.410004">
<g id="g438">
<path id="path436" d="M542.058 264.204C542.09 264.267 542.116 264.338 542.128 264.412C542.189 264.785 541.938 265.138 541.572 265.199C541.346 265.238 518.837 269.14 498.514 282.903C478.165 296.684 458.776 324.952 458.584 325.236C458.37 325.547 457.95 325.624 457.642 325.41C457.337 325.191 457.26 324.768 457.472 324.457C457.666 324.17 477.202 295.688 497.762 281.763C518.337 267.831 541.124 263.886 541.352 263.848C541.644 263.799 541.926 263.951 542.058 264.204Z" fill="#5AE4A7"/>
</g>
</g>
</g>
</g>
</g>
</g>
<g id="g444">
<path id="path446" d="M454.379 258.449C454.379 258.449 436.325 266.554 424.407 272.679C412.485 278.804 398.056 284.055 398.056 284.055L385.827 270.65L408.397 231.187L448.705 234.371L460.244 252.046L454.379 258.449Z" fill="#3BBD84"/>
</g>
<g id="g448">
<path id="path450" d="M452.558 253.308C452.558 253.308 434.505 261.414 422.586 267.538C410.666 273.663 396.237 278.914 396.237 278.914L384.008 265.509L406.578 226.047L446.885 229.231L458.425 246.905L452.558 253.308Z" fill="#5AE4A7"/>
</g>
<g id="g452">
<path id="path454" d="M431.737 276.409C432.939 275.847 433.967 274.9 434.632 273.655L471.636 204.285C473.228 201.3 472.192 198.505 470.691 196.885C469.199 195.272 466.529 194.056 463.512 195.464C463.508 195.466 463.505 195.467 463.501 195.47C434.456 209.082 383.087 233.446 355.052 246.757C352.092 248.161 351.259 250.973 351.465 253.135C351.672 255.297 353.02 257.893 356.191 258.696L427.588 276.802C429.015 277.163 430.472 276.998 431.737 276.409ZM461.961 192.052C465.921 190.204 470.405 191.089 473.392 194.314C476.389 197.549 476.979 202.165 474.895 206.072L437.891 275.442C435.721 279.51 431.115 281.566 426.689 280.446L355.293 262.34C351.139 261.288 348.189 257.817 347.777 253.498C347.365 249.177 349.603 245.196 353.48 243.355C381.519 230.042 432.895 205.676 461.947 192.06L461.961 192.052Z" fill="#D56C12"/>
</g>
<g id="g456">
<path id="path458" d="M432.007 277.059C432.921 276.634 434.007 277.026 434.447 277.946L435.459 280.064C436.998 283.283 436.793 287.026 434.91 290.079C432.693 293.678 431.863 296.72 432.637 298.422C434.57 302.681 439.558 304.551 443.758 302.589C447.202 300.983 449.158 297.221 448.519 293.439C448.347 292.416 449.026 291.449 450.033 291.269C451.039 291.095 451.998 291.781 452.171 292.804C453.093 298.259 450.27 303.686 445.309 306.003C439.254 308.829 432.058 306.133 429.27 299.993C427.574 296.255 429.693 291.456 431.769 288.088C432.973 286.138 433.105 283.751 432.126 281.704L431.114 279.586C430.667 278.652 431.053 277.529 431.973 277.076C431.983 277.07 431.995 277.065 432.007 277.059Z" fill="#D56C12"/>
</g>
<g id="g460">
<path id="path462" d="M254.503 112.646C254.503 112.646 197.574 142.078 178.903 208.802C178.903 208.802 199.24 230.422 225.05 243.767C250.859 257.114 276.714 256.529 276.714 256.529C276.714 256.529 289.084 208.817 307.551 193.588C326.019 178.358 335.856 180.863 335.856 180.863" fill="#5AE4A7"/>
</g>
<g id="g464">
<path id="path466" d="M254.503 112.646C254.503 112.646 323.128 75.7489 394.603 108.662C394.946 108.819 439.095 130.575 458.396 161.41C461.958 151.366 468.202 144.512 468.202 144.512C468.566 143.883 469.359 143.636 470.008 143.961L514.655 165.729C515.251 166.025 515.559 166.702 515.392 167.354C515.392 167.354 503.419 207.565 492.734 228.168C488.987 235.396 482.431 242.871 475.086 246.213L454.379 258.449C453.754 258.734 453.019 258.515 452.644 257.936C444.89 245.925 429.032 244.572 416.036 250.28C403.224 256.317 395.136 268.541 398.831 282.401C399.007 283.07 398.68 283.77 398.056 284.056L368.526 295.042C361.18 298.384 351.568 299.241 343.947 296.606C321.547 288.861 288.338 270.978 288.338 270.978C287.747 270.672 287.452 269.988 287.631 269.339L300.02 221.316C300.212 220.606 300.922 220.171 301.628 220.313L320.839 219.08C320.839 219.08 322.62 180.121 254.503 112.646Z" fill="#3BBD84"/>
</g>
<g id="g468">
<g id="g482">
<g id="Clip path group_15">
<mask id="mask14_30_82" style="mask-type:luminance" maskUnits="userSpaceOnUse" x="337" y="110" width="47" height="93">
<g id="clipPath474">
<path id="path472" d="M337.523 110.79H383.433V202.702H337.523V110.79Z" fill="white"/>
</g>
</mask>
<g mask="url(#mask14_30_82)">
<g id="g480" opacity="0.410004">
<g id="g478">
<path id="path476" d="M366.004 132.094C370.909 124.713 376.336 117.669 382.26 111.016C382.51 110.736 382.937 110.713 383.214 110.967C383.49 111.221 383.501 111.65 383.262 111.934C360.633 137.342 345.284 168.54 338.862 202.146C338.792 202.515 338.437 202.761 338.07 202.688C337.704 202.617 337.465 202.257 337.536 201.885C342.324 176.833 352.038 153.106 366.004 132.094Z" fill="#5AE4A7"/>
</g>
</g>
</g>
</g>
</g>
</g>
<g id="g484">
<g id="g498">
<g id="Clip path group_16">
<mask id="mask15_30_82" style="mask-type:luminance" maskUnits="userSpaceOnUse" x="329" y="106" width="18" height="92">
<g id="clipPath490">
<path id="path488" d="M329.785 106.464H346.641V197.18H329.785V106.464Z" fill="white"/>
</g>
</mask>
<g mask="url(#mask15_30_82)">
<g id="g496" opacity="0.410004">
<g id="g494">
<path id="path492" d="M345.405 106.766C345.586 106.494 345.937 106.386 346.242 106.525C346.583 106.682 346.734 107.086 346.581 107.431C334.189 135.255 329.102 166.031 331.869 196.432C331.905 196.81 331.63 197.144 331.259 197.178C330.887 197.213 330.558 196.935 330.525 196.559C327.735 165.921 332.861 134.906 345.349 106.867C345.365 106.831 345.383 106.797 345.405 106.766Z" fill="#5AE4A7"/>
</g>
</g>
</g>
</g>
</g>
</g>
<g id="g500">
<g id="g514">
<g id="Clip path group_17">
<mask id="mask16_30_82" style="mask-type:luminance" maskUnits="userSpaceOnUse" x="391" y="240" width="67" height="46">
<g id="clipPath506">
<path id="path504" d="M391.807 240.692H457.818V285.36H391.807V240.692Z" fill="white"/>
</g>
</mask>
<g mask="url(#mask16_30_82)">
<g id="g512" opacity="0.410004">
<g id="g510">
<path id="path508" d="M396.823 258.448C401.457 251.473 409.165 245.845 419.365 242.511C443.991 234.461 457.579 255.73 457.713 255.947C457.913 256.267 457.815 256.69 457.504 256.892C457.188 257.093 456.771 256.999 456.572 256.678C456.443 256.473 443.392 236.095 419.78 243.815C399.203 250.54 389.12 266.876 394.684 284.466C394.797 284.825 394.603 285.211 394.248 285.327C393.893 285.443 393.513 285.245 393.399 284.885C390.363 275.294 391.759 266.068 396.823 258.448Z" fill="#5AE4A7"/>
</g>
</g>
</g>
</g>
</g>
</g>
<g id="g516">
<path id="path518" d="M515.392 167.354C515.392 167.354 497.126 163.63 485.91 158.053C474.694 152.477 468.622 143.806 468.622 143.806C468.622 143.806 476.484 141.525 487.394 144.981C494.508 147.233 516.196 160.188 515.392 167.354Z" fill="#5AE4A7"/>
</g>
<g id="g520">
<g id="g534">
<g id="Clip path group_18">
<mask id="mask17_30_82" style="mask-type:luminance" maskUnits="userSpaceOnUse" x="466" y="145" width="50" height="26">
<g id="clipPath526">
<path id="path524" d="M466.277 145.632H515.01V170.682H466.277V145.632Z" fill="white"/>
</g>
</mask>
<g mask="url(#mask17_30_82)">
<g id="g532" opacity="0.410004">
<g id="g530">
<path id="path528" d="M466.392 145.935C466.425 145.883 466.468 145.836 466.517 145.794C466.801 145.549 467.226 145.586 467.469 145.874C467.541 145.963 474.974 154.754 486.466 160.398C498.016 166.071 514.298 169.293 514.462 169.324C514.828 169.396 515.068 169.755 514.997 170.127C514.926 170.498 514.573 170.741 514.205 170.669C514.041 170.637 497.588 167.384 485.877 161.631C474.117 155.856 466.513 146.85 466.437 146.761C466.238 146.52 466.228 146.183 466.392 145.935Z" fill="#5AE4A7"/>
</g>
</g>
</g>
</g>
</g>
</g>
<g id="g536">
<path id="path538" d="M300.02 221.316C300.58 221.681 304.005 230.979 300.641 241.202C297.277 251.426 288.337 270.978 288.337 270.978C288.337 270.978 283.715 266.158 285.124 252.164C286.533 238.171 300.02 221.316 300.02 221.316Z" fill="#5AE4A7"/>
</g>
<g id="g540">
<g id="g554">
<g id="Clip path group_19">
<mask id="mask18_30_82" style="mask-type:luminance" maskUnits="userSpaceOnUse" x="290" y="219" width="16" height="55">
<g id="clipPath546">
<path id="path544" d="M290.582 219.345H305.965V273.042H290.582V219.345Z" fill="white"/>
</g>
</mask>
<g mask="url(#mask18_30_82)">
<g id="g552" opacity="0.410004">
<g id="g550">
<path id="path548" d="M302.697 219.756C302.733 219.701 302.777 219.652 302.828 219.605L303.104 219.345L303.53 219.434C303.889 219.536 304.1 219.913 304.001 220.278C303.98 220.352 303.904 220.442 303.908 220.479C303.934 220.985 304.189 222.307 304.436 223.589C305.313 228.156 306.781 235.799 305.396 240.384C303.4 246.98 292.342 271.596 291.873 272.641C291.721 272.986 291.318 273.137 290.977 272.98C290.638 272.822 290.488 272.416 290.644 272.072C290.758 271.818 302.134 246.493 304.104 239.982C305.39 235.725 303.962 228.291 303.109 223.851C302.552 220.947 302.416 220.181 302.697 219.756Z" fill="#5AE4A7"/>
</g>
</g>
</g>
</g>
</g>
</g>
<g id="g556">
<path id="path558" d="M276.713 256.529C276.713 256.529 230.187 201.237 178.904 208.802C178.904 208.802 188.145 230.595 224.992 246.381C261.839 262.166 276.713 256.529 276.713 256.529Z" fill="#3BBD84"/>
</g>
<g id="g560">
<g id="g574">
<g id="Clip path group_20">
<mask id="mask19_30_82" style="mask-type:luminance" maskUnits="userSpaceOnUse" x="179" y="204" width="100" height="50">
<g id="clipPath566">
<path id="path564" d="M179.947 204.171H278.25V253.763H179.947V204.171Z" fill="white"/>
</g>
</mask>
<g mask="url(#mask19_30_82)">
<g id="g572" opacity="0.5">
<g id="g570">
<path id="path568" d="M180.019 205.301C180.105 205.132 180.268 205.004 180.468 204.967C194.957 202.428 212.053 205.923 234.269 215.964C256.703 226.103 277.9 252.462 278.111 252.727C278.331 253 278.284 253.397 278.019 253.622C277.748 253.842 277.355 253.8 277.136 253.526C276.925 253.263 255.915 227.139 233.76 217.126C211.78 207.191 194.913 203.726 180.683 206.222C180.34 206.281 180.016 206.049 179.957 205.703C179.932 205.559 179.957 205.42 180.019 205.301Z" fill="#3BBD84"/>
</g>
</g>
</g>
</g>
</g>
</g>
<g id="g576">
<g id="g590">
<g id="Clip path group_21">
<mask id="mask20_30_82" style="mask-type:luminance" maskUnits="userSpaceOnUse" x="182" y="207" width="94" height="49">
<g id="clipPath582">
<path id="path580" d="M182.607 207.804H275.807V255.239H182.607V207.804Z" fill="white"/>
</g>
</mask>
<g mask="url(#mask20_30_82)">
<g id="g588" opacity="0.410004">
<g id="g586">
<path id="path584" d="M182.722 208.106C182.762 208.047 182.81 207.993 182.87 207.945C183.166 207.715 183.59 207.771 183.818 208.071C183.956 208.253 197.983 226.527 219.547 238.187C241.139 249.861 274.87 253.835 275.207 253.873C275.578 253.916 275.844 254.254 275.803 254.631C275.758 255.007 275.426 255.276 275.056 255.235C274.715 255.196 240.728 251.192 218.912 239.397C197.082 227.592 182.888 209.092 182.747 208.906C182.566 208.667 182.563 208.344 182.722 208.106Z" fill="#5AE4A7"/>
</g>
</g>
</g>
</g>
</g>
</g>
</g>
</g>
<defs>
<clipPath id="clip0_30_82">
<rect width="666.667" height="666.667" fill="white"/>
</clipPath>
</defs>
</svg>
