<svg width="3248" height="4270" viewBox="0 0 3248 4270" fill="none" xmlns="http://www.w3.org/2000/svg">
<g id="g10">
<path id="path14" d="M1713.17 3119.57C1701.15 3119.79 1688.23 3120.6 1674.56 3121.97C1527.65 3136.45 1299.76 3211.83 1299.76 3211.83L1040.57 3588.68C1026.09 3609.65 999.16 3618.2 975.253 3609.39C774.893 3535.24 599.08 3441.08 452.24 3323.07C433.44 3307.97 426.466 3282.55 435.013 3260C438.226 3251.6 441.987 3242.17 446.293 3232.05C470.413 3176.09 512.507 3099.41 573.187 3063.2C674.867 3002.59 811.253 3084.52 811.253 3084.52C811.253 3084.52 993.426 2817.2 1053.21 2750.59C1113.01 2683.96 1314.04 2601.96 1314.04 2601.96L1673.33 2855.95C1673.33 2855.95 1854.41 3117.32 1713.17 3119.57Z" fill="#F8F8F8"/>
<path id="path16" d="M2976.16 2766.71C2975.75 2811.12 2960.31 2854.11 2932.43 2888.68C2866.97 2970 2724.76 3100.24 2496.75 3080.15C2444.53 3075.57 2398.61 3039.43 2358.31 2981.96C2144.76 2678.08 2086.75 1776.84 2086.75 1776.84L2382.28 1534.27C2382.28 1534.27 2670.99 1544.44 2776.91 1639.29C2823.16 1680.71 2869.36 1818.05 2905.64 2000.84C2923.68 2091.72 2939.33 2193.88 2951.23 2301.09C2960.72 2386.37 2967.83 2474.87 2972 2563.35C2975.28 2631.61 2976.71 2699.88 2976.16 2766.71Z" fill="#F8F8F8"/>
<path id="path18" d="M2543.53 3106.87C2527.64 3106.87 2511.35 3106.16 2494.57 3104.68C2346.24 3091.61 2228.48 2862.01 2144.55 2422.27C2083.47 2102.25 2062.36 1781.63 2062.16 1778.43C2061.29 1764.85 2071.59 1753.13 2085.16 1752.25C2098.76 1751.45 2110.45 1761.68 2111.33 1775.27C2111.53 1778.44 2132.48 2096.39 2193.03 2413.43C2270.08 2816.95 2378.71 3045.01 2498.91 3055.6C2716.15 3074.69 2851.73 2949.56 2913.23 2873.25C2937.59 2843.01 2951.19 2805.11 2951.51 2766.49C2955.73 2265.23 2850 1737.81 2760.47 1657.65C2662.45 1569.88 2384.24 1558.99 2381.44 1558.89C2367.84 1558.4 2357.21 1546.99 2357.69 1533.39C2358.17 1519.79 2369.76 1509.23 2383.17 1509.64C2395.33 1510.08 2682.05 1521.29 2793.33 1620.95C2904.09 1720.12 3004.91 2277.04 3000.77 2766.91C3000.36 2816.57 2982.89 2865.32 2951.6 2904.17C2888.68 2982.27 2755.05 3106.84 2543.53 3106.87Z" fill="#371A45"/>
<path id="path20" d="M2972 2563.35C2879.68 2622.93 2719.31 2665.79 2657.32 2619.04L2665.11 2290.49L2669.08 2125.48C2669.08 2125.48 2784.97 2040.33 2905.64 2000.84C2961.4 1982.59 2992.49 2064.32 3010.67 2166.2C3010.88 2167.43 3011.08 2168.8 3011.36 2170.16C3031.85 2287.97 3035.48 2430.92 3039.99 2477.25C3042.65 2504.72 3014.56 2535.81 2972 2563.35Z" fill="#F8F8F8"/>
<path id="path22" d="M2734.04 2663.53C2698.07 2663.55 2665.84 2656.33 2642.48 2638.71C2631.63 2630.51 2629.47 2615.05 2637.65 2604.2C2645.85 2593.33 2661.31 2591.17 2672.16 2599.37C2714.56 2631.36 2839.16 2610.41 2938.83 2554.52C2993.52 2523.87 3016.89 2494.23 3015.47 2479.65C3014.21 2466.83 3013.07 2447.61 3011.61 2423.28C3005.83 2325.73 2990.43 2066.63 2931.48 2026.51C2925.71 2022.59 2920.45 2021.93 2913.32 2024.27C2797.97 2062.03 2684.76 2144.51 2683.63 2145.35C2672.67 2153.39 2657.24 2151.01 2649.19 2140.05C2641.15 2129.08 2643.51 2113.67 2654.47 2105.61C2659.33 2102.04 2775 2017.69 2898 1977.43C2919.61 1970.36 2940.77 1973.24 2959.2 1985.77C3032.08 2035.36 3049.87 2236.11 3060.81 2420.36C3062.23 2444.16 3063.33 2462.96 3064.51 2474.85C3068.44 2515.01 3032.37 2558.57 2962.93 2597.51C2902.32 2631.48 2809.89 2663.53 2734.04 2663.53Z" fill="#371A45"/>
<path id="path24" d="M2651.25 3044.8C2665.6 3015.01 2677.05 2983.44 2685.6 2950.12C2707.45 2864.84 2710.89 2769.04 2695.75 2660.39C2707.83 2662.55 2720.68 2663.55 2734.04 2663.53C2804.39 2663.53 2888.97 2635.97 2949.23 2604.87C2951.15 2658.64 2951.96 2712.73 2951.51 2766.49C2951.19 2805.11 2937.59 2843.01 2913.23 2873.25C2867.64 2929.83 2781.35 3013.21 2651.25 3044.8ZM2660.33 2492.03C2658.35 2484.77 2656.31 2477.49 2654.19 2470.13C2656.63 2465.41 2658.96 2460.57 2661.2 2455.64L2660.33 2492.03Z" fill="#C8C0CB"/>
<path id="path26" d="M2636.27 3073.43C2641.57 3064.08 2646.57 3054.53 2651.25 3044.8C2781.35 3013.21 2867.64 2929.83 2913.23 2873.25C2937.59 2843.01 2951.19 2805.11 2951.51 2766.49C2951.96 2712.73 2951.15 2658.64 2949.23 2604.87C2953.95 2602.43 2958.52 2599.97 2962.93 2597.51C2966.45 2595.53 2969.89 2593.55 2973.24 2591.55C2975.63 2650.39 2976.63 2709.08 2976.16 2766.71C2975.75 2811.12 2960.31 2854.11 2932.43 2888.68C2881.53 2951.91 2784.23 3044.71 2636.27 3073.43Z" fill="#371A45"/>
<path id="path28" d="M2734.47 2614.41C2715.96 2614.41 2699.77 2612.12 2687.08 2607.33C2680.16 2570.36 2671.25 2531.93 2660.33 2492.03L2661.2 2455.64C2678.47 2417.45 2689.71 2372.95 2695.68 2325.19C2710.87 2341.83 2737.08 2356.97 2782.23 2356.97C2784.6 2356.97 2787 2356.93 2789.48 2356.85C2844.41 2354.93 2906.4 2334.99 2951.23 2301.09C2970.49 2286.49 2986.57 2269.32 2997.52 2249.88C3005.33 2317.33 3009.27 2383.64 3011.61 2423.28C3013.07 2447.61 3014.21 2466.83 3015.47 2479.65C3016.89 2494.23 2993.52 2523.87 2938.83 2554.52C2871 2592.56 2791.63 2614.41 2734.47 2614.41Z" fill="#C8C0CB"/>
<path id="path30" d="M2734.04 2663.53C2720.68 2663.55 2707.83 2662.55 2695.75 2660.39C2693.33 2643.03 2690.44 2625.36 2687.08 2607.33C2699.77 2612.12 2715.96 2614.41 2734.47 2614.41C2791.63 2614.41 2871 2592.56 2938.83 2554.52C2993.52 2523.87 3016.89 2494.23 3015.47 2479.65C3014.21 2466.83 3013.07 2447.61 3011.61 2423.28C3009.27 2383.64 3005.33 2317.33 2997.52 2249.88C3010.72 2226.43 3016.47 2199.68 3011.36 2170.16C3031.85 2287.97 3035.48 2430.92 3039.99 2477.25C3042.65 2504.72 3014.56 2535.81 2972 2563.35C2972.44 2572.75 2972.87 2582.15 2973.24 2591.55C2969.89 2593.55 2966.45 2595.53 2962.93 2597.51C2958.52 2599.97 2953.95 2602.43 2949.23 2604.87C2888.97 2635.97 2804.39 2663.53 2734.04 2663.53Z" fill="#371A45"/>
<path id="path32" d="M2984.21 2094.37C2946.19 2106 2907.71 2119.17 2870.85 2134.23C2845.6 2145.33 2816.35 2156.39 2797.03 2174.83C2796.11 2175.72 2795.87 2176.36 2795.16 2177.13C2795.09 2177.61 2794.81 2177.45 2794.67 2177.95C2793.4 2183.43 2792.72 2190.44 2792.24 2196.28C2789.99 2235.89 2791.19 2276.97 2792.21 2317.53C2793.45 2358.23 2795.23 2398.96 2797.4 2439.67C2791.25 2399.36 2785.52 2358.99 2780.29 2318.48C2775.29 2277.85 2770.05 2237.63 2768.32 2195.76C2768.29 2189.08 2768.11 2181.4 2769.08 2174.57C2769.48 2169 2772.4 2162.97 2775.59 2158.56C2797.63 2131.6 2827.04 2118.08 2855.56 2101.77C2892.48 2082.31 2929.76 2065.32 2968.31 2049.25C2999.52 2037.61 3016 2083.73 2984.21 2094.37Z" fill="#371A45"/>
<path id="path34" d="M994.653 3637.48C985.32 3637.48 975.88 3635.85 966.733 3632.47C759.213 3555.72 580.92 3458.09 436.8 3342.28C409.6 3320.43 399.613 3283.84 411.96 3251.25C434 3193.08 482.6 3088.56 560.56 3042.04C649.8 2988.81 758.533 3030.68 803.32 3052.47C845.787 2990.56 983.173 2791.75 1034.88 2734.13C1097.73 2664.09 1296.29 2582.59 1304.71 2579.15C1317.31 2574 1331.69 2580.05 1336.83 2592.65C1341.97 2605.25 1335.92 2619.63 1323.32 2624.77C1268.87 2647 1117.45 2715.89 1071.56 2767.04C1013.53 2831.69 833.4 3095.73 831.587 3098.4C824.24 3109.19 809.746 3112.37 798.547 3105.64C797.333 3104.92 673.373 3032.12 585.813 3084.36C520.68 3123.21 477.8 3216.53 458.04 3268.71C453.28 3281.29 457.147 3295.43 467.653 3303.87C607.627 3416.35 781.293 3511.36 983.813 3586.25C997.213 3591.2 1012.19 3586.45 1020.28 3574.71L1279.48 3197.87C1282.53 3193.44 1286.95 3190.12 1292.05 3188.44C1303.31 3184.72 1569.47 3097.25 1712.8 3094.95C1734.19 3094.6 1738.08 3087.03 1739.36 3084.53C1757.45 3049.33 1698.57 2935.68 1653.08 2869.96C1645.33 2858.77 1648.13 2843.43 1659.31 2835.68C1670.49 2827.93 1685.84 2830.72 1693.59 2841.91C1715.24 2873.16 1821.32 3032.8 1783.19 3107.04C1774.68 3123.63 1755.69 3143.53 1713.59 3144.21C1590.88 3146.19 1360.61 3218.16 1315.35 3232.69L1060.88 3602.63C1045.53 3624.93 1020.53 3637.48 994.653 3637.48Z" fill="#371A45"/>
<path id="path36" d="M994.64 3588.2C991.027 3588.2 987.373 3587.56 983.813 3586.25C781.293 3511.36 607.627 3416.35 467.653 3303.87C457.147 3295.43 453.28 3281.29 458.04 3268.71C460.813 3261.4 464.027 3253.29 467.693 3244.65L512.573 3271.07C625.733 3332.65 723.8 3366.09 803.893 3366.09C886.787 3366.09 950.427 3330.29 991.72 3252.83C991.72 3252.83 1148.88 3041 1274.35 2953.53C1342.17 2906.2 1368.39 2843.75 1378.17 2796.35C1444.69 2989.45 1564.61 3068.03 1620.79 3095.35L1613.91 3105.4C1472.25 3129.2 1301.04 3185.47 1292.05 3188.44C1286.95 3190.12 1282.53 3193.44 1279.48 3197.87L1020.28 3574.71C1014.33 3583.35 1004.67 3588.2 994.64 3588.2Z" fill="#C8C0CB"/>
<path id="path38" d="M994.52 3612.83C988.08 3612.83 981.56 3611.71 975.253 3609.39C774.893 3535.24 599.08 3441.08 452.24 3323.07C433.44 3307.97 426.466 3282.55 435.013 3260C438.226 3251.6 441.987 3242.17 446.293 3232.05L467.693 3244.65C464.027 3253.29 460.813 3261.4 458.04 3268.71C453.28 3281.29 457.147 3295.43 467.653 3303.87C607.627 3416.35 781.293 3511.36 983.813 3586.25C987.373 3587.56 991.026 3588.2 994.64 3588.2C1004.67 3588.2 1014.33 3583.35 1020.28 3574.71L1279.48 3197.87C1282.53 3193.44 1286.95 3190.12 1292.05 3188.44C1301.04 3185.47 1472.25 3129.2 1613.91 3105.4L1610.45 3110.44C1605.41 3117.8 1601.04 3125.47 1597.36 3133.36C1459.23 3159.09 1299.76 3211.83 1299.76 3211.83L1040.57 3588.68C1029.91 3604.12 1012.51 3612.83 994.52 3612.83Z" fill="#371A45"/>
<path id="path40" d="M1302.65 3225.49C1301.05 3225.49 1299.41 3225.31 1297.79 3224.92C1047.6 3164.11 896.24 2968.33 889.92 2960.03C883.067 2951.01 884.813 2938.15 893.813 2931.29C902.827 2924.44 915.68 2926.19 922.533 2935.19C924.187 2937.33 1071.95 3127.83 1307.47 3185.08C1318.48 3187.75 1325.23 3198.84 1322.55 3209.84C1320.27 3219.21 1311.89 3225.49 1302.65 3225.49Z" fill="#371A45"/>
<path id="path42" d="M804.773 2696.41C804.773 2696.41 998.48 2656.65 1151.99 2543.88L774.733 2572.61L804.773 2696.41Z" fill="#F8F8F8"/>
<path id="path44" d="M810.773 2669.77C812.32 2652.91 809.92 2635.55 803.68 2618.8L980.16 2612.49C903.28 2645.87 836.293 2663.63 810.773 2669.77Z" fill="#C8C0CB"/>
<path id="path46" d="M804.747 2721.05C793.293 2721.05 783.04 2713.04 780.64 2701.39C777.907 2688.05 786.48 2675.03 799.8 2672.29C801.693 2671.89 990.253 2632.12 1137.4 2524.03C1148.36 2515.96 1163.77 2518.32 1171.84 2529.29C1179.89 2540.25 1177.53 2555.68 1166.57 2563.73C1010.52 2678.39 817.853 2718.88 809.72 2720.55C808.053 2720.89 806.387 2721.05 804.747 2721.05Z" fill="#371A45"/>
<path id="path48" d="M2397.65 3261.92L2130.13 3611.51C2063.44 3698.63 1940.99 3721.79 1848.27 3663.16C1766 3611.09 1696.51 3514.07 1653.72 3411.69C1621.61 3335.09 1604.52 3255.49 1608.08 3189.41C1609.31 3166.04 1617.57 3143.63 1630.76 3124.36L1658.24 3084.25C1658.24 3084.25 1417.64 3010.93 1365.84 2635.57V2537.59C1365.84 2537.59 1240.59 2529.25 1231.43 2512.92C1222.35 2496.59 1106.45 2098.01 1106.45 2098.01C1106.45 2098.01 1263.35 1842.79 1488.84 1743.77C1595.16 1697.11 1743.65 1679.2 1870.81 1673.25C2013.36 1666.63 2129.19 1675.09 2129.19 1675.09L2329.67 1664.51C2329.67 1664.51 2500.16 1713.09 2591.24 1874.76C2682.4 2036.51 2709.73 2321.87 2627.73 2467.35C2734.27 2829.77 2688.55 3111.11 2397.65 3261.92Z" fill="#F8F8F8"/>
<path id="path50" d="M1959.59 3719.76C1916.55 3719.76 1873.32 3708.15 1835.09 3683.96C1676.48 3583.55 1575.19 3342.03 1583.48 3188.08C1584.95 3160.91 1594.27 3134.05 1610.45 3110.44L1620.79 3095.35C1551.29 3061.56 1384.29 2949.36 1341.44 2638.92C1341.28 2637.81 1341.2 2636.68 1341.2 2635.56V2560.48C1224.4 2550.84 1215.08 2534.16 1209.95 2524.95C1200.83 2508.61 1126.35 2254.76 1082.76 2104.88C1080.81 2098.21 1081.79 2091.03 1085.43 2085.11C1092 2074.41 1249.03 1822.19 1478.93 1721.21C1707.4 1620.87 2113.76 1649.29 2130.95 1650.55C2144.52 1651.55 2154.72 1663.35 2153.72 1676.92C2152.73 1690.49 2141 1700.75 2127.36 1699.69C2123.27 1699.4 1715.97 1670.92 1498.75 1766.33C1306.63 1850.71 1163.24 2056.36 1133.21 2101.91C1174.32 2243.08 1237.76 2457.89 1251.56 2496.91C1268.69 2503.11 1322.79 2510.04 1367.48 2513.03C1380.43 2513.89 1390.48 2524.64 1390.48 2537.61V2633.85C1440.05 2988.03 1663.17 3060.03 1665.43 3060.71C1672.93 3063 1678.89 3068.72 1681.49 3076.12C1684.09 3083.52 1683 3091.72 1678.57 3098.2L1651.11 3138.28C1640.03 3154.45 1633.67 3172.59 1632.69 3190.73C1625.13 3330.76 1721.37 3553.64 1861.45 3642.32C1942.31 3693.51 2051.72 3673.39 2110.55 3596.53L2378.09 3246.96C2380.29 3244.08 2383.11 3241.73 2386.32 3240.07C2644.93 3106 2716.16 2855.51 2604.08 2474.28C2602.2 2467.89 2602.99 2461.03 2606.25 2455.23C2679.2 2325.83 2661.49 2049.63 2569.8 1886.88C2485.03 1736.4 2324.51 1688.64 2322.89 1688.19C2309.83 1684.41 2302.27 1670.77 2306.01 1657.71C2309.76 1644.64 2323.35 1637.09 2336.43 1640.8C2343.79 1642.89 2517.75 1694.09 2612.73 1862.69C2701.63 2020.47 2736.84 2310.07 2654.19 2470.13C2709.15 2661.08 2719.41 2818.19 2685.6 2950.12C2648.69 3094.11 2557.31 3205.48 2413.91 3281.24L2149.68 3626.48C2103.23 3687.16 2031.68 3719.76 1959.59 3719.76Z" fill="#371A45"/>
<path id="path52" d="M1548.15 2170.15H2067.87C2114.47 2170.15 2152.23 2207.92 2152.23 2254.51V2569.2C2152.23 2614.97 2115.72 2652.4 2069.96 2653.55L1550.24 2666.44C1502.84 2667.61 1463.79 2629.51 1463.79 2582.09V2254.51C1463.79 2207.92 1501.56 2170.15 1548.15 2170.15Z" fill="#F8F8F8"/>
<path id="path54" d="M1548.15 2194.79C1515.21 2194.79 1488.43 2221.57 1488.43 2254.51V2582.09C1488.43 2598.33 1494.81 2613.52 1506.44 2624.85C1518.07 2636.19 1533.33 2642.28 1549.63 2641.81L2069.35 2628.92C2102.01 2628.11 2127.59 2601.87 2127.59 2569.2V2254.51C2127.59 2221.57 2100.8 2194.79 2067.87 2194.79H1548.15ZM1548.05 2691.11C1519.48 2691.11 1492.57 2680.16 1472.03 2660.13C1450.83 2639.44 1439.15 2611.72 1439.15 2582.09V2254.51C1439.15 2194.41 1488.04 2145.51 1548.15 2145.51H2067.87C2127.97 2145.51 2176.87 2194.41 2176.87 2254.51V2569.2C2176.87 2628.83 2130.17 2676.69 2070.57 2678.17L1550.85 2691.07C1549.92 2691.09 1548.99 2691.11 1548.05 2691.11Z" fill="#371A45"/>
<path id="path56" d="M1398.39 2175.84H1918.11C1964.69 2175.84 2002.47 2213.61 2002.47 2260.21V2574.89C2002.47 2620.68 1965.96 2658.11 1920.2 2659.24L1400.48 2672.13C1353.08 2673.31 1314.01 2635.2 1314.01 2587.79V2260.21C1314.01 2213.61 1351.79 2175.84 1398.39 2175.84Z" fill="#F8F8F8"/>
<path id="path58" d="M1733.12 2501.72C1733 2502.24 1732.91 2502.76 1732.83 2503.28C1732.92 2502.69 1733.01 2502.17 1733.12 2501.72ZM1756.49 2687.21C1743.55 2687.21 1732.91 2676.89 1732.59 2663.88C1731.56 2621.63 1730.31 2555.41 1731.52 2521.29C1694.05 2511.92 1581.67 2497.09 1480.68 2486.64C1468.92 2485.43 1459.81 2475.8 1459.25 2463.99L1445.59 2176.99C1444.96 2163.79 1455.15 2152.57 1468.33 2151.95C1481.57 2151.37 1492.73 2161.51 1493.36 2174.71L1506.05 2441.21C1758.57 2468.03 1769.13 2482.71 1775.53 2491.59C1779.83 2497.53 1781.39 2505 1779.81 2512.05C1778.17 2522.49 1778.8 2596.99 1780.41 2662.72C1780.73 2675.92 1770.29 2686.88 1757.09 2687.21C1756.89 2687.21 1756.69 2687.21 1756.49 2687.21Z" fill="#371A45"/>
<path id="path60" d="M1398.39 2200.48C1365.45 2200.48 1338.65 2227.27 1338.65 2260.21V2587.79C1338.65 2604.03 1345.05 2619.21 1356.68 2630.55C1368.31 2641.88 1383.75 2647.87 1399.87 2647.51L1919.59 2634.61C1952.25 2633.8 1977.83 2607.57 1977.83 2574.89V2260.21C1977.83 2227.27 1951.04 2200.48 1918.11 2200.48H1398.39ZM1398.31 2696.8C1369.72 2696.8 1342.81 2685.85 1322.27 2665.81C1301.07 2645.13 1289.37 2617.41 1289.37 2587.79V2260.21C1289.37 2200.11 1338.28 2151.2 1398.39 2151.2H1918.11C1978.21 2151.2 2027.11 2200.11 2027.11 2260.21V2574.89C2027.11 2634.52 1980.41 2682.39 1920.81 2683.87L1401.09 2696.76C1400.16 2696.79 1399.23 2696.8 1398.31 2696.8Z" fill="#371A45"/>
<path id="path62" d="M1986.16 2478.55L1984.25 2514.63C1983.01 2537.93 1964.23 2556.45 1940.85 2557.33L1279.6 2580.91L365.588 2613.57C340.647 2614.47 319.737 2594.92 318.917 2569.91L317.756 2532.4C317.276 2517.71 323.973 2504.45 334.633 2495.91H334.701C342.012 2489.96 351.171 2486.27 361.283 2485.93L1272.84 2454.29L1274.68 2454.23L1939.56 2431.13C1966 2430.24 1987.53 2452.11 1986.16 2478.55Z" fill="#BCC4CC"/>
<path id="path64" d="M1296.23 2491.89L1295.07 2474.37L1762.24 2458.15C1773.11 2460.91 1784.49 2462.97 1796.4 2464.19C1810.6 2465.63 1823.99 2466.28 1836.6 2466.28C1874.45 2466.28 1905.25 2460.39 1929.65 2452.33L1940.29 2451.96C1940.63 2451.95 1940.96 2451.95 1941.29 2451.95C1947.81 2451.95 1953.83 2454.53 1958.41 2459.2C1963.03 2463.89 1965.48 2470.04 1965.36 2476.59C1958.36 2472.11 1950.05 2469.51 1941.15 2469.51C1940.61 2469.51 1940.09 2469.51 1939.56 2469.53L1296.23 2491.89Z" fill="#E5E8EB"/>
<path id="path66" d="M1280.97 2577.49L1279.47 2577.36L334.701 2495.91H334.633L298.759 2417.39L26.044 1820.72C18.9373 1805.2 20.7814 1787.16 30.896 1773.43L52.0773 1744.59C60.4147 1733.32 73.3973 1726.28 87.4053 1725.6L879.24 1683.71C933.16 1680.84 982.76 1712.81 1002.44 1763.11L1004.08 1767.21L1272.84 2454.29L1277.48 2524.88L1280.97 2577.49Z" fill="#BCC4CC"/>
<path id="path68" d="M46.4547 1815.27L44.98 1812.04C41.0533 1803.45 42.092 1793.39 47.6907 1785.77L68.892 1756.96C73.5307 1750.64 80.6787 1746.79 88.4973 1746.37L880.32 1704.49C882.173 1704.4 884 1704.35 885.84 1704.35C920.773 1704.35 952.973 1721.75 972.187 1750.05L960.493 1743.77C942.24 1733.59 921.36 1727.95 899.613 1727.95C897.387 1727.95 895.147 1728 892.907 1728.12L101.072 1770.01C87.064 1770.69 74.0813 1777.73 65.744 1789.01L46.4547 1815.27Z" fill="#E5E8EB"/>
<path id="path70" d="M361.988 2506.77C348.684 2507.24 338.195 2518.44 338.612 2531.75L339.777 2569.29C339.979 2575.77 342.704 2581.8 347.447 2586.24C352.191 2590.67 358.375 2592.95 364.861 2592.75L1940.11 2536.48C1952.75 2536.03 1962.77 2526.16 1963.44 2513.52L1965.33 2477.44C1965.68 2470.57 1963.23 2464.09 1958.41 2459.2C1953.6 2454.29 1947.2 2451.68 1940.29 2451.96L361.988 2506.77ZM363.937 2634.47C347.167 2634.47 331.281 2628.2 318.968 2616.68C306.064 2604.61 298.655 2588.24 298.105 2570.59L296.939 2533.04C295.809 2496.84 324.341 2466.36 360.543 2465.11L1938.84 2410.29C1957.31 2409.63 1975.23 2416.83 1988.15 2429.97C2001.07 2443.12 2007.92 2461.21 2006.96 2479.63L2005.07 2515.71C2003.27 2550.07 1975.99 2576.92 1941.6 2578.15L366.353 2634.41C365.545 2634.45 364.739 2634.47 363.937 2634.47Z" fill="#371A45"/>
<path id="path72" d="M1280.97 2598.32C1270.08 2598.32 1260.92 2589.87 1260.19 2578.84L1252.27 2458.88L983.04 1770.69C966.613 1728.71 925.28 1702.15 880.32 1704.49L88.4973 1746.37C80.6786 1746.79 73.5306 1750.64 68.892 1756.96L47.6907 1785.77C42.092 1793.39 41.0533 1803.45 44.98 1812.04L353.56 2487.25C358.349 2497.72 353.739 2510.08 343.267 2514.87C332.796 2519.68 320.425 2515.05 315.643 2504.57L7.06269 1829.37C-3.14931 1807.04 -0.449371 1780.87 14.104 1761.08L35.3053 1732.25C47.372 1715.85 65.9587 1705.83 86.2973 1704.75L878.12 1662.85C941.16 1659.61 998.88 1696.76 1021.87 1755.51L1292.27 2446.69C1293.04 2448.68 1293.51 2450.77 1293.65 2452.91L1301.79 2576.09C1302.55 2587.59 1293.85 2597.52 1282.36 2598.27C1281.91 2598.31 1281.44 2598.32 1280.97 2598.32Z" fill="#371A45"/>
<path id="path74" d="M364.561 2592.76C353.963 2583.43 345.847 2574.01 339.652 2565.27L338.612 2531.75C338.376 2524.2 341.647 2517.33 346.948 2512.71C347.457 2512.35 347.945 2511.95 348.412 2511.53C352.224 2508.69 356.9 2506.95 361.988 2506.77L432.4 2504.33L584.333 2517.43C535.347 2528.87 504.28 2560.17 485.507 2588.44L364.861 2592.75C364.761 2592.76 364.661 2592.76 364.561 2592.76ZM779.48 2577.93C762.027 2557.37 737.493 2539.73 706.253 2527.95L1137.75 2565.15L779.48 2577.93Z" fill="#9B99AA"/>
<path id="path76" d="M1137.75 2565.15L706.253 2527.95C692.427 2522.72 677.307 2518.65 660.88 2515.97C648.093 2513.89 636.08 2512.93 624.787 2512.93C610.107 2512.93 596.653 2514.55 584.333 2517.43L432.4 2504.33L1253.39 2475.81L1259 2560.81L1137.75 2565.15ZM344.599 2467.64L321.313 2416.69C732.213 2401.23 988.88 2245.71 960.493 1859.93V1743.77C965.027 1746.31 969.4 1749.11 973.587 1752.17C977.293 1757.93 980.467 1764.13 983.04 1770.69L1242.72 2434.47L360.543 2465.11C355.023 2465.31 349.683 2466.17 344.599 2467.64Z" fill="#9B99AA"/>
<path id="path78" d="M973.587 1752.17C969.4 1749.11 965.027 1746.31 960.493 1743.77L972.187 1750.05C972.653 1750.76 973.12 1751.47 973.587 1752.17Z" fill="#B9B4C1"/>
<path id="path80" d="M391.733 2612.64C381.229 2606.25 372.24 2599.52 364.561 2592.76C364.661 2592.76 364.761 2592.76 364.861 2592.75L485.507 2588.44C480.56 2595.89 476.467 2603.13 473.133 2609.73L391.733 2612.64ZM793.92 2598.27C789.827 2591.27 785.013 2584.45 779.48 2577.93L1137.75 2565.15L1259 2560.81L1260.19 2578.84C1260.25 2579.79 1260.37 2580.69 1260.56 2581.59L793.92 2598.27ZM339.652 2565.27C323.364 2542.28 320.351 2523.95 320.351 2523.95C319.405 2529.85 318.635 2535.64 318.032 2541.32L317.756 2532.4C317.523 2525.25 318.987 2518.44 321.779 2512.36C325.433 2515.2 329.96 2516.77 334.608 2516.77C337.508 2516.77 340.457 2516.16 343.267 2514.87C344.591 2514.27 345.82 2513.55 346.948 2512.71C341.647 2517.33 338.376 2524.2 338.612 2531.75L339.652 2565.27ZM348.412 2511.53C355.113 2505.61 357.472 2495.8 353.56 2487.25L344.599 2467.64C349.683 2466.17 355.023 2465.31 360.543 2465.11L1242.72 2434.47L1252.27 2458.88L1253.39 2475.81L432.4 2504.33L361.988 2506.77C356.9 2506.95 352.224 2508.69 348.412 2511.53Z" fill="#371A45"/>
<path id="path82" d="M1260.56 2581.59C1260.37 2580.69 1260.25 2579.79 1260.19 2578.84L1259 2560.81L1253.39 2475.81L1252.27 2458.88L1242.72 2434.47L983.04 1770.69C980.467 1764.13 977.293 1757.93 973.587 1752.17C973.12 1751.47 972.653 1750.76 972.187 1750.05L1004.08 1767.21L1272.84 2454.29L1274.68 2454.23C1275.71 2479.37 1276.67 2503.21 1277.48 2524.88C1278.24 2544.43 1278.92 2562.12 1279.47 2577.36C1279.53 2578.59 1279.53 2579.75 1279.6 2580.91L1260.56 2581.59ZM334.608 2516.77C329.96 2516.77 325.433 2515.2 321.779 2512.36C324.728 2505.92 329.157 2500.29 334.633 2495.91L298.759 2417.39C306.316 2417.2 313.857 2416.97 321.313 2416.69L344.599 2467.64L353.56 2487.25C357.472 2495.8 355.113 2505.61 348.412 2511.53C347.945 2511.95 347.457 2512.35 346.948 2512.71C345.82 2513.55 344.591 2514.27 343.267 2514.87C340.457 2516.16 337.508 2516.77 334.608 2516.77Z" fill="#371A45"/>
<path id="path84" d="M460.427 2641.25C460.427 2641.25 500.293 2489.79 660.88 2515.97C821.453 2542.17 859.04 2701.61 746.293 2759.69C633.547 2817.77 274.797 2808.67 320.351 2523.95C320.351 2523.95 334.017 2607.08 460.427 2641.25Z" fill="#F8F8F8"/>
<path id="path86" d="M598.253 2788.17C518.747 2788.17 430.96 2768.09 374.813 2715.12C410.88 2724.77 449.053 2728.99 485.467 2728.99C545.147 2728.99 600.12 2717.68 633.52 2700.49C709.507 2661.35 717.227 2576.13 664.947 2516.75C822.053 2544.91 858.067 2702.07 746.267 2759.67C712.88 2776.87 657.893 2788.17 598.253 2788.17Z" fill="#C8C0CB"/>
<path id="path88" d="M344.003 2607.39C351.581 2650.84 373.587 2685.93 409.853 2712.2C503.507 2780.04 667.587 2772.53 735.013 2737.79C772.653 2718.4 791.533 2684.05 785.493 2645.92C779.147 2605.84 741.667 2554.12 656.907 2540.29C520 2517.93 485.653 2642.23 484.253 2647.52C482.587 2653.87 478.453 2659.28 472.773 2662.57C467.093 2665.85 460.347 2666.75 454 2665.04C402.48 2651.11 367.573 2629.43 344.003 2607.39ZM598.667 2812.55C523.08 2812.55 440.747 2795.43 380.953 2752.11C331.053 2715.96 275.813 2646.36 296.024 2520.05C297.932 2508.12 308.212 2499.33 320.299 2499.31H320.351C332.411 2499.31 342.704 2508.04 344.66 2519.95C345.109 2522.25 357.063 2579.16 445.013 2610.64C470.56 2550.37 538.4 2471.03 664.84 2491.65C755.96 2506.52 822.427 2564.05 834.16 2638.23C843.547 2697.49 814.2 2752.43 757.573 2781.59C721.013 2800.43 662.227 2812.55 598.667 2812.55Z" fill="#371A45"/>
<path id="path90" d="M2301.04 2280.39C2292.01 2356.79 2258.95 2430.92 2211.45 2467.35L1986.23 2391.84C1986.23 2391.84 1933 2453.33 1798.93 2439.67C1664.79 2426 1603.29 2290.16 1603.29 2290.16C1603.29 2290.16 1546.09 2408.92 1476.88 2361.09C1458.01 2348.04 1448.93 2331.97 1445.92 2315.17C1442.03 2293.31 1448.39 2270.13 1457.07 2250.67C1467.39 2227.49 1482.48 2206.79 1500.59 2189.03L1628.92 2062.68C1737.09 1920.35 1888.59 2022.84 1993.33 2083.17H2249.59C2295.77 2128.89 2309.92 2205.69 2301.04 2280.39Z" fill="#F8F8F8"/>
<path id="path92" d="M1986.23 2367.2C1988.84 2367.2 1991.48 2367.61 1994.05 2368.48L2206.09 2439.55C2245.19 2402.72 2273.71 2332.28 2278.32 2259C2282.27 2196.16 2267.97 2141.79 2238.89 2107.84H1993.36C1989.04 2107.84 1984.8 2106.71 1981.07 2104.55C1974.39 2100.71 1967.53 2096.69 1960.51 2092.59C1833.69 2018.39 1730.19 1970.17 1648.53 2077.61C1647.83 2078.55 1647.04 2079.44 1646.2 2080.27L1517.85 2206.57C1501.13 2223.03 1488.25 2241.24 1479.57 2260.69C1454.92 2315.95 1481.05 2334.03 1490.89 2340.83C1503.19 2349.33 1512.24 2348.29 1518 2346.8C1546.44 2339.33 1573.79 2294.56 1581.12 2279.47C1585.29 2270.87 1594.21 2265.43 1603.61 2265.57C1613.17 2265.71 1621.8 2271.33 1625.73 2280.03C1626.28 2281.21 1683.43 2403.13 1801.39 2415.16C1919.43 2427.19 1967.15 2376.23 1967.59 2375.72C1972.36 2370.21 1979.2 2367.2 1986.23 2367.2ZM2211.45 2491.97C2208.83 2491.97 2206.19 2491.55 2203.63 2490.69L1992 2419.76C1967.29 2439.39 1905.83 2475.33 1796.4 2464.19C1695.81 2453.93 1633.05 2383.41 1602.69 2338.24C1586.19 2360.69 1561.49 2386.27 1530.64 2394.41C1507.51 2400.55 1484.08 2396.01 1462.87 2381.36C1417.97 2350.32 1407.93 2300.33 1434.57 2240.61C1445.77 2215.52 1462.16 2192.24 1483.29 2171.45L1610.4 2046.36C1724.87 1897.63 1881.57 1989.32 1985.39 2050.05C1990.33 2052.95 1995.2 2055.79 1999.97 2058.56H2249.6C2256.09 2058.56 2262.32 2061.12 2266.93 2065.69C2310.56 2108.87 2332.63 2180.45 2327.49 2262.09C2321.57 2356.09 2281.91 2444.33 2226.45 2486.88C2222.09 2490.23 2216.8 2491.97 2211.45 2491.97Z" fill="#371A45"/>
<path id="path94" d="M1581.71 2278.32L1673.33 2162.92L1624.88 2302.07C1620.33 2315.11 1606.09 2321.99 1593.07 2317.45C1576.99 2312.2 1571.04 2291.31 1581.71 2278.32Z" fill="#371A45"/>
<path id="path96" d="M1963.73 2381.76L2021.83 2321.8L2008.71 2401.91L1963.73 2381.76Z" fill="#371A45"/>
<path id="path98" d="M2206.09 2439.55L2013.13 2374.88L2021.83 2321.8L1975.44 2369.68C1972.51 2371.12 1969.81 2373.15 1967.59 2375.72C1967.19 2376.17 1928.97 2417 1836.44 2417C1825.53 2417 1813.85 2416.43 1801.39 2415.16C1701.11 2404.93 1644.77 2315.28 1629.81 2287.92L1673.33 2162.92L1586.71 2272.01C1584.73 2273.8 1583.04 2275.92 1581.72 2278.31L1581.71 2278.32C1579.63 2280.85 1578.17 2283.69 1577.31 2286.65C1566.69 2305.51 1542.76 2340.29 1518 2346.8C1515.93 2347.33 1513.45 2347.81 1510.55 2347.81C1505.33 2347.81 1498.77 2346.28 1490.89 2340.83C1485.36 2337 1474.65 2329.6 1470.76 2314.03C1474.35 2314.73 1478.41 2315.2 1482.89 2315.2C1502.95 2315.2 1531.13 2305.69 1560.59 2265.43C1615.25 2190.67 1686.32 2127.93 1689.19 2125.48C1687.41 2129.85 1631.92 2268.71 1743.92 2333.76C1761.49 2343.95 1779.64 2348.27 1797.76 2348.27C1897.08 2348.27 1995.65 2218.75 1995.65 2218.75C1995.65 2218.75 2067.11 2281.24 2237.73 2281.25C2249.92 2281.25 2262.6 2280.93 2275.83 2280.25C2275.99 2280.24 2276.15 2280.23 2276.31 2280.23C2268.07 2345.64 2241.39 2406.29 2206.09 2439.55Z" fill="#C8C0CB"/>
<path id="path100" d="M2188.09 2459.52L2013.79 2401.08L2012.13 2400.52L2009.11 2399.51L2013.13 2374.88L2206.09 2439.55C2241.39 2406.29 2268.07 2345.64 2276.31 2280.23C2280.2 2280.03 2283.97 2279.93 2287.63 2279.93C2292.29 2279.93 2296.76 2280.08 2301.04 2280.39L2234.23 2445.84C2233.33 2446.87 2232.41 2447.88 2231.49 2448.88C2227.76 2447.41 2224.24 2445.99 2220.96 2444.61C2217.85 2443.32 2214.63 2442.71 2211.47 2442.71C2201.83 2442.71 2192.68 2448.39 2188.73 2457.84C2188.49 2458.39 2188.28 2458.95 2188.09 2459.52ZM1836.75 2441.65C1824.93 2441.65 1812.35 2441.04 1798.93 2439.67C1700.19 2429.61 1640.8 2353.35 1616.35 2313.79C1620.16 2310.92 1623.19 2306.92 1624.88 2302.07L1629.81 2287.92C1644.77 2315.28 1701.11 2404.93 1801.39 2415.16C1813.85 2416.43 1825.53 2417 1836.44 2417C1928.97 2417 1967.19 2376.17 1967.59 2375.72C1969.81 2373.15 1972.51 2371.12 1975.44 2369.68L1963.73 2381.76L1986.23 2391.84C1986.08 2392.01 1942.92 2441.65 1836.75 2441.65ZM1510.47 2372.44C1499.75 2372.44 1488.48 2369.11 1476.88 2361.09C1458.01 2348.04 1448.93 2331.97 1445.92 2315.17L1453.51 2307.59C1453.51 2307.59 1459.95 2311.88 1470.76 2314.03C1474.65 2329.6 1485.36 2337 1490.89 2340.83C1498.77 2346.28 1505.33 2347.81 1510.55 2347.81C1513.45 2347.81 1515.93 2347.33 1518 2346.8C1542.76 2340.29 1566.69 2305.51 1577.31 2286.65C1574.2 2297.33 1578.68 2309.64 1588.49 2315.39C1572.28 2339.57 1544.08 2372.44 1510.47 2372.44ZM1581.72 2278.31C1583.04 2275.92 1584.73 2273.8 1586.71 2272.01L1581.72 2278.31Z" fill="#371A45"/>
<path id="path102" d="M1588.49 2315.39C1578.68 2309.64 1574.2 2297.33 1577.31 2286.65C1578.17 2283.69 1579.63 2280.85 1581.71 2278.32L1581.72 2278.31L1586.71 2272.01L1673.33 2162.92L1629.81 2287.92L1624.88 2302.07C1623.19 2306.92 1620.16 2310.92 1616.35 2313.79C1607.57 2299.61 1603.29 2290.16 1603.29 2290.16C1603.29 2290.16 1597.92 2301.31 1588.49 2315.39Z" fill="#371A45"/>
<path id="path104" d="M2009.11 2399.51L1986.23 2391.84L1963.73 2381.76L1975.44 2369.68L2021.83 2321.8L2013.13 2374.88L2009.11 2399.51Z" fill="#371A45"/>
<path id="path106" d="M1643.25 3064.72C1713.64 3014.04 1825.89 2963.11 1910.45 3006.96C1949.48 3030.43 1983.21 3062.29 2012.64 3096.48C2041.49 3130.07 2066.41 3166.44 2086.75 3205C2035.47 3150.47 1980.05 3100.81 1915.03 3064.64C1890.57 3051.29 1865 3040.97 1836.79 3040.44C1778.28 3040.72 1720.45 3070.64 1673.23 3103.83C1646.76 3123.36 1617.39 3085.36 1643.25 3064.72Z" fill="#371A45"/>
<path id="path108" d="M2006.21 3714.43C1996.63 3714.43 1987.57 3708.63 1983.91 3699.15C1979.13 3686.83 1985.25 3672.97 1997.57 3668.2C2003.85 3665.76 2012.77 3660.52 2017.57 3643.2C2042.08 3554.52 1929.57 3319.63 1844.65 3210.57C1756.44 3097.31 1685.45 3108.36 1682.48 3108.88C1669.57 3111.65 1657.05 3103.36 1654.29 3090.44C1651.55 3077.52 1659.99 3064.77 1672.91 3062.03C1677 3061.15 1774.21 3042.28 1882.4 3181.19C1962.89 3284.55 2096.09 3538.69 2063.67 3655.95C2055.99 3683.75 2039.11 3703.4 2014.84 3712.8C2012.01 3713.91 2009.08 3714.43 2006.21 3714.43Z" fill="#371A45"/>
<path id="path110" d="M1853.96 2999.23C1853.48 2999.69 1853.04 3000.21 1852.65 3000.76C1852.53 3000.92 1852.15 3001.56 1852.27 3001.35C1853.08 3000.05 1855.05 2996.61 1855.88 2995.24C1891.63 2934.75 1934.39 2878.71 1982.23 2827.2C2048.23 2754.83 2141.73 2702.8 2239.87 2693.24C2264.36 2691.85 2288.68 2692.77 2312.24 2697.05C2288.32 2698.89 2265.01 2702.35 2242.6 2708.75C2175.96 2727.92 2117.77 2767.39 2068.28 2814.99C2051.79 2830.73 2034.87 2846.01 2018.45 2862.11C1977.76 2902.93 1942.93 2949.67 1911.85 2998.19C1909.05 3002.71 1900.89 3015.83 1898.27 3020.37L1896.01 3024.19L1894.81 3026.23C1876.64 3058.44 1831.13 3028.41 1853.96 2999.23Z" fill="#371A45"/>
<path id="path112" d="M2286.83 3427.23C2276.97 3427.23 2268.29 3420.11 2266.63 3410.08C2226.17 3166.37 2073.89 2968.11 1927.15 2968.11C1915.83 2968.11 1906.65 2958.93 1906.65 2947.61C1906.65 2936.28 1915.83 2927.11 1927.15 2927.11C2095.87 2927.11 2262.75 3136.31 2307.07 3403.36C2308.92 3414.53 2301.37 3425.09 2290.2 3426.95C2289.07 3427.13 2287.93 3427.23 2286.83 3427.23Z" fill="#371A45"/>
<path id="path114" d="M2245.44 2058.92L2382.31 2060.43L2253.77 2107.48C2216 2118.56 2206.12 2061.08 2245.44 2058.92Z" fill="#371A45"/>
<path id="path116" d="M2471.53 2549.32C2345.63 2549.32 2210.57 2493.68 2201.93 2490.07C2189.39 2484.81 2183.48 2470.39 2188.73 2457.84C2193.99 2445.29 2208.4 2439.36 2220.96 2444.61C2302.32 2478.63 2530.57 2546.16 2608.72 2451.64C2617.39 2441.15 2632.93 2439.67 2643.41 2448.35C2653.89 2457.01 2655.37 2472.55 2646.71 2483.03C2605.44 2532.95 2539.81 2549.32 2471.53 2549.32Z" fill="#371A45"/>
<path id="path118" d="M2173.52 2081.36L2167.61 1970.45L2220.92 2067.88C2227.61 2080.12 2223.12 2095.48 2210.88 2102.17C2195.09 2111.32 2174.09 2099.43 2173.52 2081.36Z" fill="#371A45"/>
<path id="path120" d="M1327.53 2179.04C1331.56 2142.29 1338.01 2107.44 1346.49 2071.87C1355.01 2037.13 1365.87 2002.64 1381.21 1970.45C1370.15 2022.32 1369.59 2074.71 1372.28 2127.09C1373.28 2144.32 1374.69 2162.04 1376.81 2178.44C1379.68 2214.99 1325.59 2215.72 1327.53 2179.04Z" fill="#371A45"/>
<path id="path122" d="M1959.79 3670.59C1925.77 3670.59 1891.63 3661.41 1861.45 3642.32C1796.15 3600.99 1740.37 3530.48 1700.2 3452.79C1760.04 3504.43 1804.32 3524.19 1836.99 3524.19C1919.52 3524.19 1928.16 3398.27 1927.96 3342.56C1986.85 3453.08 2034.36 3582.45 2017.57 3643.2C2013.97 3656.19 2008.07 3662.37 2002.68 3665.69C1988.61 3668.93 1974.21 3670.59 1959.79 3670.59Z" fill="#C8C0CB"/>
<path id="path124" d="M1960.19 3695.56C1921.69 3695.56 1882.92 3685.07 1848.27 3663.16C1766 3611.09 1696.51 3514.07 1653.72 3411.69C1661.72 3418.12 1669.79 3425.16 1677.92 3432.75C1685.57 3439.91 1693 3446.57 1700.2 3452.79C1740.37 3530.48 1796.15 3600.99 1861.45 3642.32C1891.63 3661.41 1925.77 3670.59 1959.79 3670.59C1974.21 3670.59 1988.61 3668.93 2002.68 3665.69C2000.88 3666.8 1999.15 3667.59 1997.57 3668.2C1986.83 3672.36 1980.8 3683.44 1982.6 3694.37C1975.16 3695.16 1967.68 3695.56 1960.19 3695.56Z" fill="#371A45"/>
<path id="path126" d="M2067.31 3637.47C2076.11 3567.92 2040.75 3463.41 1994.51 3367.77C2020.37 3383.93 2039.88 3390.81 2054.35 3390.81C2125.16 3390.81 2075.15 3225.87 2058.37 3175.83C2067.99 3185.35 2077.44 3195.09 2086.75 3205C2081.2 3194.47 2075.31 3184.11 2069.08 3173.93L2152.21 3239.16C2152.21 3239.16 2158.27 3223.23 2191.44 3183.73C2224.31 3246.16 2249.81 3318.56 2264.13 3395.87L2110.55 3596.53C2098.13 3612.75 2083.48 3626.43 2067.31 3637.47Z" fill="#C8C0CB"/>
<path id="path128" d="M2057.84 3671.92C2060.15 3666.95 2062.11 3661.61 2063.67 3655.95C2065.28 3650.12 2066.49 3643.93 2067.31 3637.47C2083.48 3626.43 2098.13 3612.75 2110.55 3596.53L2264.13 3395.87C2265 3400.59 2265.84 3405.32 2266.63 3410.08C2267.51 3415.43 2270.4 3419.95 2274.39 3423L2130.13 3611.51C2110.24 3637.49 2085.39 3657.79 2057.84 3671.92Z" fill="#371A45"/>
<path id="path130" d="M2297.08 3352.81C2280.07 3278.75 2253.65 3210.2 2220.68 3150.72C2255.05 3113.59 2306.27 3063.17 2382.28 2996.59C2589.05 2815.49 2467.71 2600.25 2467.71 2600.25C2450.21 2603.71 2432.4 2605.23 2414.61 2605.23C2349.92 2605.23 2285.41 2585.12 2236.55 2565.01C2212.09 2554.96 2191.56 2544.89 2176.87 2537.36V2481.72L2202.63 2490.36C2216.11 2495.95 2348.2 2549.32 2471.53 2549.32C2524.17 2549.32 2575.23 2539.59 2614.76 2512.27C2711.15 2872.19 2636.23 3110.51 2386.32 3240.07C2383.11 3241.73 2380.29 3244.08 2378.09 3246.96L2297.08 3352.81Z" fill="#C8C0CB"/>
<path id="path132" d="M2303.75 3384.64C2301.72 3373.93 2299.49 3363.31 2297.08 3352.81L2378.09 3246.96C2380.29 3244.08 2383.11 3241.73 2386.32 3240.07C2636.23 3110.51 2711.15 2872.19 2614.76 2512.27C2622.13 2507.17 2629.12 2501.45 2635.63 2495.07C2731.76 2844.13 2681.09 3114.97 2397.65 3261.92L2303.75 3384.64Z" fill="#371A45"/>
<path id="path134" d="M2127.59 2523.25C2115.57 2521.89 2100.43 2520.01 2085.12 2518.13C2063.2 2515.43 2040.95 2512.73 2027.11 2511.59V2431.52L2127.59 2465.21V2523.25Z" fill="#C8C0CB"/>
<path id="path136" d="M2176.87 2537.36C2162.21 2529.83 2153.39 2524.81 2152.32 2524.81C2152.24 2524.81 2152.21 2524.83 2152.21 2524.88C2152.21 2525.12 2151.47 2525.23 2150.09 2525.23C2146.41 2525.23 2138.24 2524.44 2127.59 2523.25V2465.21L2176.87 2481.72V2537.36Z" fill="#371A45"/>
<path id="path138" d="M2027.11 2511.59C2022.73 2511.23 2019.2 2511.03 2016.77 2511.03C2014.89 2511.03 2013.69 2511.15 2013.29 2511.41C2013.21 2511.47 2013.13 2511.49 2013.07 2511.49C2009.77 2511.49 2010.56 2459.04 2011.39 2426.25L2027.11 2431.52V2511.59Z" fill="#371A45"/>
<path id="path140" d="M2202.63 2490.36L2176.87 2481.72L2127.59 2465.21L2027.11 2431.52L2011.39 2426.25C2011.75 2411.55 2012.12 2400.8 2012.13 2400.52L2013.79 2401.08L2187.92 2460.04C2184.19 2472.04 2190.12 2485.12 2201.93 2490.07C2202.11 2490.15 2202.35 2490.24 2202.63 2490.36Z" fill="#371A45"/>
<path id="path144" d="M2471.92 2499.92C2397.04 2499.92 2312.6 2477.71 2256.19 2458C2292.61 2414.39 2318.35 2349.56 2325.95 2280.08C2386.99 2279.45 2480.07 2279.09 2480.07 2279.09C2620.49 1985.25 2360.15 1824.33 2360.15 1824.33C2231.93 1880.75 2091.96 1897.8 1969.67 1897.8C1898.12 1897.8 1832.61 1891.96 1779.05 1884.76C1785.91 1884.91 1792.75 1884.99 1799.59 1884.99C1930.89 1884.99 2061.89 1857.16 2185.24 1801.72C2246.81 1774.05 2304.48 1740.41 2357.65 1701.43C2409.97 1724.28 2509.23 1779.35 2569.8 1886.88C2661.03 2048.81 2679.03 2323.07 2607.35 2453.27C2577.63 2487.72 2527.4 2499.92 2471.92 2499.92Z" fill="#C8C0CB"/>
<path id="path146" d="M2607.35 2453.27C2679.03 2323.07 2661.03 2048.81 2569.8 1886.88C2509.23 1779.35 2409.97 1724.28 2357.65 1701.43C2365.09 1695.97 2372.48 1690.4 2379.75 1684.73C2411.32 1700.16 2442.13 1720.07 2472.36 1743.57C2468.95 1753.25 2471.85 1764.45 2480.37 1771.15C2484.88 1774.71 2490.25 1776.43 2495.59 1776.43C2499.89 1776.43 2504.17 1775.31 2507.96 1773.11C2518.64 1782.51 2529.24 1792.33 2539.79 1802.53C2558.39 1823.61 2575.95 1847.6 2591.24 1874.76C2678 2028.71 2706.96 2294.63 2638.84 2445.35C2635.33 2443.57 2631.52 2442.69 2627.72 2442.69C2620.64 2442.69 2613.6 2445.75 2608.72 2451.64C2608.27 2452.19 2607.81 2452.73 2607.35 2453.27Z" fill="#371A45"/>
<path id="path148" d="M2256.19 2458C2247.72 2455.05 2239.88 2452.15 2232.8 2449.39L2234.23 2445.84C2269.43 2405.81 2293.55 2343.88 2301.04 2280.39C2308.33 2280.28 2316.77 2280.17 2325.95 2280.08C2318.35 2349.56 2292.61 2414.39 2256.19 2458Z" fill="#371A45"/>
<path id="path150" d="M2234.23 2445.84L2301.04 2280.39C2293.55 2343.88 2269.43 2405.81 2234.23 2445.84Z" fill="#371A45"/>
<path id="path152" d="M2086.75 3205C2077.44 3195.09 2067.99 3185.35 2058.37 3175.83C2055.57 3167.49 2053.71 3162.35 2053.47 3161.67L2069.08 3173.93C2075.31 3184.11 2081.2 3194.47 2086.75 3205Z" fill="#371A45"/>
<path id="path154" d="M1982.6 3694.37C1980.8 3683.44 1986.83 3672.36 1997.57 3668.2C1999.15 3667.59 2000.88 3666.8 2002.68 3665.69C2008.07 3662.37 2013.97 3656.19 2017.57 3643.2C2034.36 3582.45 1986.85 3453.08 1927.96 3342.56C1927.89 3326.73 1927.12 3316.59 1927.12 3316.59C1953.32 3339.21 1975.61 3355.97 1994.51 3367.77C2040.75 3463.41 2076.11 3567.92 2067.31 3637.47C2066.49 3643.93 2065.28 3650.12 2063.67 3655.95C2062.11 3661.61 2060.15 3666.95 2057.84 3671.92C2034.25 3684.03 2008.71 3691.6 1982.6 3694.37Z" fill="#371A45"/>
<path id="path156" d="M2274.39 3423C2270.4 3419.95 2267.51 3415.43 2266.63 3410.08C2265.84 3405.32 2265 3400.59 2264.13 3395.87C2249.81 3318.56 2224.31 3246.16 2191.44 3183.73C2199.49 3174.15 2209.13 3163.19 2220.68 3150.72C2253.65 3210.2 2280.07 3278.75 2297.08 3352.81C2299.49 3363.31 2301.72 3373.93 2303.75 3384.64L2274.39 3423Z" fill="#371A45"/>
<path id="path158" d="M2471.53 2549.32C2348.2 2549.32 2216.11 2495.95 2202.63 2490.36C2202.35 2490.24 2202.11 2490.15 2201.93 2490.07C2190.12 2485.12 2184.19 2472.04 2187.92 2460.04L2223.61 2472.13L2232.8 2449.39C2239.88 2452.15 2247.72 2455.05 2256.19 2458C2312.6 2477.71 2397.04 2499.92 2471.92 2499.92C2527.4 2499.92 2577.63 2487.72 2607.35 2453.27C2607.81 2452.73 2608.27 2452.19 2608.72 2451.64C2613.6 2445.75 2620.64 2442.69 2627.72 2442.69C2631.52 2442.69 2635.33 2443.57 2638.84 2445.35C2635.39 2452.99 2631.69 2460.33 2627.73 2467.35C2630.47 2476.64 2633.11 2485.89 2635.63 2495.07C2629.12 2501.45 2622.13 2507.17 2614.76 2512.27C2575.23 2539.59 2524.17 2549.32 2471.53 2549.32Z" fill="#371A45"/>
<path id="path160" d="M2866.89 1640.17C2866.89 1640.17 2866.21 1639.91 2864.85 1639.36C2864.93 1639.32 2865.04 1639.29 2865.15 1639.29C2865.87 1639.29 2866.89 1640.17 2866.89 1640.17Z" fill="#BB96D0"/>
<path id="path162" d="M2653.72 1267.32C2474.44 1739.25 1946.52 1976.51 1474.57 1797.21C1002.64 1617.93 765.387 1090.01 944.68 618.08C1123.96 146.133 1651.88 -91.1199 2123.81 88.1735C2595.76 267.453 2833.01 795.373 2653.72 1267.32Z" fill="#F8F8F8"/>
<path id="path164" d="M1799.57 1829.6C1760.09 1829.6 1720.6 1826.93 1681.29 1821.57C1681.6 1821.57 1681.89 1821.57 1682.2 1821.57C1756.17 1821.57 1829.63 1810.92 1900.52 1789.27C2131.6 1718.68 2318.41 1536.59 2427.05 1276.2C2441.05 1285.56 2455.85 1293.13 2471.32 1298.71L2471.44 1302.41C2462.17 1326.4 2409.23 1455.73 2300.11 1579.45C2164.96 1732.69 2002.21 1816.51 1815.04 1829.47C1809.88 1829.55 1804.73 1829.6 1799.57 1829.6ZM2201.79 1732.45C2255.13 1693.05 2299.63 1649.88 2335.79 1608.75C2461.44 1465.79 2514.19 1320.09 2516.37 1313.96C2516.95 1312.35 2517.35 1310.68 2517.55 1308.99C2522.95 1309.48 2528.39 1309.72 2533.87 1309.72C2534.67 1309.72 2535.45 1309.72 2536.25 1309.71C2541.69 1309.64 2547.05 1309.32 2552.33 1308.79C2574.8 1306.49 2595.71 1300.01 2614.79 1289.96C2575.35 1382.85 2521.24 1467.03 2454.91 1539.89L2448.35 1539.11L2405.43 1590.04C2345.23 1646.32 2276.88 1694.28 2201.79 1732.45ZM2671.69 787.226C2638.44 746.333 2594.87 720.306 2543.8 716.546C2531.6 563.52 2480.87 416.346 2397.85 288.919C2541.72 420.986 2637.48 597.066 2671.69 787.226Z" fill="#C8C0CB"/>
<path id="path166" d="M950.48 1293.12C1001.63 1410.84 1087.35 1537.33 1228.56 1657.07C1633.09 1926.52 2178 1822.33 2408.44 1262.24L2372.04 798.027C2352.65 726.467 2313.03 658.6 2258.67 597.107C1925.39 220.334 1039.49 83 894.267 812.827C894.267 812.827 836.56 1030.93 950.48 1293.12Z" fill="#371A45"/>
<path id="path168" d="M1682.21 1776.48C1549.63 1776.48 1415.05 1740.11 1291.64 1669.56C1168.59 1583.6 1071.57 1468.91 1006.55 1338.59C1168.92 1467.69 1337.92 1522.71 1497.56 1522.71C1649.49 1522.71 1792.97 1472.88 1914.13 1389.72C1906.83 1403.05 1898.89 1416.4 1890.27 1429.71C1863.81 1470.57 1876.67 1525.27 1918.43 1550.27C1932.27 1558.56 1947.56 1562.55 1962.69 1562.55C1989.55 1562.55 2015.87 1550.01 2032.6 1526.79C2073.04 1470.69 2127.73 1378.87 2156.84 1261.73C2165 1228.85 2152.79 1195.85 2128.52 1175.48C2234.89 1021.59 2290.05 832.333 2265.75 641.467C2305.91 692.973 2334.6 747.266 2349.71 801.946L2351.64 826.613C2319.44 878.32 2300.56 944.293 2301.51 1015.93C2302.25 1073.2 2315.57 1126.52 2338.03 1171.57C2350.67 1196.95 2366.2 1219.71 2384.01 1239.07L2385.55 1258.61C2282.17 1506.51 2105.41 1679.53 1887.36 1746.15C1820.77 1766.47 1751.77 1776.48 1682.21 1776.48Z" fill="#1C1A31"/>
<path id="path170" d="M1761.71 1877.32C1744.07 1877.32 1726.09 1876.73 1707.72 1875.53C1695 1874.71 1685.37 1863.73 1686.2 1851.01C1687.04 1838.31 1697.95 1828.57 1710.72 1829.51C1942.19 1844.64 2140.44 1760.49 2300.11 1579.45C2409.23 1455.73 2462.17 1326.4 2471.44 1302.41L2452 730.146C2362.39 527.013 2181.13 363.586 1941.13 269.626C1695.44 173.44 1429.03 168.76 1228.48 257.08C1216.83 262.213 1203.21 256.933 1198.08 245.266C1192.95 233.613 1198.23 220 1209.89 214.867C1421.43 121.693 1701.08 126.107 1957.95 226.667C2211.04 325.747 2402.13 499.453 2496.05 715.76C2497.21 718.413 2497.85 721.266 2497.95 724.16L2517.69 1305.44C2517.8 1308.35 2517.35 1311.24 2516.37 1313.96C2514.19 1320.09 2461.44 1465.79 2335.79 1608.75C2226.04 1733.61 2039.33 1877.29 1761.71 1877.32Z" fill="#371A45"/>
<path id="path172" d="M1682.2 1821.57C1522.43 1821.57 1360.25 1771.87 1216.04 1675.8C1205.68 1668.89 1202.88 1654.91 1209.79 1644.55C1216.68 1634.17 1230.68 1631.39 1241.04 1638.28C1440.72 1771.29 1676.29 1810.6 1887.36 1746.15C2105.41 1679.53 2282.17 1506.51 2385.55 1258.61L2349.71 801.946C2313.68 671.547 2200.4 543.347 2038.57 449.92C1877.05 356.667 1683.53 306.613 1507.67 312.507C1323.11 318.733 1000.87 392.573 916.333 817.24C913.907 829.453 902.027 837.4 889.827 834.946C877.613 832.52 869.68 820.653 872.107 808.44C938.293 475.987 1169.39 278.8 1506.15 267.44C1900.03 254.227 2314.67 499.387 2393.77 792.187C2394.13 793.533 2394.37 794.906 2394.48 796.293L2430.92 1260.48C2431.19 1264 2430.63 1267.55 2429.29 1270.81C2320.97 1534.08 2133.19 1718.2 1900.52 1789.27C1829.63 1810.92 1756.17 1821.57 1682.2 1821.57Z" fill="#371A45"/>
<path id="path174" d="M1798.84 55.7861C1675.24 55.7861 1551.96 81.9729 1435.84 134.16C1219.88 231.213 1054.63 406.56 970.547 627.906C796.973 1084.83 1027.49 1597.77 1484.41 1771.35C1705.76 1855.43 1946.59 1848.28 2162.55 1751.23C2378.52 1654.17 2543.76 1478.83 2627.85 1257.49C2801.43 800.573 2570.91 287.613 2113.99 114.04C2011.65 75.1598 1905.12 55.7861 1798.84 55.7861ZM1799.59 1884.99C1686.65 1884.99 1573.49 1864.4 1464.75 1823.09C979.293 1638.67 734.387 1093.69 918.8 608.24C1008.13 373.08 1183.71 186.786 1413.16 83.6664C1642.61 -19.4536 1898.49 -27.0404 2133.65 62.293C2619.11 246.72 2864.01 791.693 2679.6 1277.15C2590.27 1512.31 2414.69 1698.6 2185.24 1801.72C2061.89 1857.16 1930.89 1884.99 1799.59 1884.99Z" fill="#371A45"/>
<path id="path176" d="M2743.05 1012.05C2745.21 1175.97 2663.8 1308.03 2536.28 1309.71C2408.77 1311.37 2303.67 1179.85 2301.51 1015.93C2299.35 852.013 2400.97 717.76 2528.48 716.093C2655.99 714.413 2740.91 848.133 2743.05 1012.05Z" fill="#F8F8F8"/>
<path id="path178" d="M2533.87 1309.72C2528.39 1309.72 2522.95 1309.48 2517.55 1308.99C2522.95 1309.47 2528.39 1309.72 2533.88 1309.72C2534.68 1309.72 2535.48 1309.71 2536.28 1309.71C2541.72 1309.63 2547.07 1309.32 2552.33 1308.79C2547.05 1309.32 2541.69 1309.64 2536.25 1309.71C2535.45 1309.72 2534.67 1309.72 2533.87 1309.72ZM2471.32 1298.71C2455.85 1293.13 2441.05 1285.56 2427.05 1276.2C2441.05 1285.56 2455.87 1293.13 2471.32 1298.69V1298.71Z" fill="#A496A9"/>
<path id="path180" d="M2517.55 1308.99C2501.67 1307.56 2486.19 1304.07 2471.32 1298.71V1298.69C2486.19 1304.05 2501.65 1307.56 2517.55 1308.99Z" fill="#371A45"/>
<path id="path182" d="M2384.01 1239.07C2366.2 1219.71 2350.67 1196.95 2338.03 1171.57C2350.67 1196.95 2366.2 1219.69 2384.01 1239.07Z" fill="#231A36"/>
<path id="path186" d="M2743.05 1012.05C2742.87 997.827 2742.05 983.827 2740.65 970.133C2740.65 970.067 2740.65 970.093 2740.65 970.04C2742.08 983.773 2742.88 997.827 2743.05 1012.05Z" fill="#BB96D0"/>
<path id="path188" d="M2740.65 970.133C2740.56 969.2 2740.45 968.253 2740.36 967.32V967.307C2740.47 968.213 2740.56 969.12 2740.65 970.04C2740.65 970.093 2740.65 970.067 2740.65 970.133Z" fill="#371A45"/>
<path id="path190" d="M2533.88 1309.72C2528.39 1309.72 2522.95 1309.47 2517.55 1308.99C2501.65 1307.56 2486.19 1304.05 2471.32 1298.69C2455.87 1293.13 2441.05 1285.56 2427.05 1276.2C2411.63 1265.88 2397.19 1253.4 2384.01 1239.07C2366.2 1219.69 2350.67 1196.95 2338.03 1171.57C2315.59 1126.52 2302.28 1073.23 2301.53 1015.96C2300.85 964.013 2310.56 914.96 2328.31 872.267C2349.29 1009.73 2443.91 1113.24 2556.29 1113.24C2557.08 1113.24 2557.85 1113.24 2558.64 1113.23C2643 1112.08 2707.19 1053.99 2740.36 967.32C2740.45 968.253 2740.56 969.2 2740.65 970.133C2742.05 983.827 2742.87 997.827 2743.05 1012.05C2745.09 1168.97 2670.63 1296.68 2552.33 1308.79C2547.07 1309.32 2541.72 1309.63 2536.28 1309.71C2535.48 1309.71 2534.68 1309.72 2533.88 1309.72Z" fill="#C8C0CB"/>
<path id="path192" d="M2530.87 743.747C2530.2 743.747 2529.53 743.76 2528.85 743.76C2416.8 745.24 2327.23 867.16 2329.19 1015.56C2330.15 1088.72 2352.99 1156.93 2393.51 1207.64C2432.4 1256.31 2482.97 1282.73 2535.92 1282.03C2641.95 1280.63 2717.41 1167.25 2715.37 1012.43C2714.39 936.666 2694.75 867.547 2660.07 817.8C2636.45 783.907 2594.93 743.747 2530.87 743.747ZM2533.84 1337.4C2464.48 1337.4 2399.4 1303.67 2350.27 1242.2C2302.09 1181.92 2274.96 1101.69 2273.83 1016.29C2271.48 837.373 2385.55 690.293 2528.12 688.413C2597.65 687.68 2660.92 722.2 2705.48 786.147C2746.41 844.88 2769.59 924.986 2770.73 1011.69C2773.19 1198.59 2674.75 1335.56 2536.65 1337.37C2535.71 1337.39 2534.77 1337.4 2533.84 1337.4Z" fill="#371A45"/>
<path id="path194" d="M2613.37 1290.37C2501.79 1290.37 2409.68 1165.76 2407.61 1011.31C2406.67 937.493 2426.07 867.56 2462.23 814.373C2500.12 758.64 2551.87 727.56 2607.95 726.84C2619.27 726.693 2630.69 727.907 2641.85 730.387C2642.83 730.6 2643.79 730.88 2644.72 731.213C2656.69 735.573 2662.91 748.813 2658.56 760.787C2654.47 772.027 2642.57 778.16 2631.25 775.28C2623.75 773.653 2616.03 772.893 2608.51 772.973C2567.96 773.48 2529.55 797.4 2500.37 840.307C2469.48 885.747 2452.91 946.266 2453.73 1010.69C2455.47 1139.92 2526.92 1244.24 2613.31 1244.24C2613.8 1244.24 2614.27 1244.24 2614.76 1244.24C2626.57 1244.08 2637.96 1241.99 2648.57 1238.01C2660.53 1233.56 2673.8 1239.63 2678.25 1251.56C2682.71 1263.49 2676.64 1276.77 2664.71 1281.23C2649.11 1287.05 2632.51 1290.12 2615.37 1290.36C2614.72 1290.37 2614.03 1290.37 2613.37 1290.37Z" fill="#371A45"/>
<path id="path196" d="M1088.52 1187.4C1079.36 1187.4 1070.21 1182.19 1067.04 1171.2C954.133 779.947 1009.61 441.68 1554.52 413.626C1554.97 413.6 1555.41 413.587 1555.85 413.587C1578.24 413.587 1587.17 443.253 1567.71 455.387C1296.63 624.347 1139.15 858.493 1111.17 1166.93C1109.97 1180.27 1099.24 1187.4 1088.52 1187.4Z" fill="#9B8DA2"/>
<path id="path198" d="M2083.05 1027.65C2041.76 1027.65 2005.81 998.053 1998.31 956.76C1997.39 951.76 1996.45 946.92 1995.51 942.24C1986.01 895.72 2015.55 850.213 2062.05 840.666L2065.71 839.92C2071.53 838.733 2077.35 838.146 2083.09 838.146C2120.25 838.146 2154.17 862.306 2165.51 899.093C2167.43 905.333 2169.24 911.56 2170.97 917.746C2185.52 969.946 2149.04 1022.51 2095.04 1026.96L2090.2 1027.36C2087.8 1027.56 2085.41 1027.65 2083.05 1027.65Z" fill="#9B8DA2"/>
<path id="path200" d="M1914.13 1389.72C1945.27 1332.88 1964.85 1276.07 1976.43 1221.88C1985.16 1181 2020.83 1152.69 2060.91 1152.69C2066.87 1152.69 2072.92 1153.32 2079 1154.63C2083.03 1155.49 2087.07 1156.36 2091.09 1157.21C2105.37 1160.28 2118.07 1166.71 2128.52 1175.48C2070.69 1259.13 1997.71 1332.36 1914.13 1389.72Z" fill="#9B8DA2"/>
<path id="path202" d="M1962.69 1562.55C1947.56 1562.55 1932.27 1558.56 1918.43 1550.27C1876.67 1525.27 1863.81 1470.57 1890.27 1429.71C1898.89 1416.4 1906.83 1403.05 1914.13 1389.72C1997.71 1332.36 2070.69 1259.13 2128.52 1175.48C2152.79 1195.85 2165 1228.85 2156.84 1261.73C2127.73 1378.87 2073.04 1470.69 2032.6 1526.79C2015.87 1550.01 1989.55 1562.55 1962.69 1562.55Z" fill="#8E8D98"/>
<path id="path204" d="M1654.85 3056.63C1629.16 3045.68 1561.08 3010.51 1499.21 2925.12C1530.43 2930.95 1580.16 2937.88 1639.76 2937.88C1731.57 2937.88 1846.8 2921.41 1953.85 2858.99C1918.36 2900.41 1886.16 2944.55 1858.17 2991.4C1851.55 2990.65 1844.85 2990.29 1838.11 2990.29C1773.95 2990.29 1705.59 3022.35 1654.85 3056.63Z" fill="#C8C0CB"/>
<path id="path206" d="M1638.17 3069.84C1566.27 3038.55 1506.49 2990.04 1463.79 2917.31C1463.79 2917.31 1476.68 2920.92 1499.21 2925.12C1561.08 3010.51 1629.16 3045.68 1654.85 3056.63C1650.88 3059.32 1647.01 3062.01 1643.25 3064.72C1641.24 3066.33 1639.55 3068.05 1638.17 3069.84Z" fill="#371A45"/>
<path id="path208" d="M1655.4 3076.92C1649.59 3074.67 1643.84 3072.31 1638.17 3069.84C1639.55 3068.05 1641.24 3066.33 1643.25 3064.72C1647.01 3062.01 1650.88 3059.32 1654.85 3056.63C1705.59 3022.35 1773.95 2990.29 1838.11 2990.29C1844.85 2990.29 1851.55 2990.65 1858.17 2991.4C1857.41 2992.68 1856.64 2993.96 1855.88 2995.24C1855.09 2996.55 1853.28 2999.71 1852.41 3001.13C1852.32 3001.27 1852.24 3001.39 1852.25 3001.39C1852.25 3001.39 1852.25 3001.37 1852.27 3001.35C1852.32 3001.28 1852.36 3001.21 1852.41 3001.13C1852.49 3000.99 1852.6 3000.83 1852.65 3000.76C1853.04 3000.21 1853.48 2999.69 1853.96 2999.23C1849.52 3004.89 1847.67 3010.59 1847.69 3015.87C1782.63 3020.15 1727.65 3033.63 1687.64 3060.71C1678.97 3060.81 1673.79 3061.84 1672.91 3062.03C1664.67 3063.77 1658.25 3069.59 1655.4 3076.92Z" fill="#371A45"/>
<path id="path210" d="M1663.93 3080.13C1661.08 3079.09 1658.23 3078.01 1655.4 3076.92C1658.25 3069.59 1664.67 3063.77 1672.91 3062.03C1673.79 3061.84 1678.97 3060.81 1687.64 3060.71C1679.03 3066.55 1671.12 3073 1663.93 3080.13Z" fill="#371A45"/>
<path id="path212" d="M1847.69 3015.87C1847.67 3010.59 1849.52 3004.89 1853.96 2999.23C1853.48 2999.69 1853.04 3000.21 1852.65 3000.76C1852.6 3000.83 1852.49 3000.99 1852.41 3001.13C1853.28 2999.71 1855.09 2996.55 1855.88 2995.24C1856.64 2993.96 1857.41 2992.68 1858.17 2991.4C1886.16 2944.55 1918.36 2900.41 1953.85 2858.99C1970.29 2849.41 1986.53 2838.75 2002.47 2826.89L1935.19 2927.27C1932.51 2927.16 1929.83 2927.11 1927.15 2927.11C1915.83 2927.11 1906.65 2936.28 1906.65 2947.61C1906.65 2953.01 1908.75 2957.93 1912.17 2961.6L1893.31 2989.75L1854.41 3015.45C1852.16 3015.57 1849.92 3015.72 1847.69 3015.87ZM1852.25 3001.39C1852.24 3001.39 1852.32 3001.27 1852.41 3001.13C1852.36 3001.21 1852.32 3001.28 1852.27 3001.35C1852.25 3001.37 1852.25 3001.39 1852.25 3001.39Z" fill="#371A45"/>
<path id="path214" d="M1912.17 2961.6C1908.75 2957.93 1906.65 2953.01 1906.65 2947.61C1906.65 2936.28 1915.83 2927.11 1927.15 2927.11C1929.83 2927.11 1932.51 2927.16 1935.19 2927.27L1912.17 2961.6Z" fill="#371A45"/>
<path id="path216" d="M1286.88 2432.93L1221.13 2264.85C1265.65 2135.08 1332.83 2057.41 1357.52 2031.89C1353.41 2045.11 1349.77 2058.47 1346.49 2071.87C1338.15 2106.87 1331.76 2141.17 1327.73 2177.27C1304.28 2197.27 1289.37 2227.03 1289.37 2260.21V2432.85L1286.88 2432.93Z" fill="#C8C0CB"/>
<path id="path218" d="M1289.37 2432.85V2260.21C1289.37 2227.03 1304.28 2197.27 1327.73 2177.27C1327.67 2177.85 1327.6 2178.44 1327.53 2179.04C1327.03 2188.68 1330.39 2195.73 1335.56 2200.24C1324.29 2222.65 1312.27 2236.83 1314.01 2238.95C1316.87 2242.36 1305.48 2431.09 1305.48 2431.09L1303.61 2432.36L1289.37 2432.85Z" fill="#371A45"/>
<path id="path220" d="M1290.2 2441.41L1286.88 2432.93L1289.37 2432.85L1303.61 2432.36L1290.2 2441.41Z" fill="#371A45"/>
<path id="path222" d="M1280.99 2447.64L1211.09 2296.41C1214.28 2285.57 1217.63 2275.05 1221.13 2264.85L1286.88 2432.93L1290.2 2441.41L1280.99 2447.64Z" fill="#371A45"/>
<path id="path224" d="M1335.56 2200.24C1330.39 2195.73 1327.03 2188.68 1327.53 2179.04C1327.6 2178.44 1327.67 2177.85 1327.73 2177.27C1331.76 2141.17 1338.15 2106.87 1346.49 2071.87C1349.77 2058.47 1353.41 2045.11 1357.52 2031.89C1363.56 2025.65 1367.05 2022.53 1367.05 2022.53L1359.31 2068.67C1359.31 2068.67 1359.85 2099.72 1352.16 2150.11C1349.21 2169.36 1342.53 2186.37 1335.56 2200.24Z" fill="#371A45"/>
<path id="path226" d="M830.787 3069.53L872.133 3164L791.68 3099.51C780.747 3090.75 778.987 3074.77 787.747 3063.84C799.053 3048.97 823.76 3052.43 830.787 3069.53Z" fill="#371A45"/>
<path id="path228" d="M2495.59 1776.43C2490.25 1776.43 2484.88 1774.71 2480.37 1771.15C2469.68 1762.73 2467.83 1747.25 2476.24 1736.56C2593.12 1588.03 2773.04 1613.79 2780.65 1614.95C2794.09 1617.01 2803.32 1629.59 2801.25 1643.04C2799.19 1656.47 2786.63 1665.68 2773.21 1663.65C2766.67 1662.68 2613.69 1641.55 2514.96 1767.03C2510.11 1773.2 2502.88 1776.43 2495.59 1776.43Z" fill="#371A45"/>
<path id="path230" d="M2561.65 1824.32C2554.4 1816.88 2547.11 1809.61 2539.79 1802.53C2530.07 1791.52 2520.08 1781.31 2509.95 1771.83C2511.63 1770.63 2513.16 1769.2 2514.53 1767.55C2527.51 1785.19 2543.07 1804.08 2561.65 1824.32Z" fill="#371A45"/>
<path id="path232" d="M2539.79 1802.53C2529.24 1792.33 2518.64 1782.51 2507.96 1773.11C2508.64 1772.72 2509.31 1772.28 2509.95 1771.83C2520.08 1781.31 2530.07 1791.52 2539.79 1802.53Z" fill="#371A45"/>
<path id="path234" d="M2481.96 1716.29C2453.09 1694.93 2425.11 1678.89 2401.53 1667.23C2420.96 1651.12 2439.67 1634.29 2457.68 1616.71C2454.65 1641.75 2459.87 1674.43 2481.96 1716.29Z" fill="#C8C0CB"/>
<path id="path236" d="M2473.47 1740.96C2439.28 1714.85 2406.04 1696.56 2380.13 1684.43C2387.36 1678.8 2394.48 1673.05 2401.53 1667.23C2425.11 1678.89 2453.09 1694.93 2481.96 1716.29C2483.36 1718.95 2484.81 1721.6 2486.33 1724.32C2482.92 1728.27 2479.56 1732.33 2476.24 1736.56C2475.13 1737.95 2474.21 1739.43 2473.47 1740.96Z" fill="#371A45"/>
<path id="path238" d="M2472.36 1743.57C2442.13 1720.07 2411.32 1700.16 2379.75 1684.73C2379.87 1684.63 2380 1684.53 2380.13 1684.43C2406.04 1696.56 2439.28 1714.85 2473.47 1740.96C2473.04 1741.83 2472.68 1742.69 2472.36 1743.57Z" fill="#371A45"/>
<path id="path240" d="M2405.43 1590.04L2448.35 1539.11L2454.91 1539.89C2439.11 1557.25 2422.6 1573.99 2405.43 1590.04Z" fill="#A496A9"/>
<path id="path242" d="M2379.75 1684.73C2366.59 1678.31 2353.29 1672.65 2339.87 1667.84L2405.43 1590.04C2422.6 1573.99 2439.11 1557.25 2454.91 1539.89L2505.33 1545.89C2505.33 1545.89 2463.93 1564.96 2457.68 1616.71C2439.67 1634.29 2420.96 1651.12 2401.53 1667.23C2394.48 1673.05 2387.36 1678.8 2380.13 1684.43C2380 1684.53 2379.87 1684.63 2379.75 1684.73Z" fill="#371A45"/>
<path id="path244" d="M2507.96 1773.11C2496.19 1762.73 2484.32 1752.87 2472.36 1743.57C2472.68 1742.69 2473.04 1741.83 2473.47 1740.96C2474.21 1739.43 2475.13 1737.95 2476.24 1736.56C2479.56 1732.33 2482.92 1728.27 2486.33 1724.32C2493.93 1737.8 2503.25 1752.2 2514.53 1767.55C2513.16 1769.2 2511.63 1770.63 2509.95 1771.83C2509.31 1772.28 2508.64 1772.72 2507.96 1773.11Z" fill="#371A45"/>
<path id="path246" d="M741.827 1976.16C744.933 1982.95 747.573 1989.81 749.747 1996.76C721.08 2020.15 664.373 2052.97 596.587 2083.99C528.827 2114.99 466.907 2136.43 430.453 2142.83C426.627 2136.64 423.147 2130.15 420.053 2123.36C419.907 2123.04 419.76 2122.73 419.613 2122.41C418.267 2119.41 417.013 2116.4 415.84 2113.37C413.093 2106.28 410.84 2099.12 409.067 2091.91C409 2091.61 408.92 2091.32 408.853 2091.03C406.267 2080.31 404.733 2069.49 404.187 2058.72C403.16 2038.23 405.733 2017.88 411.573 1998.56C425.773 1951.67 459.267 1910.85 507.333 1888.87C555 1867.07 607.32 1868.2 651.84 1887.67C670.12 1895.65 687.093 1906.73 701.893 1920.57C709.8 1927.97 717.093 1936.17 723.64 1945.11C724.173 1945.83 724.693 1946.55 725.2 1947.28C729.493 1953.35 733.453 1959.73 737.027 1966.44C738.347 1968.93 739.613 1971.47 740.84 1974.04C741.173 1974.75 741.507 1975.44 741.827 1976.16Z" fill="white"/>
<path id="path248" d="M757.227 2065.04C756.6 2072.27 755.52 2079.41 754.013 2086.47C751.92 2096.37 748.96 2106.08 745.2 2115.47C728.92 2156.19 697.56 2190.96 654.533 2210.64C611.413 2230.37 564.493 2231.32 522.973 2216.92C513.853 2213.76 504.987 2209.85 496.493 2205.24C489.827 2201.64 483.4 2197.59 477.227 2193.13C520.573 2182.04 570.653 2164.21 622.453 2140.52C674.253 2116.83 720.48 2090.59 757.227 2065.04Z" fill="white"/>
<path id="path250" d="M749.747 1996.75C721.08 2020.15 664.373 2052.99 596.6 2083.99C528.827 2114.99 466.893 2136.43 430.44 2142.83C426.627 2136.64 423.147 2130.15 420.04 2123.36C419.893 2123.04 419.76 2122.73 419.613 2122.41C418.267 2119.41 417 2116.4 415.84 2113.37C413.093 2106.29 410.853 2099.12 409.067 2091.91C408.987 2091.61 408.92 2091.32 408.853 2091.03C406.28 2080.31 404.733 2069.49 404.187 2058.72C403.16 2038.23 405.733 2017.88 411.573 1998.56C423.067 1960.63 447.16 1926.69 481.387 1903.47C472.48 1917.33 465.56 1932.36 460.813 1948.05C454.96 1967.37 452.387 1987.72 453.413 2008.21C453.96 2018.99 455.493 2029.8 458.08 2040.52C458.147 2040.81 458.227 2041.11 458.293 2041.4C458.387 2041.79 458.52 2042.27 458.693 2042.83C467.707 2073.23 500.44 2085.95 532.027 2083.08C592.213 2077.63 722.56 2007.17 750.293 1990.92C752.213 1995.59 748.253 1992.01 749.747 1996.75Z" fill="white"/>
<path id="path252" d="M622.453 2140.52C674.253 2116.83 720.48 2090.59 757.227 2065.04C756.6 2072.27 755.52 2079.41 754.013 2086.47C725.747 2107.19 680.547 2132.83 627.88 2156.92C577.44 2180 530.4 2196.96 496.493 2205.24C489.827 2201.64 483.4 2197.59 477.227 2193.13C520.573 2182.04 570.653 2164.21 622.453 2140.52Z" fill="white"/>
<path id="path254" d="M740.84 1974.04C741.173 1974.75 741.507 1975.44 741.827 1976.16C744.933 1982.95 747.573 1989.81 749.747 1996.76C721.08 2020.15 664.373 2052.97 596.587 2083.99C528.827 2114.99 466.907 2136.43 430.453 2142.83C426.627 2136.64 423.147 2130.15 420.053 2123.36C419.907 2123.04 419.76 2122.73 419.613 2122.41C454.2 2118.44 517.227 2097.68 586.32 2066.08C658.133 2033.23 716.813 1997.64 740.84 1974.04Z" fill="white"/>
<path id="path256" d="M403.907 2064.68L404.467 2052.76C428.587 2053.91 491.573 2033.6 557.64 2003.37C636.453 1967.32 687.307 1932.85 696.813 1917.44L706.96 1923.71C694.387 1944.09 636.373 1980.47 562.6 2014.23C493.907 2045.65 430.133 2065.92 403.907 2064.68Z" fill="white"/>
<path id="path258" d="M412.48 2004.45L410.68 1992.67C437.773 1988.52 484.733 1972.17 533.213 1949.99C584.013 1926.75 627.947 1901.17 647.853 1883.24L655.84 1892.09C635.093 1910.79 590 1937.13 538.173 1960.84C488.76 1983.44 440.6 2000.16 412.48 2004.45Z" fill="white"/>
<path id="path260" d="M408.853 2096.99V2085.07C436.533 2085.08 501.613 2063.81 570.8 2032.16C643.387 1998.96 704.24 1961.72 718.8 1941.61L728.467 1948.6C712.573 1970.56 651.213 2008.49 575.773 2043.01C504.053 2075.81 438.533 2097 408.853 2096.99Z" fill="white"/>
<path id="path262" d="M523.2 2219.89L522.973 2216.93L521.573 2214.29L522.12 2214L522.747 2213.95C546.667 2212.12 592.227 2197.17 638.8 2175.87C685.653 2154.44 725.613 2130.48 743.12 2113.33L747.293 2117.6C729.333 2135.19 688.707 2159.59 641.293 2181.28C593.387 2203.2 548.147 2217.99 523.2 2219.89Z" fill="white"/>
<path id="path264" d="M757.227 2065.04C751.853 2126.4 714.547 2183.19 654.533 2210.64C594.52 2238.09 527.16 2229.19 477.227 2193.13C520.573 2182.04 570.653 2164.21 622.453 2140.52C674.253 2116.83 720.48 2090.59 757.227 2065.04Z" fill="white"/>
<path id="path266" d="M843.533 1957.19C854.32 1980.76 819.28 2021.91 757.227 2065.04C720.48 2090.59 674.253 2116.83 622.453 2140.52C570.653 2164.21 520.573 2182.04 477.227 2193.13C404.013 2211.89 349.975 2211.48 339.192 2187.92C329.4 2166.51 357.385 2130.63 409.067 2091.91C410.84 2099.12 413.093 2106.28 415.84 2113.37C401.56 2125.16 394.533 2134.49 397.013 2139.89C399.533 2145.41 411.587 2146.13 430.453 2142.83C466.907 2136.43 528.827 2114.99 596.587 2083.99C664.373 2052.97 721.08 2020.15 749.747 1996.76C764.587 1984.64 771.907 1975.05 769.387 1969.55C766.92 1964.15 755.267 1963.35 737.027 1966.44C733.453 1959.73 729.493 1953.35 725.2 1947.28C788.293 1933.49 833.747 1935.79 843.533 1957.19Z" fill="white"/>
<path id="path268" d="M414.747 2110.51C415.107 2111.47 415.467 2112.43 415.84 2113.39C401.56 2125.16 394.533 2134.48 397.013 2139.89C399.533 2145.41 411.6 2146.13 430.453 2142.83C454.627 2138.59 490.027 2127.72 530.907 2111.83C530.253 2115.4 530.253 2118.77 530.92 2121.87C515.133 2127.8 499.84 2133.03 485.333 2137.49C422.253 2156.88 389.36 2156.61 385.491 2148.15C383.225 2143.21 389.773 2130.75 414.747 2110.51Z" fill="white"/>
<path id="path270" d="M410.053 2101.92L411.56 2103.8C398.707 2113.77 388.787 2122.68 381.337 2130.52C386.896 2122.29 396.453 2112.8 410.053 2101.92Z" fill="white"/>
<path id="path272" d="M413.067 2105.68L411.56 2103.8C411.773 2103.61 412.027 2103.44 412.28 2103.25L413.067 2105.68Z" fill="white"/>
<path id="path274" d="M381.337 2130.52C375.507 2139.08 374.015 2146.24 376.719 2152.17C379.363 2157.93 385.575 2161.16 394.173 2162.52C416.6 2166.08 455.2 2156.85 488.16 2146.72C503.08 2142.15 518.813 2136.73 535.04 2130.64C538.16 2134.57 542.8 2137.65 548.8 2139.93C524.813 2149.09 501.547 2156.84 479.747 2162.93C402.04 2184.67 368.276 2178.83 362.964 2167.24C360.017 2160.8 364.271 2148.45 381.337 2130.52Z" fill="white"/>
<path id="path276" d="M619.267 2141.97C568.6 2164.96 519.68 2182.27 477.213 2193.13C404.013 2211.89 349.965 2211.48 339.181 2187.91C329.396 2166.52 357.392 2130.63 409.067 2091.91C409.6 2094.05 410.173 2096.19 410.787 2098.32L407.84 2094.47C377.847 2117.43 344.176 2149.39 354.193 2171.24C358.063 2179.69 367.228 2184.27 379.348 2186.19C407.88 2190.68 452.667 2180.53 482.347 2172.24C508.4 2164.96 536.507 2155.33 565.373 2143.85C579.733 2145.68 598.027 2145 619.267 2141.97Z" fill="white"/>
<path id="path278" d="M535.04 2130.64C518.813 2136.73 503.08 2142.15 488.16 2146.72C455.2 2156.85 416.6 2166.08 394.173 2162.52C385.575 2161.16 379.363 2157.93 376.719 2152.17C374.015 2146.24 375.507 2139.08 381.337 2130.52C388.787 2122.68 398.707 2113.77 411.56 2103.8L413.067 2105.68C413.613 2107.29 414.173 2108.89 414.747 2110.51C389.773 2130.75 383.225 2143.21 385.491 2148.15C389.36 2156.61 422.253 2156.88 485.333 2137.49C499.84 2133.03 515.133 2127.8 530.92 2121.87C531.227 2123.41 531.72 2124.89 532.36 2126.31C533.067 2127.84 533.96 2129.29 535.04 2130.64Z" fill="white"/>
<path id="path280" d="M411.56 2103.8C398.707 2113.77 388.787 2122.68 381.337 2130.52C386.896 2122.29 396.453 2112.8 410.053 2101.92L411.56 2103.8Z" fill="white"/>
<path id="path282" d="M413.067 2105.68L416.08 2109.44C415.627 2109.79 415.187 2110.15 414.747 2110.51C414.173 2108.89 413.613 2107.29 413.067 2105.68Z" fill="white"/>
<path id="path284" d="M714.973 2042.97C683.347 2062.77 645.2 2083.07 604.653 2101.61C581.08 2112.4 557.587 2122.2 535.04 2130.64C533.96 2129.29 533.067 2127.84 532.36 2126.31C531.72 2124.89 531.227 2123.41 530.92 2121.87C553.467 2113.45 577.013 2103.65 600.64 2092.84C640.813 2074.47 678.573 2054.39 709.827 2034.79C765.747 1999.73 787.04 1974.67 783.187 1966.23C780.867 1961.17 766.72 1957.97 733.893 1964.07L732.573 1956.93L732.133 1954.57C749.333 1951.37 762.8 1950.35 772.68 1951.52C782.88 1952.75 789.253 1956.31 791.96 1962.2C801.507 1983.07 755.347 2017.64 714.973 2042.97Z" fill="white"/>
<path id="path286" d="M565.373 2143.85C536.507 2155.33 508.4 2164.96 482.347 2172.24C452.667 2180.53 407.88 2190.68 379.348 2186.19C367.228 2184.27 358.063 2179.69 354.193 2171.24C344.176 2149.39 377.847 2117.43 407.84 2094.47L410.787 2098.32C411.267 2099.97 411.747 2101.63 412.28 2103.25C412.027 2103.44 411.773 2103.61 411.56 2103.8L410.053 2101.92C396.453 2112.8 386.896 2122.29 381.337 2130.52C364.271 2148.45 360.017 2160.8 362.964 2167.24C368.276 2178.83 402.04 2184.67 479.747 2162.93C501.547 2156.84 524.813 2149.09 548.8 2139.93C553.507 2141.73 559.053 2143.04 565.373 2143.85Z" fill="white"/>
<path id="path288" d="M410.053 2101.92L411.56 2103.8C398.707 2113.77 388.787 2122.68 381.337 2130.52C386.896 2122.29 396.453 2112.8 410.053 2101.92Z" fill="white"/>
<path id="path290" d="M410.787 2098.32L413.707 2102.13C413.227 2102.52 412.747 2102.88 412.28 2103.25C411.747 2101.63 411.267 2099.97 410.787 2098.32Z" fill="white"/>
<path id="path292" d="M738.053 2055.25C702.893 2078.59 660.133 2101.97 614.387 2122.91C597.96 2130.43 581.547 2137.43 565.373 2143.85C559.053 2143.04 553.507 2141.73 548.8 2139.93C568.973 2132.25 589.667 2123.59 610.387 2114.12C655.667 2093.41 697.96 2070.27 732.733 2047.21C799.987 2002.61 817.64 1973.25 812.347 1961.65C809.4 1955.23 797.32 1950.37 772.68 1951.52C761.84 1952.04 748.573 1953.72 732.573 1956.93C731.693 1957.12 730.8 1957.29 729.907 1957.48L727.947 1948.03C764.92 1940.33 811.12 1935.77 821.12 1957.63C834.12 1986.04 774.667 2030.99 738.053 2055.25Z" fill="white"/>
<path id="path294" d="M843.533 1957.19C854.32 1980.76 819.28 2021.91 757.227 2065.04C720.48 2090.59 674.253 2116.83 622.453 2140.52C570.653 2164.21 520.573 2182.04 477.227 2193.13C404.013 2211.89 349.975 2211.48 339.192 2187.92C329.4 2166.51 357.385 2130.63 409.067 2091.91C410.84 2099.12 413.093 2106.28 415.84 2113.37C401.56 2125.16 394.533 2134.49 397.013 2139.89C399.533 2145.41 411.587 2146.13 430.453 2142.83C466.907 2136.43 528.827 2114.99 596.587 2083.99C664.373 2052.97 721.08 2020.15 749.747 1996.76C764.587 1984.64 771.907 1975.05 769.387 1969.55C766.92 1964.15 755.267 1963.35 737.027 1966.44C733.453 1959.73 729.493 1953.35 725.2 1947.28C788.293 1933.49 833.747 1935.79 843.533 1957.19Z" fill="white"/>
<path id="path296" d="M741.827 1976.16C744.933 1982.95 747.573 1989.81 749.747 1996.76C721.08 2020.15 664.373 2052.97 596.587 2083.99C528.827 2114.99 466.907 2136.43 430.453 2142.83C426.627 2136.64 423.147 2130.15 420.053 2123.36C418.533 2120.05 417.133 2116.72 415.84 2113.37C413.093 2106.28 410.84 2099.12 409.067 2091.91C389.133 2011 428.787 1924.8 507.333 1888.87C585.88 1852.93 677.027 1879.29 725.2 1947.28C729.493 1953.35 733.453 1959.73 737.027 1966.44C738.707 1969.61 740.307 1972.85 741.827 1976.16Z" fill="white"/>
<path id="path298" d="M727.48 1983.17C730.293 1989.31 732.68 1995.53 734.653 2001.81C708.707 2022.97 657.413 2052.67 596.093 2080.72C534.787 2108.77 478.76 2128.17 445.787 2133.96C442.333 2128.36 439.187 2122.48 436.373 2116.35C436.24 2116.05 436.12 2115.77 435.987 2115.48C434.76 2112.77 433.627 2110.05 432.573 2107.31C430.093 2100.89 428.053 2094.41 426.44 2087.88C426.373 2087.63 426.307 2087.36 426.253 2087.09C423.92 2077.39 422.52 2067.61 422.027 2057.87C421.093 2039.32 423.427 2020.92 428.72 2003.44C441.56 1961.01 471.867 1924.11 515.347 1904.21C558.467 1884.48 605.8 1885.51 646.08 1903.12C662.613 1910.33 677.96 1920.36 691.347 1932.88C698.52 1939.57 705.107 1947 711.027 1955.08C711.507 1955.73 711.973 1956.39 712.44 1957.05C716.333 1962.53 719.907 1968.32 723.133 1974.39C724.333 1976.64 725.493 1978.93 726.587 1981.25C726.893 1981.89 727.187 1982.53 727.48 1983.17Z" fill="#FFB200"/>
<path id="path300" d="M741.413 2063.59C740.84 2070.12 739.88 2076.59 738.507 2082.97C736.613 2091.93 733.933 2100.71 730.533 2109.2C715.813 2146.05 687.44 2177.51 648.52 2195.31C609.507 2213.16 567.053 2214.01 529.493 2200.99C521.24 2198.12 513.227 2194.59 505.547 2190.43C499.507 2187.16 493.693 2183.49 488.107 2179.47C527.32 2169.43 572.627 2153.31 619.493 2131.87C666.347 2110.43 708.173 2086.69 741.413 2063.59Z" fill="#FF9100"/>
<path id="path302" d="M734.653 2001.8C708.72 2022.97 657.413 2052.68 596.093 2080.72C534.787 2108.77 478.76 2128.17 445.787 2133.96C442.333 2128.35 439.187 2122.48 436.373 2116.35C436.24 2116.05 436.12 2115.77 435.987 2115.48C434.76 2112.77 433.627 2110.05 432.573 2107.31C430.093 2100.91 428.053 2094.41 426.44 2087.88C426.373 2087.63 426.307 2087.36 426.253 2087.09C423.92 2077.39 422.52 2067.61 422.027 2057.87C421.093 2039.33 423.427 2020.92 428.72 2003.44C439.107 1969.12 460.907 1938.43 491.867 1917.41C483.813 1929.95 477.56 1943.55 473.253 1957.75C467.96 1975.23 465.627 1993.63 466.573 2012.17C467.053 2021.92 468.453 2031.69 470.787 2041.4C470.853 2041.67 470.92 2041.93 470.987 2042.2C471.067 2042.55 471.187 2042.97 471.333 2043.48C479.493 2070.99 509.107 2082.49 537.68 2079.91C592.133 2074.97 710.053 2011.23 735.133 1996.52C736.88 2000.75 733.293 1997.52 734.653 2001.8Z" fill="#FF9100"/>
<path id="path304" d="M619.493 2131.87C666.347 2110.43 708.173 2086.69 741.413 2063.59C740.84 2070.12 739.88 2076.59 738.507 2082.97C712.933 2101.72 672.04 2124.91 624.4 2146.71C578.76 2167.57 536.213 2182.93 505.547 2190.43C499.507 2187.16 493.693 2183.49 488.107 2179.47C527.32 2169.43 572.627 2153.31 619.493 2131.87Z" fill="#D66B09"/>
<path id="path306" d="M726.587 1981.25C726.893 1981.89 727.186 1982.53 727.48 1983.17C730.293 1989.31 732.68 1995.53 734.653 2001.81C708.707 2022.97 657.413 2052.67 596.093 2080.72C534.787 2108.77 478.76 2128.17 445.787 2133.96C442.333 2128.36 439.186 2122.48 436.373 2116.35C436.24 2116.05 436.12 2115.77 435.987 2115.48C467.267 2111.89 524.293 2093.11 586.8 2064.52C651.773 2034.8 704.853 2002.61 726.587 1981.25Z" fill="#D66B09"/>
<path id="path308" d="M421.773 2063.25L422.28 2052.48C444.106 2053.52 501.08 2035.15 560.853 2007.8C632.16 1975.19 678.16 1944 686.76 1930.05L695.946 1935.72C684.573 1954.16 632.08 1987.08 565.346 2017.61C503.2 2046.04 445.507 2064.39 421.773 2063.25Z" fill="#D66B09"/>
<path id="path310" d="M429.533 2008.77L427.893 1998.11C452.413 1994.36 494.893 1979.56 538.76 1959.51C584.72 1938.48 624.453 1915.33 642.467 1899.11L649.693 1907.12C630.92 1924.04 590.133 1947.87 543.24 1969.31C498.533 1989.76 454.96 2004.88 429.533 2008.77Z" fill="#D66B09"/>
<path id="path312" d="M426.24 2092.49L426.253 2081.69C451.293 2081.71 510.16 2062.48 572.76 2033.84C638.427 2003.8 693.48 1970.12 706.653 1951.92L715.4 1958.24C701.013 1978.11 645.507 2012.43 577.253 2043.65C512.373 2073.33 453.107 2092.51 426.24 2092.49Z" fill="#D66B09"/>
<path id="path314" d="M529.693 2203.68L529.493 2201L528.227 2198.61L528.72 2198.35L529.28 2198.29C550.92 2196.65 592.133 2183.12 634.28 2163.84C676.653 2144.45 712.813 2122.79 728.653 2107.28L732.427 2111.13C716.173 2127.04 679.427 2149.12 636.533 2168.75C593.2 2188.57 552.267 2201.96 529.693 2203.68Z" fill="#D66B09"/>
<path id="path316" d="M504.28 2182.04C547.147 2207.13 600.093 2210.11 645.733 2189.23C691.373 2168.35 723.747 2126.35 732.787 2077.49C700.533 2098.73 662.64 2119.48 622.28 2137.95C581.907 2156.41 541.427 2171.53 504.28 2182.04ZM582.013 2216.45C547.453 2216.45 513.093 2205.76 484.187 2184.89L472.613 2176.53L486.44 2172.99C526.68 2162.69 571.733 2146.36 616.707 2125.79C661.68 2105.21 703.48 2081.8 737.6 2058.09L749.32 2049.95L748.08 2064.17C742.853 2123.89 705.773 2176.47 651.293 2201.39C629.227 2211.48 605.573 2216.45 582.013 2216.45Z" fill="#371A45"/>
<path id="path318" d="M819.493 1966.01C829.253 1987.35 797.56 2024.56 741.413 2063.59C708.173 2086.69 666.36 2110.43 619.493 2131.87C572.627 2153.31 527.32 2169.43 488.107 2179.47C421.867 2196.44 372.984 2196.07 363.229 2174.75C354.371 2155.39 379.688 2122.92 426.44 2087.88C428.053 2094.41 430.093 2100.89 432.573 2107.31C419.653 2117.97 413.293 2126.41 415.533 2131.31C417.827 2136.29 428.72 2136.95 445.787 2133.96C478.76 2128.17 534.787 2108.77 596.093 2080.72C657.413 2052.67 708.707 2022.97 734.653 2001.81C748.067 1990.85 754.707 1982.17 752.427 1977.2C750.187 1972.31 739.64 1971.59 723.133 1974.39C719.907 1968.32 716.333 1962.53 712.44 1957.05C769.52 1944.57 810.64 1946.65 819.493 1966.01Z" fill="#FFD766"/>
<path id="path320" d="M431.587 2104.72C431.907 2105.59 432.24 2106.45 432.573 2107.32C419.653 2117.97 413.293 2126.41 415.533 2131.31C417.827 2136.31 428.733 2136.95 445.787 2133.96C467.653 2130.12 499.68 2120.28 536.667 2105.91C536.08 2109.15 536.08 2112.19 536.68 2115C522.4 2120.36 508.56 2125.09 495.44 2129.13C438.373 2146.67 408.613 2146.43 405.12 2138.77C403.067 2134.31 408.987 2123.03 431.587 2104.72Z" fill="#FFAA39"/>
<path id="path322" d="M427.333 2096.95L428.693 2098.65C417.08 2107.67 408.107 2115.73 401.36 2122.83C406.387 2115.39 415.027 2106.79 427.333 2096.95Z" fill="#FF9100"/>
<path id="path324" d="M430.067 2100.35L428.693 2098.65C428.893 2098.48 429.12 2098.32 429.347 2098.16L430.067 2100.35Z" fill="#FF9100"/>
<path id="path326" d="M401.36 2122.83C396.08 2130.56 394.733 2137.05 397.173 2142.41C399.573 2147.63 405.187 2150.55 412.973 2151.77C433.267 2154.99 468.187 2146.64 498 2137.48C511.493 2133.33 525.72 2128.44 540.413 2122.93C543.24 2126.49 547.427 2129.28 552.853 2131.33C531.16 2139.63 510.107 2146.64 490.387 2152.15C420.08 2171.81 389.547 2166.53 384.735 2156.04C382.069 2150.21 385.917 2139.04 401.36 2122.83Z" fill="#FFAA39"/>
<path id="path328" d="M616.6 2133.17C570.773 2153.97 526.52 2169.64 488.093 2179.47C421.867 2196.44 372.976 2196.07 363.22 2174.73C354.367 2155.39 379.693 2122.92 426.44 2087.88C426.92 2089.83 427.453 2091.76 428 2093.69L425.333 2090.2C398.2 2110.97 367.737 2139.89 376.801 2159.67C380.301 2167.32 388.587 2171.44 399.56 2173.19C425.36 2177.25 465.88 2168.07 492.733 2160.56C516.307 2153.97 541.733 2145.27 567.853 2134.88C580.84 2136.55 597.387 2135.92 616.6 2133.17Z" fill="#FFAA39"/>
<path id="path330" d="M540.413 2122.93C525.72 2128.44 511.493 2133.33 498 2137.48C468.187 2146.64 433.267 2154.99 412.973 2151.77C405.187 2150.55 399.573 2147.63 397.173 2142.41C394.733 2137.05 396.08 2130.56 401.36 2122.83C408.107 2115.73 417.08 2107.67 428.693 2098.65L430.067 2100.35C430.547 2101.81 431.067 2103.27 431.587 2104.72C408.987 2123.03 403.067 2134.31 405.12 2138.77C408.613 2146.43 438.373 2146.67 495.44 2129.13C508.56 2125.09 522.4 2120.36 536.68 2115C536.96 2116.4 537.4 2117.73 537.987 2119C538.627 2120.4 539.427 2121.72 540.413 2122.93Z" fill="#FFCF6E"/>
<path id="path332" d="M428.693 2098.65C417.08 2107.67 408.107 2115.73 401.36 2122.83C406.387 2115.39 415.027 2106.79 427.333 2096.95L428.693 2098.65Z" fill="#FFEC90"/>
<path id="path334" d="M430.067 2100.35L432.787 2103.75C432.387 2104.07 431.973 2104.39 431.587 2104.72C431.067 2103.27 430.547 2101.81 430.067 2100.35Z" fill="#FFEC90"/>
<path id="path336" d="M703.187 2043.61C674.573 2061.53 640.067 2079.89 603.387 2096.67C582.053 2106.43 560.8 2115.29 540.413 2122.93C539.427 2121.72 538.627 2120.4 537.987 2119C537.4 2117.73 536.96 2116.4 536.68 2115C557.08 2107.39 578.373 2098.52 599.76 2088.73C636.093 2072.11 670.267 2053.95 698.533 2036.21C749.12 2004.51 768.387 1981.83 764.893 1974.19C762.8 1969.63 750.013 1966.72 720.307 1972.24L719.107 1965.79L718.72 1963.64C734.28 1960.75 746.467 1959.83 755.4 1960.89C764.627 1962 770.387 1965.21 772.84 1970.55C781.467 1989.43 739.72 2020.71 703.187 2043.61Z" fill="#FFEC90"/>
<path id="path338" d="M567.853 2134.88C541.733 2145.27 516.307 2153.97 492.733 2160.56C465.88 2168.07 425.36 2177.25 399.56 2173.19C388.587 2171.44 380.301 2167.32 376.801 2159.67C367.737 2139.89 398.2 2110.97 425.333 2090.2L428 2093.69C428.427 2095.19 428.867 2096.68 429.347 2098.16C429.12 2098.32 428.893 2098.48 428.693 2098.65L427.333 2096.95C415.027 2106.79 406.387 2115.39 401.36 2122.83C385.917 2139.04 382.069 2150.21 384.735 2156.04C389.547 2166.53 420.08 2171.81 490.387 2152.15C510.107 2146.64 531.16 2139.63 552.853 2131.33C557.107 2132.97 562.133 2134.15 567.853 2134.88Z" fill="#FFCF6E"/>
<path id="path340" d="M427.333 2096.95L428.693 2098.65C417.08 2107.67 408.107 2115.73 401.36 2122.83C406.387 2115.39 415.027 2106.79 427.333 2096.95Z" fill="#FFAA39"/>
<path id="path342" d="M428 2093.69L430.64 2097.15C430.2 2097.49 429.773 2097.83 429.347 2098.16C428.867 2096.68 428.427 2095.19 428 2093.69Z" fill="#FFEC90"/>
<path id="path344" d="M724.08 2054.73C692.266 2075.84 653.573 2097 612.187 2115.93C597.333 2122.73 582.493 2129.07 567.853 2134.88C562.133 2134.15 557.107 2132.97 552.853 2131.33C571.107 2124.39 589.827 2116.55 608.573 2107.99C649.533 2089.24 687.8 2068.32 719.253 2047.45C780.107 2007.11 796.08 1980.55 791.28 1970.05C788.613 1964.24 777.68 1959.84 755.4 1960.89C745.587 1961.36 733.587 1962.87 719.107 1965.79C718.32 1965.95 717.507 1966.11 716.693 1966.28L714.92 1957.73C748.373 1950.77 790.173 1946.64 799.213 1966.41C810.973 1992.11 757.186 2032.77 724.08 2054.73Z" fill="#FFEC90"/>
<path id="path346" d="M422.667 2099.2C375.816 2135.88 364.163 2160.71 369.309 2171.97C375.168 2184.77 409.373 2192.73 486.44 2172.99C526.68 2162.69 571.733 2146.36 616.707 2125.79C661.68 2105.21 703.48 2081.8 737.6 2058.09C802.933 2012.68 819.28 1981.61 813.413 1968.8C808.267 1957.55 781.88 1950.13 723.48 1961.59C724.6 1963.4 725.68 1965.21 726.733 1967.07C745.173 1964.49 755.027 1966.81 758.507 1974.41C762.32 1982.75 756.267 1992.79 738.88 2006.99C711.333 2029.47 659 2059.29 598.88 2086.8C538.747 2114.31 481.947 2134.4 446.947 2140.55C424.84 2144.41 413.267 2142.43 409.453 2134.09C405.987 2126.49 410.68 2117.51 424.68 2105.24C423.973 2103.24 423.293 2101.23 422.667 2099.2ZM408.613 2198.31C384.603 2198.31 364.271 2193.09 357.148 2177.53C343.489 2147.67 392.187 2105.2 422.427 2082.53L430.52 2076.48L432.933 2086.29C434.48 2092.56 436.467 2098.83 438.813 2104.89L440.547 2109.4L436.827 2112.47C425.76 2121.6 422.827 2126.48 422.053 2128.32C424 2128.96 429.827 2129.96 444.64 2127.37C478.067 2121.51 535.04 2101.29 593.307 2074.64C651.573 2047.99 704.12 2018.09 730.427 1996.63C742.067 1987.12 745.107 1982.07 745.907 1980.17C744 1979.55 738.373 1978.57 724.253 1980.97L719.493 1981.79L717.227 1977.53C714.173 1971.79 710.733 1966.2 706.987 1960.91L701.16 1952.67L711.013 1950.52C747.933 1942.45 811.92 1933.37 825.573 1963.23C840.68 1996.24 781.72 2043.72 745.227 2069.08C710.48 2093.24 667.96 2117.04 622.28 2137.95C576.573 2158.85 530.76 2175.45 489.76 2185.95C467.027 2191.77 435.507 2198.31 408.613 2198.31Z" fill="#371A45"/>
<path id="path348" d="M716.093 1990.49C715.787 1989.92 715.493 1989.35 715.187 1988.77C711.96 1982.71 708.373 1976.92 704.493 1971.43C704.24 1971.07 703.987 1970.71 703.72 1970.35C705.92 1968.44 707.92 1966.6 709.667 1964.83C712.387 1968.93 714.92 1973.19 717.227 1977.53L719.493 1981.79L724.253 1980.97C724.88 1980.87 725.493 1980.77 726.093 1980.68C726.213 1980.92 726.32 1981.16 726.44 1981.4C723.533 1984.25 720.067 1987.29 716.093 1990.49ZM697.147 1961.85C693.173 1957.07 688.947 1952.55 684.493 1948.31C689.187 1944.16 692.76 1940.37 695.093 1937.01C699.56 1941.47 703.787 1946.21 707.733 1951.23L701.16 1952.67L703.4 1955.84C701.653 1957.73 699.56 1959.73 697.147 1961.85ZM676.387 1941.08C664.747 1931.41 651.84 1923.49 638.133 1917.51C637.813 1917.37 637.507 1917.24 637.2 1917.11C642.04 1913.57 646.24 1910.24 649.693 1907.12L646.867 1903.99C662.427 1910.88 676.907 1920.25 689.68 1931.85L686.76 1930.05C684.933 1933.01 681.44 1936.73 676.387 1941.08ZM483.507 1932.08C485.853 1927.41 488.427 1922.85 491.227 1918.43C498.747 1913.27 506.813 1908.68 515.387 1904.75C536.973 1894.88 559.613 1890.21 581.88 1890.21C601.92 1890.21 621.667 1893.99 640.093 1901.17C635.96 1904.68 630.907 1908.47 625.08 1912.47C608.68 1906.93 591.387 1904.04 573.867 1904.04C551.6 1904.04 528.973 1908.72 507.387 1918.6C498.92 1922.47 490.947 1926.99 483.507 1932.08Z" fill="#FFD269"/>
<path id="path350" d="M439.587 1977.17C451.44 1954.08 468.933 1933.72 491.227 1918.43C488.427 1922.85 485.853 1927.41 483.507 1932.08C465.667 1944.27 450.88 1959.69 439.587 1977.17Z" fill="#FFBE69"/>
<path id="path352" d="M721.96 2003.16C721.2 2001.28 720.387 1999.41 719.533 1997.56C719.24 1996.92 718.933 1996.28 718.64 1995.65C717.813 1993.91 716.973 1992.19 716.093 1990.49C720.067 1987.29 723.533 1984.25 726.44 1981.4C726.507 1981.53 726.56 1981.67 726.627 1981.8C726.933 1982.44 727.24 1983.08 727.52 1983.72C729.253 1987.49 730.813 1991.31 732.227 1995.13C731.653 1995.61 731.053 1996.12 730.427 1996.63C727.853 1998.72 725.027 2000.91 721.96 2003.16Z" fill="#E7A86E"/>
<path id="path354" d="M684.493 1948.31C684.133 1947.96 683.76 1947.61 683.4 1947.27C681.12 1945.13 678.773 1943.07 676.387 1941.08C681.44 1936.73 684.933 1933.01 686.76 1930.05L689.68 1931.85C690.253 1932.39 690.827 1932.91 691.4 1933.44C692.653 1934.61 693.88 1935.8 695.093 1937.01C692.76 1940.37 689.187 1944.16 684.493 1948.31Z" fill="#E7A86E"/>
<path id="path356" d="M637.2 1917.11C633.227 1915.4 629.173 1913.84 625.08 1912.47C630.907 1908.47 635.96 1904.68 640.093 1901.17C642.12 1901.96 644.133 1902.79 646.12 1903.67C646.373 1903.77 646.613 1903.88 646.867 1903.99L649.693 1907.12C646.24 1910.24 642.04 1913.57 637.2 1917.11Z" fill="#E7A86E"/>
<path id="path358" d="M703.72 1970.35C703.507 1970.05 703.293 1969.76 703.08 1969.47C701.173 1966.87 699.187 1964.32 697.147 1961.85C699.56 1959.73 701.653 1957.73 703.4 1955.84L706.987 1960.91C707.907 1962.2 708.8 1963.51 709.667 1964.83C707.92 1966.6 705.92 1968.44 703.72 1970.35Z" fill="#E7A86E"/>
<path id="path360" d="M724.64 2010.07C723.8 2007.76 722.907 2005.45 721.96 2003.16C725.027 2000.91 727.853 1998.72 730.427 1996.63C731.053 1996.12 731.653 1995.61 732.227 1995.13C733.107 1997.53 733.933 1999.93 734.693 2002.35C731.68 2004.81 728.32 2007.39 724.64 2010.07ZM719.493 1981.79L717.227 1977.53C714.92 1973.19 712.387 1968.93 709.667 1964.83C708.8 1963.51 707.907 1962.2 706.987 1960.91L703.4 1955.84L701.16 1952.67L707.733 1951.23C708.867 1952.68 709.987 1954.15 711.067 1955.63C711.56 1956.28 712.027 1956.93 712.493 1957.6C716.373 1963.08 719.947 1968.85 723.173 1974.93C724.187 1976.83 725.16 1978.73 726.093 1980.68C725.493 1980.77 724.88 1980.87 724.253 1980.97L719.493 1981.79Z" fill="#897892"/>
<path id="path362" d="M581.867 1896.37C560.4 1896.37 538.68 1900.89 518.133 1910.29C451.187 1940.91 415.36 2014.93 432.933 2086.29C434.48 2092.56 436.467 2098.83 438.813 2104.89C439.933 2107.81 441.147 2110.71 442.453 2113.57C444.48 2117.99 446.72 2122.32 449.133 2126.52C483.04 2119.73 537.587 2100.13 593.307 2074.64C649.04 2049.15 699.52 2020.69 726.84 1999.48C725.24 1994.91 723.427 1990.37 721.4 1985.96V1985.95C720.093 1983.08 718.707 1980.28 717.24 1977.53C714.173 1971.79 710.733 1966.2 706.987 1960.91C677.547 1919.36 630.347 1896.37 581.867 1896.37ZM442.48 2141.32L440.093 2137.47C436.48 2131.61 433.187 2125.44 430.293 2119.13C428.867 2116.01 427.547 2112.87 426.333 2109.71C423.787 2103.12 421.627 2096.31 419.947 2089.48C400.84 2011.89 439.787 1931.43 512.56 1898.12C585.32 1864.83 671.693 1887.99 717.907 1953.19C721.973 1958.93 725.72 1965.01 729.04 1971.24C730.627 1974.23 732.147 1977.28 733.573 1980.4C736.453 1986.72 738.973 1993.24 741.04 1999.8L742.4 2004.12L738.88 2006.99C711.333 2029.47 659 2059.29 598.88 2086.8C538.747 2114.31 481.947 2134.4 446.947 2140.55L442.48 2141.32Z" fill="#371A45"/>
<path id="path364" d="M2100.41 4269.68C1466.99 4269.68 953.507 4205.03 953.507 4125.28C953.507 4045.55 1466.99 3980.89 2100.41 3980.89C2733.84 3980.89 3247.33 4045.55 3247.33 4125.28C3247.33 4205.03 2733.84 4269.68 2100.41 4269.68Z" fill="#C49FDA"/>
</g>
</svg>
