<svg width="950" height="172" viewBox="0 0 950 172" fill="none" xmlns="http://www.w3.org/2000/svg">
<g id="clouds">
<g id="g42">
<g id="g48">
<path id="path50" d="M197.653 150.337C197.653 150.337 195.786 137.274 180.235 132.919C164.685 128.566 157.843 150.337 154.111 152.203C150.378 154.069 144.781 141.629 134.827 142.873C124.875 144.117 124.254 157.179 122.387 159.045C120.521 160.911 114.923 154.069 109.325 157.801C103.727 161.533 102.483 165.887 102.483 165.887L89.4205 170.863H231.863C231.863 170.863 230.621 157.179 221.29 152.203C211.959 147.226 206.983 152.825 203.873 153.447C200.763 154.069 197.653 150.337 197.653 150.337Z" stroke="#1A2E35" stroke-width="1.33333" stroke-miterlimit="10" stroke-linecap="round" stroke-linejoin="round"/>
</g>
<g id="g52">
<path id="path54" d="M872.624 127.04C872.624 127.04 870.759 113.977 855.207 109.622C839.656 105.269 832.816 127.04 829.083 128.906C825.351 130.772 819.753 118.332 809.8 119.576C799.848 120.82 799.225 133.882 797.36 135.748C795.493 137.614 789.895 130.772 784.297 134.504C778.699 138.236 777.455 142.59 777.455 142.59L764.392 147.566H906.836C906.836 147.566 905.592 133.882 896.263 128.906C886.931 123.929 881.955 129.528 878.844 130.15C875.735 130.772 872.624 127.04 872.624 127.04Z" stroke="#1A2E35" stroke-width="1.33333" stroke-miterlimit="10" stroke-linecap="round" stroke-linejoin="round"/>
</g>
<g id="g56">
<path id="path58" d="M691.554 58.5032C691.554 58.5032 687.135 27.5672 650.304 17.2552C613.476 6.94322 597.272 58.5032 588.432 62.9219C579.594 67.3419 566.335 37.8792 542.766 40.8259C519.195 43.7726 517.72 74.7086 513.302 79.1272C508.883 83.5472 495.624 67.3419 482.366 76.1805C469.108 85.0205 466.162 95.3325 466.162 95.3325L435.224 107.117H772.578C772.578 107.117 769.631 74.7085 747.534 62.9219C725.436 51.1379 713.651 64.3952 706.286 65.8686C698.919 67.3419 691.554 58.5032 691.554 58.5032Z" stroke="#1A2E35" stroke-width="1.33333" stroke-miterlimit="10" stroke-linecap="round" stroke-linejoin="round"/>
</g>
</g>
</g>
</svg>
