<svg width="950" height="289" viewBox="0 0 950 289" fill="none" xmlns="http://www.w3.org/2000/svg">
<g id="landfill-birds">
<g id="birds">
<g id="g62">
<g id="b18">
<path id="path70" d="M412.819 215.223C412.819 215.223 412.589 214.994 410.98 215.452C409.371 215.912 407.991 216.832 407.991 216.832C407.991 216.832 411.669 217.522 414.428 217.751C417.187 217.982 419.485 217.982 419.485 217.982C419.485 217.982 417.187 215.223 417.647 214.074C418.107 212.924 421.096 207.176 421.096 207.176L414.888 213.843L412.819 215.223Z" fill="#1A2E35"/>
</g>
<g id="b17">
<path id="path74" d="M302.798 249.539C302.798 249.539 302.569 249.308 300.959 249.768C299.35 250.228 297.97 251.148 297.97 251.148C297.97 251.148 301.649 251.837 304.407 252.067C307.166 252.297 309.465 252.297 309.465 252.297C309.465 252.297 307.166 249.539 307.626 248.389C308.085 247.239 311.074 241.492 311.074 241.492L304.867 248.159L302.798 249.539Z" fill="#1A2E35"/>
</g>
<g id="b16">
<path id="path78" d="M453.511 227.177L449.372 226.259C449.372 226.259 450.521 228.327 452.361 228.787C454.2 229.247 457.419 229.016 457.419 229.016C457.419 229.016 456.269 227.407 456.269 226.259C456.269 225.108 457.189 223.959 457.879 223.729C458.568 223.499 460.408 222.809 460.408 222.809C460.408 222.809 456.959 221.2 454.66 223.269C452.361 225.339 453.511 227.177 453.511 227.177Z" fill="#1A2E35"/>
</g>
<g id="b15">
<path id="path82" d="M355.176 241.596L351.037 240.676C351.037 240.676 352.188 242.745 354.027 243.205C355.867 243.665 359.085 243.435 359.085 243.435C359.085 243.435 357.935 241.825 357.935 240.676C357.935 239.527 358.855 238.377 359.544 238.148C360.233 237.917 362.073 237.228 362.073 237.228C362.073 237.228 358.624 235.619 356.325 237.688C354.027 239.757 355.176 241.596 355.176 241.596Z" fill="#1A2E35"/>
</g>
<g id="b14">
<path id="path86" d="M474.431 242.351C474.431 242.351 472.822 241.201 472.822 242.58V243.96C472.822 243.96 470.293 244.189 470.983 246.259C471.673 248.328 473.513 249.017 473.513 249.017C473.513 249.017 475.121 245.799 475.811 245.799C476.501 245.799 478.799 245.34 478.799 245.34C478.799 245.34 477.421 244.649 477.65 243.271C477.879 241.891 479.489 241.201 480.409 240.741C480.409 240.741 473.051 238.903 474.431 242.351Z" fill="#1A2E35"/>
</g>
<g id="b13">
<path id="path90" d="M393.967 268.099L393.507 270.398L393.738 272.467L396.267 275.915L396.957 271.547L400.405 270.398C400.405 270.398 400.405 268.789 399.255 268.789H398.106L393.967 268.099Z" fill="#1A2E35"/>
</g>
<g id="b12">
<path id="path94" d="M478.34 278.904C478.34 278.904 473.282 282.813 472.592 283.272L471.902 283.732C471.902 283.732 470.982 284.192 468.914 285.801C466.845 287.411 465.465 288.1 465.465 288.1C465.465 288.1 467.994 288.1 469.604 287.411C471.213 286.721 472.592 286.261 472.592 286.261L476.96 286.951L476.041 284.421L479.949 279.135L478.34 278.904Z" fill="#1A2E35"/>
</g>
<g id="b11">
<path id="path98" d="M510.755 282.583C510.755 282.583 507.536 278.215 507.076 277.526C506.616 276.835 507.076 280.743 508.227 282.123C509.375 283.502 509.836 284.652 509.836 284.652C509.836 284.652 508.227 286.031 510.065 286.491C511.904 286.951 515.353 286.031 515.353 286.031L513.973 284.422L518.341 277.755L511.74 283.391L510.755 282.583Z" fill="#1A2E35"/>
</g>
<g id="b10">
<path id="path102" d="M336.862 228.435C336.862 228.435 333.644 224.067 333.184 223.378C332.724 222.687 333.184 226.597 334.334 227.975C335.482 229.354 335.944 230.505 335.944 230.505C335.944 230.505 334.334 231.883 336.173 232.343C338.012 232.803 341.461 231.883 341.461 231.883L340.081 230.274L344.449 223.607L337.848 229.243L336.862 228.435Z" fill="#1A2E35"/>
</g>
<g id="b9">
<path id="path106" d="M627.465 160.433C627.465 160.433 627.234 160.204 625.625 160.663C624.015 161.124 622.637 162.043 622.637 162.043C622.637 162.043 626.315 162.732 629.074 162.963C631.831 163.192 634.131 163.192 634.131 163.192C634.131 163.192 631.831 160.433 632.293 159.284C632.753 158.135 635.741 152.387 635.741 152.387L629.534 159.055L627.465 160.433Z" fill="#1A2E35"/>
</g>
<g id="b8">
<path id="path110" d="M517.443 194.749C517.443 194.749 517.214 194.52 515.604 194.978C513.995 195.438 512.615 196.358 512.615 196.358C512.615 196.358 516.294 197.048 519.052 197.277C521.811 197.508 524.11 197.508 524.11 197.508C524.11 197.508 521.811 194.749 522.271 193.6C522.731 192.45 525.719 186.702 525.719 186.702L519.512 193.369L517.443 194.749Z" fill="#1A2E35"/>
</g>
<g id="b7">
<path id="path114" d="M668.156 172.388L664.017 171.468C664.017 171.468 665.168 173.538 667.007 173.998C668.847 174.458 672.065 174.227 672.065 174.227C672.065 174.227 670.915 172.618 670.915 171.468C670.915 170.319 671.835 169.17 672.524 168.94C673.213 168.71 675.053 168.02 675.053 168.02C675.053 168.02 671.604 166.411 669.305 168.48C667.007 170.55 668.156 172.388 668.156 172.388Z" fill="#1A2E35"/>
</g>
<g id="b5">
<path id="path118" d="M569.821 186.806L565.683 185.888C565.683 185.888 566.833 187.956 568.673 188.416C570.512 188.876 573.731 188.645 573.731 188.645C573.731 188.645 572.58 187.036 572.58 185.888C572.58 184.737 573.5 183.588 574.189 183.358C574.88 183.128 576.719 182.438 576.719 182.438C576.719 182.438 573.271 180.829 570.971 182.898C568.673 184.968 569.821 186.806 569.821 186.806Z" fill="#1A2E35"/>
</g>
<g id="b5_2">
<path id="path122" d="M689.077 187.561C689.077 187.561 687.467 186.412 687.467 187.791V189.171C687.467 189.171 684.938 189.4 685.629 191.469C686.318 193.539 688.158 194.228 688.158 194.228C688.158 194.228 689.767 191.009 690.455 191.009C691.146 191.009 693.445 190.549 693.445 190.549C693.445 190.549 692.065 189.86 692.295 188.48C692.526 187.101 694.134 186.412 695.054 185.952C695.054 185.952 687.698 184.113 689.077 187.561Z" fill="#1A2E35"/>
</g>
<g id="b4">
<path id="path126" d="M608.613 213.31L608.153 215.61L608.382 217.678L610.912 221.126L611.601 216.758L615.049 215.61C615.049 215.61 615.049 214 613.901 214H612.752L608.613 213.31Z" fill="#1A2E35"/>
</g>
<g id="b3">
<path id="path130" d="M692.985 224.115C692.985 224.115 687.927 228.023 687.237 228.483L686.548 228.943C686.548 228.943 685.628 229.403 683.56 231.012C681.491 232.62 680.111 233.311 680.111 233.311C680.111 233.311 682.639 233.311 684.248 232.62C685.857 231.931 687.237 231.472 687.237 231.472L691.605 232.162L690.685 229.632L694.595 224.344L692.985 224.115Z" fill="#1A2E35"/>
</g>
<g id="b2">
<path id="path134" d="M725.401 227.793C725.401 227.793 722.182 223.425 721.722 222.736C721.262 222.045 721.722 225.955 722.873 227.333C724.021 228.713 724.482 229.863 724.482 229.863C724.482 229.863 722.873 231.241 724.71 231.701C726.55 232.161 729.998 231.241 729.998 231.241L728.619 229.632L732.986 222.965L726.386 228.601L725.401 227.793Z" fill="#1A2E35"/>
</g>
<g id="b1">
<path id="path138" d="M551.508 173.645C551.508 173.645 548.289 169.277 547.829 168.588C547.369 167.897 547.829 171.807 548.98 173.185C550.129 174.565 550.589 175.715 550.589 175.715C550.589 175.715 548.98 177.093 550.817 177.553C552.657 178.013 556.105 177.093 556.105 177.093L554.726 175.484L559.094 168.817L552.493 174.453L551.508 173.645Z" fill="#1A2E35"/>
</g>
</g>
</g>
</g>
</svg>
