<svg width="950" height="409" viewBox="0 0 950 409" fill="none" xmlns="http://www.w3.org/2000/svg">
<g id="truck">
<g id="g142">
<g id="truck-garbage">
<g id="g152">
<path id="path154" d="M380.076 407.168L374.524 404.947L370.083 398.285L367.612 393.711C367.612 393.711 359.535 391.069 357.87 391.069C356.204 391.069 352.874 391.624 350.654 391.069C348.432 390.513 345.102 383.852 341.508 380.027C341.508 377.603 339.691 374.572 339.691 374.572C339.691 374.572 339.691 368.512 340.298 366.695C340.903 364.876 339.691 352.149 339.691 352.149L327.571 327.303V320.029C327.571 318.212 319.086 306.696 319.086 306.696L316.055 301.244L313.026 293.364C313.026 293.364 311.814 280.639 311.208 278.82C310.602 277.001 302.118 271.548 302.118 271.548L289.996 266.699C289.996 266.699 280.907 261.245 279.088 260.64C277.271 260.033 271.816 260.64 271.816 260.64L266.362 259.427L245.756 250.336L227.576 237.004L219.698 237.611L200.911 235.792L195.456 234.58H184.548L174.852 238.823L164.55 238.216L157.276 237.004C157.276 237.004 141.52 238.216 139.702 238.823C137.884 239.428 127.582 243.671 127.582 243.671L146.368 253.367L152.724 286.953L291.815 346.696L296.663 351.543L299.692 362.452L304.542 407.56H345.751V407.168H380.076Z" fill="#5AE4A7"/>
</g>
<g id="g156">
<path id="path158" d="M380.076 407.168L374.524 404.947L370.083 398.285L367.612 393.711C367.612 393.711 359.535 391.069 357.87 391.069C356.204 391.069 352.874 391.624 350.654 391.069C348.432 390.513 345.102 383.852 341.508 380.027C341.508 377.603 339.691 374.572 339.691 374.572C339.691 374.572 339.691 368.512 340.298 366.695C340.903 364.876 339.691 352.149 339.691 352.149L327.571 327.303V320.029C327.571 318.212 319.086 306.696 319.086 306.696L316.055 301.244L313.026 293.364C313.026 293.364 311.814 280.639 311.208 278.82C310.602 277.001 302.118 271.548 302.118 271.548L289.996 266.699C289.996 266.699 280.907 261.245 279.088 260.64C277.271 260.033 271.816 260.64 271.816 260.64L266.362 259.427L245.756 250.336L227.576 237.004L219.698 237.611L200.911 235.792L195.456 234.58H184.548L174.852 238.823L164.55 238.216L157.276 237.004C157.276 237.004 141.52 238.216 139.702 238.823C137.884 239.428 127.582 243.671 127.582 243.671L146.368 253.367L152.724 286.953L291.815 346.696L296.663 351.543L299.692 362.452L304.542 407.56H345.751V407.168H380.076Z" stroke="#1A2E35" stroke-width="1.33333" stroke-miterlimit="10" stroke-linecap="round" stroke-linejoin="round"/>
</g>
<g id="g160">
<path id="path162" d="M324.242 345.534L324.712 329.99L301.111 313.505L299.943 322.145L324.242 345.534Z" fill="#B6B6B6"/>
</g>
<g id="g164">
<path id="path166" d="M324.242 345.534L324.712 329.99L301.111 313.505L299.943 322.145L324.242 345.534Z" stroke="#1A2E35" stroke-width="1.33333" stroke-miterlimit="10" stroke-linecap="round" stroke-linejoin="round"/>
</g>
<g id="g168">
<path id="path170" d="M324.242 345.534L322.988 351.897L316.056 340.138L309.224 333.377L306.491 330.673L302.064 327.241L293.68 318.87L299.943 322.145L324.242 345.534Z" fill="#6E6E6E"/>
</g>
<g id="g172">
<path id="path174" d="M324.242 345.534L322.988 351.897L316.056 340.138L309.224 333.377L306.491 330.673L302.064 327.241L293.68 318.87L299.943 322.145L324.242 345.534Z" stroke="#1A2E35" stroke-width="1.33333" stroke-miterlimit="10" stroke-linecap="round" stroke-linejoin="round"/>
</g>
<g id="g176">
<path id="path178" d="M301.111 313.504L296.727 311.212L292.073 306.387L292.755 310.572L293.681 318.869L299.943 322.144L301.111 313.504Z" fill="#B6B6B6"/>
</g>
<g id="g180">
<path id="path182" d="M301.111 313.504L296.727 311.212L292.073 306.387L292.755 310.572L293.681 318.869L299.943 322.144L301.111 313.504Z" stroke="#1A2E35" stroke-width="1.33333" stroke-miterlimit="10" stroke-linecap="round" stroke-linejoin="round"/>
</g>
<g id="g184">
<path id="path186" d="M246.499 260.639L243.983 262.437L238.771 265.311C238.771 265.311 241.647 266.39 242.185 266.57C242.724 266.75 249.733 269.445 249.733 269.445L252.249 266.57L256.024 260.639C256.024 260.639 250.812 261.538 246.499 260.639Z" fill="#B6B6B6"/>
</g>
<g id="g188">
<path id="path190" d="M246.499 260.639L243.983 262.437L238.771 265.311C238.771 265.311 241.647 266.39 242.185 266.57C242.724 266.75 249.733 269.445 249.733 269.445L252.249 266.57L256.024 260.639C256.024 260.639 250.812 261.538 246.499 260.639Z" stroke="#1A2E35" stroke-width="1.33333" stroke-miterlimit="10" stroke-linecap="round" stroke-linejoin="round"/>
</g>
<g id="g192">
<path id="path194" d="M325.576 381.891L323.06 383.688L317.848 386.563C317.848 386.563 320.722 387.64 321.262 387.82C321.801 388 328.81 390.696 328.81 390.696L331.326 387.82L335.101 381.891C335.101 381.891 329.889 382.789 325.576 381.891Z" fill="#B6B6B6"/>
</g>
<g id="g196">
<path id="path198" d="M325.576 381.891L323.06 383.688L317.848 386.563C317.848 386.563 320.722 387.64 321.262 387.82C321.801 388 328.81 390.696 328.81 390.696L331.326 387.82L335.101 381.891C335.101 381.891 329.889 382.789 325.576 381.891Z" stroke="#1A2E35" stroke-width="1.33333" stroke-miterlimit="10" stroke-linecap="round" stroke-linejoin="round"/>
</g>
<g id="g200">
<path id="path202" d="M328.658 356.072L326.142 357.869L320.93 360.745C320.93 360.745 323.804 361.822 324.344 362.002C324.883 362.182 331.892 364.877 331.892 364.877L334.408 362.002L338.183 356.072C338.183 356.072 332.971 356.97 328.658 356.072Z" fill="#B6B6B6"/>
</g>
<g id="g204">
<path id="path206" d="M328.658 356.072L326.142 357.869L320.93 360.745C320.93 360.745 323.804 361.822 324.344 362.002C324.883 362.182 331.892 364.877 331.892 364.877L334.408 362.002L338.183 356.072C338.183 356.072 332.971 356.97 328.658 356.072Z" stroke="#1A2E35" stroke-width="1.33333" stroke-miterlimit="10" stroke-linecap="round" stroke-linejoin="round"/>
</g>
<g id="g208">
<path id="path210" d="M197.037 241.81L194.521 243.607L189.309 246.482C189.309 246.482 192.183 247.561 192.723 247.741C193.262 247.921 200.271 250.617 200.271 250.617L202.787 247.741L206.562 241.81C206.562 241.81 201.35 242.709 197.037 241.81Z" fill="#B6B6B6"/>
</g>
<g id="g212">
<path id="path214" d="M197.037 241.81L194.521 243.607L189.309 246.482C189.309 246.482 192.183 247.561 192.723 247.741C193.262 247.921 200.271 250.617 200.271 250.617L202.787 247.741L206.562 241.81C206.562 241.81 201.35 242.709 197.037 241.81Z" stroke="#1A2E35" stroke-width="1.33333" stroke-miterlimit="10" stroke-linecap="round" stroke-linejoin="round"/>
</g>
<g id="g216">
<path id="path218" d="M303.643 340.802L301.127 342.599L295.915 345.475C295.915 345.475 298.79 346.553 299.33 346.733C299.869 346.913 306.878 349.607 306.878 349.607L309.394 346.733L313.169 340.802C313.169 340.802 307.957 341.701 303.643 340.802Z" fill="#B6B6B6"/>
</g>
<g id="g220">
<path id="path222" d="M303.643 340.802L301.127 342.599L295.915 345.475C295.915 345.475 298.79 346.553 299.33 346.733C299.869 346.913 306.878 349.607 306.878 349.607L309.394 346.733L313.169 340.802C313.169 340.802 307.957 341.701 303.643 340.802Z" stroke="#1A2E35" stroke-width="1.33333" stroke-miterlimit="10" stroke-linecap="round" stroke-linejoin="round"/>
</g>
<g id="g224">
<path id="path226" d="M227.532 264.176L231.851 261.092L240.795 256.156C240.795 256.156 235.86 254.307 234.935 253.998C234.009 253.69 221.98 249.063 221.98 249.063L217.663 253.998L211.185 264.176C211.185 264.176 220.131 262.634 227.532 264.176Z" fill="white"/>
</g>
<g id="g228">
<path id="path230" d="M227.532 264.176L231.851 261.092L240.795 256.156C240.795 256.156 235.86 254.307 234.935 253.998C234.009 253.69 221.98 249.063 221.98 249.063L217.663 253.998L211.185 264.176C211.185 264.176 220.131 262.634 227.532 264.176Z" stroke="#1A2E35" stroke-width="1.33333" stroke-miterlimit="10" stroke-linecap="round" stroke-linejoin="round"/>
</g>
<g id="g232">
<path id="path234" d="M179.708 246.295L177.961 247.543L174.344 249.539C174.344 249.539 176.34 250.287 176.713 250.411C177.088 250.536 181.953 252.408 181.953 252.408L183.7 250.411L186.32 246.295C186.32 246.295 182.702 246.919 179.708 246.295Z" fill="white"/>
</g>
<g id="g236">
<path id="path238" d="M179.708 246.295L177.961 247.543L174.344 249.539C174.344 249.539 176.34 250.287 176.713 250.411C177.088 250.536 181.953 252.408 181.953 252.408L183.7 250.411L186.32 246.295C186.32 246.295 182.702 246.919 179.708 246.295Z" stroke="#1A2E35" stroke-width="1.33333" stroke-miterlimit="10" stroke-linecap="round" stroke-linejoin="round"/>
</g>
<g id="g240">
<path id="path242" d="M210.401 243.005L208.654 244.253L205.037 246.249C205.037 246.249 207.033 246.997 207.407 247.122C207.781 247.247 212.647 249.118 212.647 249.118L214.393 247.122L217.013 243.005C217.013 243.005 213.395 243.629 210.401 243.005Z" fill="white"/>
</g>
<g id="g244">
<path id="path246" d="M210.401 243.005L208.654 244.253L205.037 246.249C205.037 246.249 207.033 246.997 207.407 247.122C207.781 247.247 212.647 249.118 212.647 249.118L214.393 247.122L217.013 243.005C217.013 243.005 213.395 243.629 210.401 243.005Z" stroke="#1A2E35" stroke-width="1.33333" stroke-miterlimit="10" stroke-linecap="round" stroke-linejoin="round"/>
</g>
<g id="g248">
<path id="path250" d="M295.964 282.25L294.217 283.498L290.6 285.494C290.6 285.494 292.596 286.242 292.969 286.367C293.344 286.493 298.209 288.363 298.209 288.363L299.956 286.367L302.576 282.25C302.576 282.25 298.958 282.874 295.964 282.25Z" fill="white"/>
</g>
<g id="g252">
<path id="path254" d="M295.964 282.25L294.217 283.498L290.6 285.494C290.6 285.494 292.596 286.242 292.969 286.367C293.344 286.493 298.209 288.363 298.209 288.363L299.956 286.367L302.576 282.25C302.576 282.25 298.958 282.874 295.964 282.25Z" stroke="#1A2E35" stroke-width="1.33333" stroke-miterlimit="10" stroke-linecap="round" stroke-linejoin="round"/>
</g>
<g id="g256">
<path id="path258" d="M182.575 245.815L152.967 241.331L153.954 237.387L186.906 242.378L186.372 244.507L182.575 245.815Z" fill="white"/>
</g>
<g id="g260">
<path id="path262" d="M182.575 245.815L152.967 241.331L153.954 237.387L186.906 242.378L186.372 244.507L182.575 245.815Z" stroke="#1A2E35" stroke-width="1.33333" stroke-miterlimit="10" stroke-linecap="round" stroke-linejoin="round"/>
</g>
<g id="g264">
<path id="path266" d="M276.823 263.523L290.308 269.244L284.383 274.965L267.219 269.04L276.823 263.523Z" fill="white"/>
</g>
<g id="g268">
<path id="path270" d="M276.823 263.523L290.308 269.244L284.383 274.965L267.219 269.04L276.823 263.523Z" stroke="#1A2E35" stroke-width="1.33333" stroke-miterlimit="10" stroke-linecap="round" stroke-linejoin="round"/>
</g>
<g id="g272">
<path id="path274" d="M284.382 274.965L284.178 279.869L283.157 283.751L271.714 280.483L265.661 277.627L261.293 277.008L265.38 273.331L267.218 269.04L284.382 274.965Z" fill="white"/>
</g>
<g id="g276">
<path id="path278" d="M284.382 274.965L284.178 279.869L283.157 283.751L271.714 280.483L265.661 277.627L261.293 277.008L265.38 273.331L267.218 269.04L284.382 274.965Z" stroke="#1A2E35" stroke-width="1.33333" stroke-miterlimit="10" stroke-linecap="round" stroke-linejoin="round"/>
</g>
<g id="g280">
<path id="path282" d="M290.308 269.244L291.329 275.577L293.169 279.052L283.156 283.751L284.383 274.965L290.308 269.244Z" fill="white"/>
</g>
<g id="g284">
<path id="path286" d="M290.308 269.244L291.329 275.577L293.169 279.052L283.156 283.751L284.383 274.965L290.308 269.244Z" stroke="#1A2E35" stroke-width="1.33333" stroke-miterlimit="10" stroke-linecap="round" stroke-linejoin="round"/>
</g>
<g id="g288">
<path id="path290" d="M315.496 358.962L317.291 365.742L313.387 365.181L310.59 356.949L315.496 358.962Z" fill="white"/>
</g>
<g id="g292">
<path id="path294" d="M315.496 358.962L317.291 365.742L313.387 365.181L310.59 356.949L315.496 358.962Z" stroke="#1A2E35" stroke-width="1.33333" stroke-miterlimit="10" stroke-linecap="round" stroke-linejoin="round"/>
</g>
<g id="g296">
<path id="path298" d="M313.388 365.181L311.473 366.542L309.705 367.296L307.582 362.009L306.885 358.881L305.837 357.046L308.428 357.513L310.59 356.949L313.388 365.181Z" fill="white"/>
</g>
<g id="g300">
<path id="path302" d="M313.388 365.181L311.473 366.542L309.705 367.296L307.582 362.009L306.885 358.881L305.837 357.046L308.428 357.513L310.59 356.949L313.388 365.181Z" stroke="#1A2E35" stroke-width="1.33333" stroke-miterlimit="10" stroke-linecap="round" stroke-linejoin="round"/>
</g>
<g id="g304">
<path id="path306" d="M317.291 365.742L315.195 367.989L314.422 369.703L309.704 367.295L313.387 365.181L317.291 365.742Z" fill="white"/>
</g>
<g id="g308">
<path id="path310" d="M317.291 365.742L315.195 367.989L314.422 369.703L309.704 367.295L313.387 365.181L317.291 365.742Z" stroke="#1A2E35" stroke-width="1.33333" stroke-miterlimit="10" stroke-linecap="round" stroke-linejoin="round"/>
</g>
</g>
</g>
</g>
</svg>
